<svg width="24" height="24" viewBox="0 0 24 24" fill="none" xmlns="http://www.w3.org/2000/svg">
<path d="M16.6783 12.1131L12 7.43475L7.32168 12.1131L9.18801 13.9653L10.675 12.4783L10.675 16.4381L13.325 16.4381L13.325 12.4783L14.812 13.9653L16.6783 12.1131ZM22.4804 12C22.4804 13.4587 22.2058 14.8246 21.6564 16.0977C21.1071 17.3707 20.3616 18.4781 19.4198 19.4199C18.4781 20.3616 17.3707 21.1071 16.0976 21.6565C14.8246 22.2058 13.4587 22.4805 12 22.4805C10.5413 22.4805 9.1754 22.2058 7.90233 21.6565C6.62925 21.1071 5.52185 20.3616 4.58013 19.4199C3.6384 18.4781 2.89286 17.3707 2.34353 16.0977C1.7942 14.8246 1.51953 13.4587 1.51953 12C1.51953 10.5413 1.7942 9.17542 2.34353 7.90235C2.89286 6.62927 3.6384 5.52187 4.58013 4.58015C5.52185 3.63842 6.62925 2.89289 7.90233 2.34355C9.1754 1.79422 10.5413 1.51955 12 1.51955C13.4587 1.51955 14.8246 1.79422 16.0976 2.34355C17.3707 2.89289 18.4781 3.63842 19.4198 4.58015C20.3616 5.52187 21.1071 6.62927 21.6564 7.90235C22.2058 9.17542 22.4804 10.5413 22.4804 12ZM19.8304 12C19.8304 9.80435 19.0742 7.95037 17.5619 6.43805C16.0496 4.92574 14.1956 4.16958 12 4.16958C9.80433 4.16958 7.95035 4.92574 6.43803 6.43805C4.92571 7.95037 4.16956 9.80435 4.16956 12C4.16956 14.1957 4.92571 16.0496 6.43803 17.562C7.95035 19.0743 9.80433 19.8304 12 19.8304C14.1956 19.8304 16.0496 19.0743 17.5619 17.562C19.0742 16.0496 19.8304 14.1957 19.8304 12Z" fill="#00847C"/>
</svg>
