<svg width="24" height="24" viewBox="0 0 24 24" fill="none" xmlns="http://www.w3.org/2000/svg">
<path d="M11.8869 16.6783L16.5652 12L11.8869 7.3217L10.0347 9.18802L11.5217 10.675H7.56191V13.325H11.5217L10.0347 14.812L11.8869 16.6783ZM12 22.4804C10.5413 22.4804 9.1754 22.2058 7.90233 21.6564C6.62925 21.1071 5.52185 20.3616 4.58013 19.4198C3.6384 18.4781 2.89286 17.3707 2.34353 16.0976C1.7942 14.8246 1.51953 13.4587 1.51953 12C1.51953 10.5413 1.7942 9.17541 2.34353 7.90235C2.89286 6.62926 3.6384 5.52186 4.58013 4.58015C5.52185 3.63841 6.62925 2.89288 7.90233 2.34355C9.1754 1.79421 10.5413 1.51955 12 1.51955C13.4587 1.51955 14.8246 1.79421 16.0976 2.34355C17.3707 2.89288 18.4781 3.63841 19.4198 4.58015C20.3616 5.52186 21.1071 6.62926 21.6564 7.90235C22.2058 9.17541 22.4804 10.5413 22.4804 12C22.4804 13.4587 22.2058 14.8246 21.6564 16.0976C21.1071 17.3707 20.3616 18.4781 19.4198 19.4198C18.4781 20.3616 17.3707 21.1071 16.0976 21.6564C14.8246 22.2058 13.4587 22.4804 12 22.4804ZM12 19.8304C14.1956 19.8304 16.0496 19.0743 17.5619 17.5619C19.0742 16.0496 19.8304 14.1956 19.8304 12C19.8304 9.80435 19.0742 7.95036 17.5619 6.43805C16.0496 4.92573 14.1956 4.16957 12 4.16957C9.80433 4.16957 7.95035 4.92573 6.43803 6.43805C4.92571 7.95036 4.16956 9.80435 4.16956 12C4.16956 14.1956 4.92571 16.0496 6.43803 17.5619C7.95035 19.0743 9.80433 19.8304 12 19.8304Z" fill="#00847C"/>
</svg>
