<svg width="24" height="24" viewBox="0 0 24 24" fill="none" xmlns="http://www.w3.org/2000/svg">
<path d="M5.16956 22.4805C4.43114 22.4805 3.80486 22.2234 3.29073 21.7093C2.7766 21.1951 2.51953 20.5688 2.51953 19.8304V6.16958C2.51953 5.43116 2.7766 4.80488 3.29073 4.29075C3.80486 3.77662 4.43114 3.51955 5.16956 3.51955H5.99998V2.68206C5.99998 2.04002 6.52046 1.51955 7.16249 1.51955V1.51955C7.80453 1.51955 8.32501 2.04002 8.32501 2.68206V3.51955H15.675V2.68206C15.675 2.04002 16.1954 1.51955 16.8375 1.51955V1.51955C17.4795 1.51955 18 2.04002 18 2.68206V3.51955H18.8304C19.5688 3.51955 20.1951 3.77662 20.7092 4.29075C21.2234 4.80488 21.4804 5.43116 21.4804 6.16958V19.8304C21.4804 20.5688 21.2234 21.1951 20.7092 21.7093C20.1951 22.2234 19.5688 22.4805 18.8304 22.4805H5.16956ZM5.16956 19.8304H18.8304V10H5.16956V19.8304ZM5.16956 8H18.8304V6.16958H5.16956V8ZM12 14.1131C11.6846 14.1131 11.4203 14.0064 11.2069 13.7931C10.9936 13.5797 10.8869 13.3154 10.8869 13C10.8869 12.6846 10.9936 12.4203 11.2069 12.207C11.4203 11.9936 11.6846 11.887 12 11.887C12.3153 11.887 12.5797 11.9936 12.793 12.207C13.0064 12.4203 13.113 12.6846 13.113 13C13.113 13.3154 13.0064 13.5797 12.793 13.7931C12.5797 14.0064 12.3153 14.1131 12 14.1131ZM7.99998 14.1131C7.68461 14.1131 7.42026 14.0064 7.20693 13.7931C6.9936 13.5797 6.88693 13.3154 6.88693 13C6.88693 12.6846 6.9936 12.4203 7.20693 12.207C7.42026 11.9936 7.68461 11.887 7.99998 11.887C8.31535 11.887 8.5797 11.9936 8.79303 12.207C9.00636 12.4203 9.11303 12.6846 9.11303 13C9.11303 13.3154 9.00636 13.5797 8.79303 13.7931C8.5797 14.0064 8.31535 14.1131 7.99998 14.1131ZM16 14.1131C15.6978 14.1131 15.4368 14.0064 15.2168 13.7931C14.9969 13.5797 14.8869 13.3154 14.8869 13C14.8869 12.6846 14.9969 12.4203 15.2168 12.207C15.4368 11.9936 15.7002 11.887 16.0071 11.887C16.3139 11.887 16.575 11.9936 16.7902 12.207C17.0054 12.4203 17.113 12.6846 17.113 13C17.113 13.3154 17.0064 13.5797 16.793 13.7931C16.5797 14.0064 16.3153 14.1131 16 14.1131ZM12 18.1131C11.6846 18.1131 11.4203 18.0031 11.2069 17.7832C10.9936 17.5632 10.8869 17.2998 10.8869 16.9929C10.8869 16.686 10.9936 16.425 11.2069 16.2098C11.4203 15.9946 11.6846 15.887 12 15.887C12.3153 15.887 12.5797 15.9936 12.793 16.207C13.0064 16.4203 13.113 16.6846 13.113 17C13.113 17.3022 13.0064 17.5632 12.793 17.7832C12.5797 18.0031 12.3153 18.1131 12 18.1131ZM7.99998 18.1131C7.68461 18.1131 7.42026 18.0031 7.20693 17.7832C6.9936 17.5632 6.88693 17.2998 6.88693 16.9929C6.88693 16.686 6.9936 16.425 7.20693 16.2098C7.42026 15.9946 7.68461 15.887 7.99998 15.887C8.31535 15.887 8.5797 15.9936 8.79303 16.207C9.00636 16.4203 9.11303 16.6846 9.11303 17C9.11303 17.3022 9.00636 17.5632 8.79303 17.7832C8.5797 18.0031 8.31535 18.1131 7.99998 18.1131ZM16 18.1131C15.6978 18.1131 15.4368 18.0031 15.2168 17.7832C14.9969 17.5632 14.8869 17.2998 14.8869 16.9929C14.8869 16.686 14.9969 16.425 15.2168 16.2098C15.4368 15.9946 15.7002 15.887 16.0071 15.887C16.3139 15.887 16.575 15.9936 16.7902 16.207C17.0054 16.4203 17.113 16.6846 17.113 17C17.113 17.3022 17.0064 17.5632 16.793 17.7832C16.5797 18.0031 16.3153 18.1131 16 18.1131Z" fill="#00B199"/>
</svg>
