<svg width="24" height="24" viewBox="0 0 24 24" fill="none" xmlns="http://www.w3.org/2000/svg">
<path d="M7.32609 18.5261C6.81462 19.0376 5.98536 19.0376 5.47389 18.5261V18.5261C4.96242 18.0146 4.96242 17.1854 5.47389 16.6739L10.1478 12L5.47389 7.32609C4.96242 6.81462 4.96242 5.98536 5.47389 5.47389V5.47389C5.98536 4.96242 6.81462 4.96242 7.32609 5.47389L12 10.1478L16.6739 5.47389C17.1854 4.96242 18.0146 4.96242 18.5261 5.47389V5.47389C19.0376 5.98536 19.0376 6.81462 18.5261 7.32609L13.8522 12L18.5261 16.6739C19.0376 17.1854 19.0376 18.0146 18.5261 18.5261V18.5261C18.0146 19.0376 17.1854 19.0376 16.6739 18.5261L12 13.8522L7.32609 18.5261Z" fill="#0B6D73"/>
</svg>
