<svg width="24" height="24" viewBox="0 0 24 24" fill="none" xmlns="http://www.w3.org/2000/svg">
<path d="M7.08476 16.9152H14.0848V14.9152H7.08476V16.9152ZM7.08476 13H16.9152V11H7.08476V13ZM7.08476 9.08476H16.9152V7.08476H7.08476V9.08476ZM5.16956 21.4804C4.43114 21.4804 3.80486 21.2234 3.29073 20.7092C2.7766 20.1951 2.51953 19.5688 2.51953 18.8304V5.16956C2.51953 4.43114 2.7766 3.80486 3.29073 3.29073C3.80486 2.7766 4.43114 2.51953 5.16956 2.51953H18.8304C19.5688 2.51953 20.1951 2.7766 20.7092 3.29073C21.2234 3.80486 21.4804 4.43114 21.4804 5.16956V18.8304C21.4804 19.5688 21.2234 20.1951 20.7092 20.7092C20.1951 21.2234 19.5688 21.4804 18.8304 21.4804H5.16956ZM5.16956 18.8304H18.8304V5.16956H5.16956V18.8304Z" fill="#00847C"/>
</svg>
