<svg width="24" height="24" viewBox="0 0 24 24" fill="none" xmlns="http://www.w3.org/2000/svg">
<path d="M6.50003 20.4804C4.87031 20.4804 3.4732 19.9178 2.3087 18.7924C1.1442 17.667 0.561951 16.2915 0.561951 14.6658C0.561951 13.2724 0.963034 12.0308 1.7652 10.9411C2.56738 9.85136 3.63008 9.15541 4.95328 8.85324C5.27429 7.67208 5.99204 6.53748 7.10653 5.44944C8.22103 4.36139 9.42465 3.81737 10.7174 3.81737C11.371 3.81737 11.9337 4.03911 12.4055 4.48259C12.8772 4.92608 13.1131 5.46521 13.1131 6.09999V12.1076L14.6 10.6424L16.1555 12.1978L12 16.3533L7.84458 12.1978L9.40003 10.6424L10.887 12.1076V6.31197C9.71451 6.60182 8.8089 7.22373 8.17015 8.17772C7.53138 9.1317 7.212 10.129 7.212 11.1696H6.54243C5.62259 11.1696 4.83756 11.4947 4.18733 12.1449C3.53711 12.7951 3.212 13.5802 3.212 14.5C3.212 15.429 3.53298 16.2163 4.17493 16.8619C4.81688 17.5076 5.59191 17.8304 6.50003 17.8304H18.5C19.1341 17.8304 19.6739 17.6076 20.1196 17.1619C20.5652 16.7163 20.7881 16.1623 20.7881 15.5C20.7881 14.8565 20.5652 14.3072 20.1196 13.8522C19.6739 13.3971 19.1199 13.1696 18.4576 13.1696H16.887V11.0424C16.887 10.2895 16.7272 9.60018 16.4076 8.97447C16.1882 8.54485 15.916 8.14879 15.5911 7.78629C15.3047 7.46681 15.1131 7.0654 15.1131 6.63634V6.63634C15.1131 5.54115 16.2549 4.83789 17.0557 5.58502C17.4691 5.97077 17.8366 6.40746 18.1582 6.89509C18.9173 8.04618 19.3345 9.31556 19.4098 10.7032C20.5881 10.9402 21.554 11.5138 22.3077 12.4239C23.0613 13.334 23.4381 14.3877 23.4381 15.5848C23.4381 16.9447 22.958 18.1006 21.9978 19.0525C21.0376 20.0045 19.8717 20.4804 18.5 20.4804H6.50003Z" fill="white"/>
</svg>
