<svg width="264" height="271" viewBox="0 0 264 271" fill="none" xmlns="http://www.w3.org/2000/svg">
<path d="M45.2783 264.329C95.3805 213.251 116.959 190.779 119.267 187.282C122.421 182.5 120.602 180.115 107.798 172.243C102.513 168.993 94.5555 163.979 90.1138 161.099C85.326 157.994 80.4121 155.489 78.0455 154.942C74.2974 154.079 73.8594 154.156 70.8781 156.222C69.1301 157.43 64.0495 162.198 59.5842 166.814C55.1189 171.43 39.9217 186.92 25.8129 201.236L0.160156 227.267V248.036C0.160156 261.744 0.477273 269.106 1.04125 269.687C1.6157 270.262 8.38344 270.575 20.524 270.586L39.1256 270.605L45.278 264.332L45.2783 264.329ZM118.443 254.496C129.722 251.37 137.216 244.361 143.917 230.674C152.835 212.459 156.754 207.096 175.711 187.162C195.006 166.873 199.801 158.491 203.671 138.293C205.659 127.921 205.648 119.383 203.645 107.897C201.798 97.3354 200.385 92.8539 196.427 84.9697C185.283 62.7736 165.448 47.3837 140.442 41.5333C133.192 39.8382 112.268 39.8276 104.196 41.5186C88.316 44.842 75.0886 52.1003 63.4732 63.8613C52.9838 74.4818 43.932 91.3893 42.3499 103.317C41.8213 107.294 41.927 107.618 44.6231 110.315C47.6576 113.349 52.7794 114.924 55.0558 113.525C55.7712 113.085 57.6496 108.871 59.2285 104.161C63.3365 91.9073 68.1271 83.978 76.4892 75.5919C86.0154 66.0379 95.7795 60.5611 108.859 57.4361C114.903 55.9912 130.158 55.97 136.339 57.401C158.406 62.4904 177.773 79.4973 184.817 99.9732C191.257 118.689 190.563 134.615 182.618 150.444C178.253 159.142 175.46 162.756 163.818 174.775C151.306 187.692 147.905 191.87 141.592 202.076C136.628 210.1 136.473 210.37 129.722 222.794C120.305 240.123 110.974 244.869 97.6082 239.124C91.0953 236.326 84.643 235.642 82.7346 237.549C80.5636 239.72 80.9513 245.32 83.4606 248.027C85.5928 250.328 90.093 252.916 95.2769 254.826C99.7013 256.454 112.024 256.285 118.446 254.509L118.443 254.496ZM169.774 156.301C173.936 153.386 178.938 141.267 180.655 129.938C182.273 119.273 180.236 107.687 174.701 96.0445C171.966 90.2946 170.146 87.8487 164.319 82.0988C151.541 69.4895 142.09 65.6921 123.48 65.6921C110.409 65.6921 107.165 66.3582 97.2653 71.0822C91.2962 73.9298 88.5166 75.9041 83.5505 80.8219C73.3832 90.8905 69.9692 98.9228 74.0127 103.263C78.0741 107.622 82.667 106.604 87.2133 100.341C92.4078 93.182 95.1959 90.4401 101.537 86.2536C109.311 81.1218 116.052 79.3153 125.495 79.8341C129.427 80.0455 134.466 80.8702 136.695 81.6597C146.323 85.0641 157.173 94.3059 161.988 103.206C164.652 108.134 167.508 118.639 167.508 123.528C167.508 128.545 164.607 139.06 161.881 143.915C160.577 146.238 159.273 149.161 158.977 150.411C158.448 152.67 159.544 155.79 161.271 156.944C162.85 157.997 167.895 157.617 169.772 156.302L169.774 156.301ZM239.623 65.8972L264.301 40.6724L264.09 20.574L263.879 0.475909L243.731 0.264444L223.584 0.0529785L217.107 6.8348C213.544 10.5649 207.66 16.7564 204.031 20.5944C200.401 24.4324 193.463 31.697 188.613 36.7382C183.422 42.1342 179.795 46.5763 179.795 47.538C179.795 48.4861 183.332 52.9147 188.203 58.0701C197.46 67.8659 200.879 72.6145 205.927 82.6796C209.236 89.2809 210.85 91.0632 213.562 91.1129C214.313 91.1288 226.032 79.7865 239.605 65.9127L239.623 65.8972Z" fill="white"/>
</svg>
