<svg width="24" height="24" viewBox="0 0 24 24" fill="none" xmlns="http://www.w3.org/2000/svg">
<path d="M5.16956 21.4804C4.43114 21.4804 3.80486 21.2234 3.29073 20.7092C2.7766 20.1951 2.51953 19.5688 2.51953 18.8304V5.16956C2.51953 4.43114 2.7766 3.80486 3.29073 3.29073C3.80486 2.7766 4.43114 2.51953 5.16956 2.51953H18.8304C19.5688 2.51953 20.1951 2.7766 20.7092 3.29073C21.2234 3.80486 21.4804 4.43114 21.4804 5.16956V18.8304C21.4804 19.5688 21.2234 20.1951 20.7092 20.7092C20.1951 21.2234 19.5688 21.4804 18.8304 21.4804H5.16956ZM5.16956 18.8304H18.8304V5.16956H5.16956V18.8304ZM5.75976 17.1696H18.2402L14.25 11.7174L11.25 15.7174L8.99998 12.7174L5.75976 17.1696Z" fill="#00847C"/>
</svg>
