<svg width="24" height="24" viewBox="0 0 24 24" fill="none" xmlns="http://www.w3.org/2000/svg">
<path d="M4.51953 19.4098C3.78775 19.4098 3.19452 18.8166 3.19452 18.0848V18.0848C3.19452 17.353 3.78775 16.7598 4.51953 16.7598H5.34997V10.2826C5.34997 8.77682 5.79254 7.42754 6.67769 6.23477C7.56283 5.04202 8.72859 4.26485 10.175 3.90325V3.28802C10.175 2.78107 10.3524 2.35017 10.7073 1.9953C11.0621 1.64045 11.493 1.46302 12 1.46302C12.5069 1.46302 12.9379 1.64045 13.2927 1.9953C13.6476 2.35017 13.825 2.78107 13.825 3.28802V3.90325C15.2808 4.26485 16.4489 5.03968 17.3294 6.22773C18.2098 7.41576 18.65 8.76739 18.65 10.2826V16.7598H19.4946C20.2264 16.7598 20.8196 17.353 20.8196 18.0848V18.0848C20.8196 18.8166 20.2264 19.4098 19.4946 19.4098H4.51953ZM12.0141 22.4805C11.4175 22.4805 10.9067 22.2694 10.4819 21.8473C10.057 21.4252 9.84454 20.9178 9.84454 20.325H14.1696C14.1696 20.9221 13.9585 21.4306 13.5364 21.8506C13.1143 22.2705 12.6069 22.4805 12.0141 22.4805ZM7.99999 16.7598H16V10.2826C16 9.18262 15.6083 8.24096 14.825 7.45762C14.0417 6.67429 13.1 6.28262 12 6.28262C10.9 6.28262 9.95833 6.67429 9.17499 7.45762C8.39166 8.24096 7.99999 9.18262 7.99999 10.2826V16.7598Z" fill="#052770"/>
</svg>
