<svg width="24" height="24" viewBox="0 0 24 24" fill="none" xmlns="http://www.w3.org/2000/svg">
<path d="M12 19.325C11.2682 19.325 10.6749 18.7318 10.6749 18V13.325H5.99995C5.26816 13.325 4.67493 12.7318 4.67493 12V12C4.67493 11.2682 5.26816 10.675 5.99995 10.675H10.6749V6.00001C10.6749 5.26822 11.2682 4.67499 12 4.67499V4.67499C12.7317 4.67499 13.325 5.26822 13.325 6.00001V10.675H18C18.7317 10.675 19.325 11.2682 19.325 12V12C19.325 12.7318 18.7317 13.325 18 13.325H13.325V18C13.325 18.7318 12.7317 19.325 12 19.325V19.325Z" fill="#0B5059"/>
</svg>
