<svg width="24" height="24" viewBox="0 0 24 24" fill="none" xmlns="http://www.w3.org/2000/svg">
<path d="M4.02825 20.2826V18.0707H6.31193L6.09565 17.862C5.21955 17.0388 4.59238 16.1214 4.21413 15.1098C3.83586 14.0982 3.64673 13.0783 3.64673 12.05C3.64673 10.0493 4.2739 8.28332 5.52825 6.75215C6.41597 5.66853 7.48098 4.86093 8.72329 4.32934C9.53237 3.98313 10.3533 4.64448 10.3533 5.52452V5.52452C10.3533 6.1389 9.93702 6.66211 9.38722 6.93627C8.61152 7.32308 7.9551 7.884 7.41795 8.61903C6.67049 9.64184 6.29675 10.7855 6.29675 12.05C6.29675 12.7435 6.43135 13.4232 6.70055 14.0891C6.96975 14.7551 7.38551 15.3786 7.94783 15.9598L8.08478 16.0967V14H10.2968V20.2826H4.02825ZM15.2767 19.6707C14.4676 20.0169 13.6467 19.3555 13.6467 18.4755V18.4755C13.6467 17.8611 14.063 17.3379 14.6128 17.0637C15.3885 16.6769 16.0449 16.116 16.5821 15.381C17.3295 14.3582 17.7033 13.2145 17.7033 11.95C17.7033 11.2565 17.5687 10.5768 17.2995 9.91088C17.0303 9.24494 16.6145 8.62139 16.0522 8.04023L15.9152 7.90328V10H13.7033V3.71738H19.9718V5.92935H17.6881L17.9044 6.13803C18.7493 6.99238 19.3687 7.91756 19.7625 8.91358C20.1564 9.90959 20.3533 10.9217 20.3533 11.95C20.3533 13.9507 19.7261 15.7167 18.4718 17.2479C17.584 18.3315 16.519 19.1391 15.2767 19.6707Z" fill="white"/>
</svg>
