<svg width="24" height="24" viewBox="0 0 24 24" fill="none" xmlns="http://www.w3.org/2000/svg">
<path d="M20.5019 20.6139C19.9876 21.1243 19.1575 21.1227 18.6452 20.6104L13.1729 15.1381C12.6823 15.5004 12.1143 15.7888 11.4691 16.0033C10.8238 16.2178 10.1297 16.325 9.38698 16.325C7.48553 16.325 5.87266 15.6629 4.54838 14.3386C3.22409 13.0143 2.56195 11.4015 2.56195 9.5C2.56195 7.59855 3.22409 5.98568 4.54838 4.6614C5.87266 3.33712 7.48553 2.67498 9.38698 2.67498C11.2884 2.67498 12.9013 3.33712 14.2256 4.6614C15.5499 5.98568 16.212 7.59855 16.212 9.5C16.212 10.2522 16.1048 10.9462 15.8903 11.5821C15.6758 12.2179 15.3874 12.7765 15.0251 13.2576L20.5065 18.7511C21.0206 19.2663 21.0185 20.1012 20.5019 20.6139V20.6139ZM9.38698 13.675C10.5522 13.675 11.5393 13.2705 12.3484 12.4614C13.1574 11.6524 13.562 10.6652 13.562 9.5C13.562 8.33478 13.1574 7.34765 12.3484 6.5386C11.5393 5.72955 10.5522 5.32503 9.38698 5.32503C8.22176 5.32503 7.23463 5.72955 6.42558 6.5386C5.61653 7.34765 5.212 8.33478 5.212 9.5C5.212 10.6652 5.61653 11.6524 6.42558 12.4614C7.23463 13.2705 8.22176 13.675 9.38698 13.675Z" fill="#00847C"/>
</svg>
