<svg width="24" height="24" viewBox="0 0 24 24" fill="none" xmlns="http://www.w3.org/2000/svg">
<path d="M10.6012 22.4804C9.59451 22.4804 8.74472 21.7322 8.61727 20.7337L8.41195 19.125C8.27065 19.0699 8.13478 19.0029 8.00435 18.9239C7.87393 18.8449 7.74531 18.7623 7.6185 18.6761L6.13245 19.3059C5.20177 19.7003 4.12311 19.3383 3.61878 18.4623L2.20806 16.0119C1.70528 15.1386 1.93076 14.0276 2.73423 13.4194L4.0163 12.4489C4.00905 12.3699 4.00542 12.2951 4.00542 12.2244V11.7755C4.00542 11.7049 4.00905 11.6301 4.0163 11.5511L2.73738 10.583C1.93256 9.97374 1.70787 8.86027 2.21344 7.9866L3.62363 5.54971C4.12636 4.68095 5.19514 4.31939 6.12205 4.70451L7.64677 5.33801C7.77357 5.25177 7.89929 5.17152 8.02392 5.09726C8.14856 5.02297 8.2779 4.9583 8.41195 4.90323L8.61887 3.26839C8.74538 2.2689 9.59557 1.51953 10.603 1.51953H13.397C14.4045 1.51953 15.2547 2.2689 15.3812 3.2684L15.5881 4.90323C15.7294 4.9583 15.8653 5.02297 15.9957 5.09726C16.1261 5.17152 16.2547 5.25177 16.3815 5.33801L17.8749 4.7119C18.8028 4.32287 19.8753 4.68376 20.3793 5.55463L21.7844 7.98271C22.2909 8.85805 22.0643 9.97376 21.2564 10.5821L19.9696 11.5511C19.9769 11.6301 19.9805 11.7049 19.9805 11.7755V12C19.9805 12.079 19.9781 12.1538 19.9734 12.2244C19.9687 12.2951 19.9591 12.3699 19.9446 12.4489L21.2318 13.4182C22.0395 14.0264 22.2662 15.1418 21.7601 16.0171L20.3445 18.465C19.8387 19.3396 18.7602 19.6997 17.8304 19.3043L16.3533 18.6761C16.2265 18.7623 16.1008 18.8449 15.9761 18.9239C15.8515 19.0029 15.7221 19.0699 15.5881 19.125L15.3828 20.7336C15.2553 21.7322 14.4055 22.4804 13.3989 22.4804H10.6012ZM12.0076 15.5C12.9743 15.5 13.7993 15.1583 14.4826 14.475C15.166 13.7916 15.5076 12.9666 15.5076 12C15.5076 11.0333 15.166 10.2083 14.4826 9.52498C13.7993 8.84165 12.9743 8.49998 12.0076 8.49998C11.0337 8.49998 10.2069 8.84165 9.5272 9.52498C8.84748 10.2083 8.50762 11.0333 8.50762 12C8.50762 12.9666 8.84748 13.7916 9.5272 14.475C10.2069 15.1583 11.0337 15.5 12.0076 15.5ZM12.0076 13.5C11.591 13.5 11.2368 13.3541 10.9451 13.0625C10.6535 12.7708 10.5076 12.4166 10.5076 12C10.5076 11.5833 10.6535 11.2291 10.9451 10.9375C11.2368 10.6458 11.591 10.5 12.0076 10.5C12.4243 10.5 12.7785 10.6458 13.0701 10.9375C13.3618 11.2291 13.5076 11.5833 13.5076 12C13.5076 12.4166 13.3618 12.7708 13.0701 13.0625C12.7785 13.3541 12.4243 13.5 12.0076 13.5ZM11.1555 19.8304H12.8054L13.1696 17.2087C13.6957 17.0753 14.1913 16.8772 14.6565 16.6141C15.1218 16.3511 15.5377 16.0174 15.9044 15.613L18.3652 16.638L19.1707 15.1924L17.063 13.5956C17.1464 13.3435 17.2094 13.0835 17.2522 12.8157C17.2949 12.548 17.3163 12.2761 17.3163 12C17.3163 11.7239 17.2949 11.452 17.2522 11.1842C17.2094 10.9165 17.1464 10.6565 17.063 10.4043L19.1989 8.80758L18.3652 7.36196L15.9185 8.41196C15.5518 8.00036 15.1359 7.65832 14.6707 7.38586C14.2055 7.11339 13.7051 6.9152 13.1696 6.79128L12.8446 4.16956H11.1663L10.8446 6.77716C10.2997 6.90107 9.79223 7.09926 9.3223 7.37173C8.85238 7.6442 8.42937 7.98261 8.05327 8.38696L5.62067 7.36196L4.80112 8.80758L6.8946 10.3652C6.81126 10.634 6.74822 10.9005 6.70547 11.1647C6.66271 11.4288 6.64132 11.7072 6.64132 12C6.64132 12.2761 6.66271 12.5485 6.70547 12.8174C6.74822 13.0862 6.81126 13.3551 6.8946 13.6239L4.80112 15.1924L5.62067 16.638L8.05327 15.6022C8.42937 16.0043 8.85474 16.3416 9.32937 16.6141C9.80401 16.8866 10.3091 17.0895 10.8446 17.2228L11.1555 19.8304Z" fill="#00847C"/>
</svg>
