<svg width="24" height="24" viewBox="0 0 24 24" fill="none" xmlns="http://www.w3.org/2000/svg">
<path d="M6.0564 3.49463H17.1412V17.0316L10.3532 23.8195L8.73128 22.3465C8.57991 22.209 8.45495 22.0167 8.3564 21.7696C8.25785 21.5225 8.20858 21.279 8.20858 21.0392V20.8446L9.26618 17.0316H2.99988C2.30638 17.0316 1.69134 16.7633 1.15475 16.2267C0.618153 15.6901 0.349854 15.0751 0.349854 14.3816V13.2436C0.349854 13.104 0.36652 12.9544 0.399854 12.7949C0.433187 12.6353 0.475937 12.4925 0.528104 12.3664L3.6129 5.07615C3.81 4.62977 4.14243 4.25459 4.61018 3.9506C5.07795 3.64662 5.56002 3.49463 6.0564 3.49463ZM14.7031 6.14465H6.0564L3.02813 13.2436V14.3816H12.3956L11.2151 19.1892L14.7031 15.7012V6.14465ZM17.1412 17.0316V14.3816H19.7031V6.14465H17.1412V3.49463H22.3532V17.0316H17.1412Z" fill="#0B6D73"/>
</svg>
