<svg width="24" height="24" viewBox="0 0 24 24" fill="none" xmlns="http://www.w3.org/2000/svg">
<path d="M17.6466 21.8196H6.5618V8.28265L13.3499 1.49463L14.9717 2.96775C15.1231 3.10524 15.2481 3.29753 15.3466 3.54463C15.4452 3.79175 15.4944 4.03523 15.4944 4.27508V4.46963L14.4368 8.28265H20.7031C21.3966 8.28265 22.0117 8.55095 22.5483 9.08755C23.0849 9.62415 23.3532 10.2392 23.3532 10.9327V12.0707C23.3532 12.2103 23.3365 12.3599 23.3032 12.5194C23.2698 12.679 23.2271 12.8218 23.1749 12.9479L20.0901 20.2381C19.893 20.6845 19.5606 21.0597 19.0928 21.3637C18.6251 21.6676 18.143 21.8196 17.6466 21.8196ZM8.99988 19.1696H17.6466L20.6749 12.0707V10.9327H11.3075L12.4879 6.1251L8.99988 9.6131V19.1696ZM6.5618 8.28265V10.9327H3.99988V19.1696H6.5618V21.8196H1.34985V8.28265H6.5618Z" fill="#0B6D73"/>
</svg>
