<svg width="24" height="24" viewBox="0 0 24 24" fill="none" xmlns="http://www.w3.org/2000/svg">
<path d="M6.54243 20.4804C4.89326 20.4804 3.48423 19.9131 2.31533 18.7783C1.14641 17.6435 0.561951 16.2565 0.561951 14.6174C0.561951 13.2232 0.960684 11.973 1.75815 10.8668C2.55562 9.76067 3.62066 9.0565 4.95328 8.75432C5.42646 7.1833 6.31161 5.91809 7.60873 4.95867C8.90583 3.99925 10.3696 3.51955 12 3.51955C13.9971 3.51955 15.7055 4.20342 17.125 5.57117C18.5446 6.93892 19.3062 8.61664 19.4098 10.6043C20.5881 10.8413 21.554 11.4219 22.3077 12.3462C23.0613 13.2705 23.4381 14.3359 23.4381 15.5424C23.4381 16.9141 22.9511 18.08 21.9772 19.0402C21.0033 20.0004 19.8301 20.4804 18.4576 20.4804H13.537C12.8083 20.4804 12.1844 20.221 11.6654 19.702C11.1465 19.1831 10.887 18.5592 10.887 17.8304V13.5424L9.18805 15.2196L7.63263 13.6783L12 9.29675L16.3674 13.6783L14.812 15.2196L13.1131 13.5424V17.8304H18.4576C19.1011 17.8304 19.6504 17.6029 20.1055 17.1478C20.5605 16.6928 20.7881 16.1435 20.7881 15.5C20.7881 14.8565 20.5605 14.3072 20.1055 13.8522C19.6504 13.3971 19.1011 13.1696 18.4576 13.1696H16.7881V10.9576C16.7881 9.63291 16.3212 8.50374 15.3876 7.57007C14.4539 6.6364 13.3247 6.16957 12 6.16957C10.6544 6.16957 9.51996 6.66178 8.59678 7.6462C7.67359 8.63061 7.212 9.80507 7.212 11.1696H6.54243C5.62259 11.1696 4.83756 11.4947 4.18733 12.1448C3.53711 12.795 3.212 13.58 3.212 14.4997C3.212 15.4195 3.53711 16.2045 4.18733 16.8549C4.83756 17.5052 5.62259 17.8304 6.54243 17.8304H7.56196C8.29375 17.8304 8.88698 18.4237 8.88698 19.1554V19.1554C8.88698 19.8872 8.29375 20.4804 7.56196 20.4804H6.54243Z" fill="#0B6D73"/>
</svg>
