<svg width="24" height="24" viewBox="0 0 24 24" fill="none" xmlns="http://www.w3.org/2000/svg">
<path d="M9.45758 14.8647C9.45758 15.6561 10.3334 16.1339 10.9989 15.7055L15.4484 12.8408C16.0599 12.4471 16.0599 11.5529 15.4484 11.1592L10.9989 8.2945C10.3334 7.86605 9.45758 8.34384 9.45758 9.13531V14.8647ZM4.16956 20.4804C3.43114 20.4804 2.80486 20.2234 2.29073 19.7092C1.7766 19.1951 1.51953 18.5688 1.51953 17.8304V6.16956C1.51953 5.43114 1.7766 4.80486 2.29073 4.29073C2.80486 3.7766 3.43114 3.51953 4.16956 3.51953H19.8304C20.5688 3.51953 21.1951 3.7766 21.7092 4.29073C22.2234 4.80486 22.4804 5.43114 22.4804 6.16956V17.8304C22.4804 18.5688 22.2234 19.1951 21.7092 19.7092C21.1951 20.2234 20.5688 20.4804 19.8304 20.4804H4.16956ZM4.16956 17.8304H19.8304V6.16956H4.16956V17.8304Z" fill="#0B6D73"/>
</svg>
