<svg width="24" height="24" viewBox="0 0 24 24" fill="none" xmlns="http://www.w3.org/2000/svg">
<path d="M11.9999 16C13.2499 16 14.3124 15.5625 15.1874 14.6875C16.0624 13.8125 16.4999 12.75 16.4999 11.5C16.4999 10.25 16.0624 9.1875 15.1874 8.3125C14.3124 7.4375 13.2499 7 11.9999 7C10.7499 7 9.68744 7.4375 8.81244 8.3125C7.93744 9.1875 7.49994 10.25 7.49994 11.5C7.49994 12.75 7.93744 13.8125 8.81244 14.6875C9.68744 15.5625 10.7499 16 11.9999 16ZM12.0024 13.9032C11.3356 13.9032 10.7679 13.6698 10.2994 13.203C9.83093 12.7362 9.59669 12.1694 9.59669 11.5025C9.59669 10.8356 9.8301 10.2679 10.2969 9.79947C10.7637 9.33099 11.3306 9.09675 11.9974 9.09675C12.6643 9.09675 13.232 9.33015 13.7005 9.79697C14.1689 10.2638 14.4032 10.8306 14.4032 11.4975C14.4032 12.1644 14.1698 12.7321 13.703 13.2005C13.2361 13.669 12.6693 13.9032 12.0024 13.9032ZM11.9999 19.4381C9.45356 19.4381 7.14504 18.7118 5.07439 17.2592C3.00372 15.8067 1.49956 13.887 0.56189 11.5C1.49956 9.11303 3.00372 7.19328 5.07439 5.74075C7.14504 4.2882 9.45356 3.56192 11.9999 3.56192C14.5463 3.56192 16.8548 4.2882 18.9255 5.74075C20.9962 7.19328 22.5003 9.11303 23.438 11.5C22.5003 13.887 20.9962 15.8067 18.9255 17.2592C16.8548 18.7118 14.5463 19.4381 11.9999 19.4381ZM12.0012 17C13.8743 17 15.5936 16.5018 17.1592 15.5054C18.7248 14.5091 19.9242 13.1739 20.7575 11.5C19.9242 9.82608 18.7243 8.49094 17.1579 7.49457C15.5915 6.49819 13.8718 6 11.9987 6C10.1256 6 8.40627 6.49819 6.84069 7.49457C5.27512 8.49094 4.07567 9.82608 3.24234 11.5C4.07567 13.1739 5.27555 14.5091 6.84196 15.5054C8.40838 16.5018 10.1281 17 12.0012 17Z" fill="#00B199"/>
</svg>
