<svg width="24" height="24" viewBox="0 0 24 24" fill="none" xmlns="http://www.w3.org/2000/svg">
<path d="M0.59021 21.2402L12 1.51953L23.4098 21.2402H0.59021ZM4.80328 18.8022H19.1967L12 6.39566L4.80328 18.8022ZM12 17.9576C12.2928 17.9576 12.5444 17.8523 12.7549 17.6418C12.9654 17.4313 13.0707 17.1797 13.0707 16.8869C13.0707 16.5942 12.9654 16.3449 12.7549 16.1391C12.5444 15.9333 12.2928 15.8304 12 15.8304C11.7073 15.8304 11.4556 15.9333 11.2451 16.1391C11.0346 16.3449 10.9294 16.5942 10.9294 16.8869C10.9294 17.1797 11.0346 17.4313 11.2451 17.6418C11.4556 17.8523 11.7073 17.9576 12 17.9576ZM11 15H13V10.1554H11V15Z" fill="#C91726"/>
</svg>
