<svg width="28" height="28" viewBox="0 0 28 28" fill="none" xmlns="http://www.w3.org/2000/svg">
<g clip-path="url(#clip0_141_7206)">
<path fill-rule="evenodd" clip-rule="evenodd" d="M2.21053 0H25.7895C27.0103 0 28 0.989686 28 2.21053V25.7895C28 27.0103 27.0103 28 25.7895 28H2.21053C0.989686 28 0 27.0103 0 25.7895V2.21053C0 0.989686 0.989686 0 2.21053 0ZM7.47163 7H20.5284C21.0502 7 21.5668 7.0959 22.0489 7.28222C22.5309 7.46854 22.9688 7.74162 23.3377 8.08587C23.7065 8.43012 23.999 8.83878 24.1984 9.28851C24.3979 9.73824 24.5003 10.2202 24.5 10.7069V17.2931C24.5003 17.7798 24.3979 18.2618 24.1984 18.7115C23.999 19.1612 23.7065 19.5699 23.3377 19.9141C22.9688 20.2584 22.5309 20.5315 22.0489 20.7178C21.5668 20.9041 21.0502 21 20.5284 21H7.47163C6.94984 21 6.43317 20.9041 5.95114 20.7178C5.46911 20.5315 5.03117 20.2584 4.66233 19.9141C4.2935 19.5699 4.00101 19.1612 3.80157 18.7115C3.60213 18.2618 3.49966 17.7798 3.5 17.2931V10.7069C3.49966 10.2202 3.60213 9.73824 3.80157 9.28851C4.00101 8.83878 4.2935 8.43012 4.66233 8.08587C5.03117 7.74162 5.46911 7.46854 5.95114 7.28222C6.43317 7.0959 6.94984 7 7.47163 7ZM11.2333 10.9983V17.0018L16.7668 14L11.2333 10.9983Z" fill="#00847C"/>
</g>
<defs>
<clipPath id="clip0_141_7206">
<rect width="28" height="28" rx="4" fill="white"/>
</clipPath>
</defs>
</svg>
