<svg width="445" height="338" viewBox="0 0 445 338" fill="none" xmlns="http://www.w3.org/2000/svg">
<path d="M16.4323 336.815L0.0710259 136.254C-0.344849 131.146 1.07527 126.057 4.07602 121.903L85.7135 8.91502C87.8949 5.89477 90.8233 3.49289 94.2121 1.94489C97.6006 0.39652 101.334 -0.244735 105.045 0.0837653L384.529 24.725C388.954 25.1139 393.146 26.8625 396.536 29.7309C399.926 32.5993 402.345 36.4468 403.463 40.745L441.863 188.536C442.804 192.171 442.781 195.988 441.791 199.61L404.216 337.314L16.4323 336.815Z" fill="#E5FCFA"/>
<path d="M439.684 42.8689H172.409C170.195 42.8689 168.399 44.6641 168.399 46.8788V240.575C168.399 242.79 170.195 244.585 172.409 244.585H439.684C441.897 244.585 443.694 242.79 443.694 240.575V46.8788C443.694 44.6641 441.897 42.8689 439.684 42.8689Z" fill="white"/>
<path d="M256.838 111.422H256.031V109.318H256.838V111.422ZM256.838 107.21H256.031V105.107H256.838V107.21ZM256.838 103.003H256.031V100.899H256.838V103.003ZM256.838 98.7954H256.031V96.6916H256.838V98.7954ZM256.838 94.5879H256.031V92.4841H256.838V94.5879ZM256.838 90.3766H256.031V88.2729H256.838V90.3766ZM256.838 86.1691H256.031V84.0654H256.838V86.1691ZM256.838 81.9616H256.031V79.8579H256.838V81.9616ZM255.998 77.8104C255.908 77.1841 255.653 76.5916 255.255 76.0966L255.885 75.5904C256.373 76.1979 256.688 76.9254 256.796 77.6941L255.998 77.8104ZM253.748 74.9979C253.346 74.8441 252.923 74.7691 252.488 74.7691H251.816V73.9629H252.488C253.02 73.9629 253.541 74.0566 254.033 74.2441L253.748 74.9979ZM249.713 74.7691H247.609V73.9629H249.713V74.7691ZM245.505 74.7691H243.401V73.9629H245.505V74.7691ZM241.298 74.7691H239.194V73.9629H241.298V74.7691ZM237.086 74.7691H234.983V73.9629H237.086V74.7691ZM232.879 74.7691H230.775V73.9629H232.879V74.7691ZM228.671 74.7691H226.568V73.9629H228.671V74.7691ZM224.464 74.7691H222.36V73.9629H224.464V74.7691ZM220.256 74.7691H218.153V73.9629H220.256V74.7691ZM216.045 74.7691H213.941V73.9629H216.045V74.7691ZM211.838 74.7691H209.734V73.9629H211.838V74.7691ZM207.63 74.7691H205.526V73.9629H207.63V74.7691ZM203.423 74.7691H201.319V73.9629H203.423V74.7691ZM199.211 74.7691H197.108V73.9629H199.211V74.7691ZM195.004 74.7691H192.9V73.9629H195.004V74.7691ZM190.796 74.7691H188.693V73.9629H190.796V74.7691ZM186.589 74.7691H184.485V73.9629H186.589V74.7691ZM182.381 74.7691H180.278V73.9629H182.381V74.7691ZM178.17 74.7691H176.066V73.9629H178.17V74.7691ZM173.963 74.7691H171.859V73.9629H173.963V74.7691ZM169.755 74.7691H168.401V73.9629H169.755V74.7691Z" fill="#029B83"/>
<path d="M173.651 221.124L173.651 220.318L175.38 220.318L175.38 221.124L173.651 221.124ZM177.484 221.124L177.484 220.318L179.588 220.318L179.588 221.124L177.484 221.124ZM181.691 221.124L181.691 220.318L183.795 220.318L183.795 221.124L181.691 221.124ZM185.903 221.124L185.903 220.318L188.006 220.318L188.006 221.124L185.903 221.124ZM190.11 221.124L190.11 220.318L192.214 220.318L192.214 221.124L190.11 221.124ZM194.318 221.124L194.318 220.318L196.421 220.318L196.421 221.124L194.318 221.124ZM198.525 221.124L198.525 220.318L200.629 220.318L200.629 221.124L198.525 221.124ZM202.736 221.124L202.736 220.318L204.84 220.318L204.84 221.124L202.736 221.124ZM206.944 221.124L206.944 220.318L209.048 220.318L209.048 221.124L206.944 221.124ZM211.151 221.124L211.151 220.318L213.255 220.318L213.255 221.124L211.151 221.124ZM215.359 221.124L215.359 220.318L217.463 220.318L217.463 221.124L215.359 221.124ZM219.566 221.124L219.566 220.318L221.67 220.318L221.67 221.124L219.566 221.124ZM223.778 221.124L223.778 220.318L225.881 220.318L225.881 221.124L223.778 221.124ZM227.985 221.124L227.985 220.318L230.089 220.318L230.089 221.124L227.985 221.124ZM232.193 221.124L232.193 220.318L234.296 220.318L234.296 221.124L232.193 221.124ZM236.4 221.124L236.4 220.318L238.504 220.318L238.504 221.124L236.4 221.124ZM240.611 221.124L240.611 220.318L242.715 220.318L242.715 221.124L240.611 221.124ZM244.819 221.124L244.819 220.318L246.923 220.318L246.923 221.124L244.819 221.124ZM249.026 221.124L249.026 220.318L251.13 220.318L251.13 221.124L249.026 221.124ZM253.178 220.284C253.804 220.194 254.396 219.939 254.891 219.542L255.398 220.172C254.79 220.659 254.063 220.974 253.294 221.083L253.178 220.284ZM255.99 218.034C256.144 217.633 256.219 217.209 256.219 216.774L256.219 216.103L257.025 216.103L257.025 216.774C257.025 217.307 256.931 217.828 256.744 218.319L255.99 218.034ZM256.219 213.999L256.219 211.895L257.025 211.895L257.025 213.999L256.219 213.999ZM256.219 209.792L256.219 207.688L257.025 207.688L257.025 209.792L256.219 209.792ZM256.219 205.584L256.219 203.48L257.025 203.48L257.025 205.584L256.219 205.584ZM256.219 201.373L256.219 199.269L257.025 199.269L257.025 201.373L256.219 201.373ZM256.219 197.165L256.219 195.062L257.025 195.062L257.025 197.165L256.219 197.165ZM256.219 192.958L256.219 190.854L257.025 190.854L257.025 192.958L256.219 192.958ZM256.219 188.75L256.219 186.647L257.025 186.647L257.025 188.75L256.219 188.75ZM256.219 184.543L256.219 182.439L257.025 182.439L257.025 184.543L256.219 184.543Z" fill="#029B83"/>
<path d="M404.809 58.3141L405.615 58.3141L405.615 60.4179L404.809 60.4179L404.809 58.3141ZM404.809 62.5217L405.615 62.5217L405.615 64.6254L404.809 64.6254L404.809 62.5217ZM404.809 66.7291L405.615 66.7291L405.615 68.8329L404.809 68.8329L404.809 66.7291ZM404.809 70.9404L405.615 70.9404L405.615 73.0442L404.809 73.0442L404.809 70.9404ZM404.809 75.1479L405.615 75.1479L405.615 77.2516L404.809 77.2516L404.809 75.1479ZM404.809 79.3554L405.615 79.3554L405.615 81.4592L404.809 81.4592L404.809 79.3554ZM404.809 83.5629L405.615 83.5629L405.615 85.6666L404.809 85.6666L404.809 83.5629ZM404.809 87.7741L405.615 87.7741L405.615 89.8779L404.809 89.8779L404.809 87.7741ZM404.809 91.9817L405.615 91.9817L405.615 94.0854L404.809 94.0854L404.809 91.9817ZM404.809 96.1891L405.615 96.1891L405.615 98.2929L404.809 98.2929L404.809 96.1891ZM405.649 100.34C405.739 100.967 405.994 101.559 406.391 102.054L405.761 102.56C405.274 101.953 404.959 101.225 404.85 100.457L405.649 100.34ZM407.899 103.153C408.3 103.307 408.724 103.382 409.159 103.382L409.83 103.382L409.83 104.188L409.159 104.188C408.626 104.188 408.105 104.094 407.614 103.907L407.899 103.153ZM411.934 103.382L414.038 103.382L414.038 104.188L411.934 104.188L411.934 103.382ZM416.141 103.382L418.245 103.382L418.245 104.188L416.141 104.188L416.141 103.382ZM420.349 103.382L422.453 103.382L422.453 104.188L420.349 104.188L420.349 103.382ZM424.56 103.382L426.664 103.382L426.664 104.188L424.56 104.188L424.56 103.382ZM428.768 103.382L430.871 103.382L430.871 104.188L428.768 104.188L428.768 103.382ZM432.975 103.382L435.079 103.382L435.079 104.188L432.975 104.188L432.975 103.382ZM437.183 103.382L439.286 103.382L439.286 104.188L437.183 104.188L437.183 103.382ZM441.39 103.382L443.494 103.382L443.494 104.188L441.39 104.188L441.39 103.382Z" fill="#029B83"/>
<path d="M178.545 76.1642H176.587C176.134 76.1642 175.766 75.7966 175.766 75.3429V73.3854C175.766 72.9316 176.134 72.5641 176.587 72.5641H178.545C178.999 72.5641 179.366 72.9316 179.366 73.3854V75.3467C179.366 75.7967 178.999 76.1642 178.545 76.1642Z" fill="#029B83"/>
<path d="M354.045 163.164H352.087C351.634 163.164 351.266 162.797 351.266 162.343V160.385C351.266 159.932 351.634 159.564 352.087 159.564H354.045C354.499 159.564 354.866 159.932 354.866 160.385V162.347C354.866 162.797 354.499 163.164 354.045 163.164Z" fill="#029B83"/>
<path d="M229.871 76.055H228.038C227.614 76.055 227.269 75.71 227.269 75.2862V73.4525C227.269 73.0287 227.614 72.6837 228.038 72.6837H229.871C230.295 72.6837 230.64 73.0287 230.64 73.4525V75.2862C230.644 75.71 230.299 76.055 229.871 76.055Z" fill="#029B83"/>
<path d="M254.933 194.158L254.933 192.324C254.933 191.9 255.278 191.555 255.702 191.555L257.535 191.555C257.959 191.555 258.304 191.9 258.304 192.324L258.304 194.158C258.304 194.582 257.959 194.927 257.535 194.927L255.702 194.927C255.278 194.93 254.933 194.585 254.933 194.158Z" fill="#029B83"/>
<path d="M431.775 102.096L433.609 102.096C434.032 102.096 434.377 102.441 434.377 102.864L434.377 104.698C434.377 105.122 434.032 105.467 433.609 105.467L431.775 105.467C431.351 105.467 431.006 105.122 431.006 104.698L431.006 102.864C431.002 102.441 431.347 102.096 431.775 102.096Z" fill="#029B83"/>
<path d="M257.352 105.032H255.518C255.094 105.032 254.749 104.687 254.749 104.263V102.429C254.749 102.005 255.094 101.66 255.518 101.66H257.352C257.775 101.66 258.12 102.005 258.12 102.429V104.263C258.124 104.687 257.779 105.032 257.352 105.032Z" fill="#029B83"/>
<path d="M225.956 221.638L225.956 219.804C225.956 219.38 226.301 219.035 226.725 219.035L228.559 219.035C228.983 219.035 229.328 219.38 229.328 219.804L229.328 221.638C229.328 222.062 228.983 222.407 228.559 222.407L226.725 222.407C226.301 222.41 225.956 222.065 225.956 221.638Z" fill="#029B83"/>
<path d="M404.295 73.1191L406.129 73.1191C406.553 73.1191 406.898 73.4641 406.898 73.8879L406.898 75.7216C406.898 76.1454 406.553 76.4904 406.129 76.4904L404.295 76.4904C403.871 76.4904 403.526 76.1454 403.526 75.7216L403.526 73.8879C403.523 73.4641 403.868 73.1191 404.295 73.1191Z" fill="#029B83"/>
<path d="M257.381 155.06L255.548 155.094C255.124 155.102 254.771 154.764 254.764 154.337L254.73 152.503C254.723 152.079 255.06 151.727 255.488 151.719L257.321 151.685C257.745 151.678 258.098 152.015 258.105 152.443L258.139 154.277C258.146 154.704 257.805 155.053 257.381 155.06Z" fill="#029B83"/>
<path d="M432.338 244.337H431.531V242.608H432.338V244.337ZM432.338 240.504H431.531V238.4H432.338V240.504ZM432.338 236.297H431.531V234.193H432.338V236.297ZM432.338 232.085H431.531V229.982H432.338V232.085ZM432.338 227.878H431.531V225.774H432.338V227.878ZM432.338 223.67H431.531V221.567H432.338V223.67ZM432.338 219.463H431.531V217.359H432.338V219.463ZM432.338 215.252H431.531V213.148H432.338V215.252ZM432.338 211.044H431.531V208.94H432.338V211.044ZM432.338 206.837H431.531V204.733H432.338V206.837ZM432.338 202.629H431.531V200.525H432.338V202.629ZM432.338 198.422H431.531V196.318H432.338V198.422ZM432.338 194.21H431.531V192.107H432.338V194.21ZM432.338 190.003H431.531V187.899H432.338V190.003ZM432.338 185.795H431.531V183.692H432.338V185.795ZM432.338 181.588H431.531L431.531 179.484H432.338L432.338 181.588ZM432.338 177.377H431.531V175.273H432.338V177.377ZM432.338 173.169H431.531V171.065H432.338V173.169ZM432.338 168.962H431.531V166.858H432.338V168.962ZM431.498 164.81C431.408 164.184 431.153 163.592 430.755 163.097L431.385 162.59C431.873 163.198 432.188 163.925 432.296 164.694L431.498 164.81ZM429.248 161.998C428.846 161.844 428.423 161.769 427.988 161.769H427.316V160.963H427.988C428.52 160.963 429.041 161.057 429.533 161.244L429.248 161.998ZM425.213 161.769H423.109V160.963H425.213V161.769ZM421.005 161.769H418.901V160.963H421.005V161.769ZM416.798 161.769H414.694V160.963H416.798V161.769ZM412.586 161.769H410.483V160.963H412.586V161.769ZM408.379 161.769H406.275V160.963H408.379V161.769ZM404.171 161.769H402.068V160.963H404.171V161.769ZM399.964 161.769H397.86V160.963H399.964V161.769ZM395.756 161.769H393.653V160.963H395.756V161.769Z" fill="#029B83"/>
<path d="M405.371 163.055H403.538C403.114 163.055 402.769 162.71 402.769 162.286V160.453C402.769 160.029 403.114 159.684 403.538 159.684H405.371C405.795 159.684 406.14 160.029 406.14 160.453V162.286C406.144 162.71 405.799 163.055 405.371 163.055Z" fill="#029B83"/>
<path d="M432.851 192.032H431.018C430.594 192.032 430.249 191.687 430.249 191.263V189.429C430.249 189.005 430.594 188.66 431.018 188.66H432.851C433.275 188.66 433.62 189.005 433.62 189.429V191.263C433.624 191.687 433.279 192.032 432.851 192.032Z" fill="#029B83"/>
<path d="M432.881 242.06L431.048 242.094C430.624 242.102 430.271 241.764 430.264 241.337L430.23 239.503C430.223 239.079 430.56 238.727 430.988 238.719L432.821 238.685C433.245 238.678 433.598 239.015 433.605 239.443L433.639 241.277C433.646 241.704 433.305 242.053 432.881 242.06Z" fill="#029B83"/>
<path d="M175.928 221.668L175.894 219.834C175.886 219.411 176.224 219.058 176.651 219.051L178.485 219.017C178.909 219.009 179.261 219.347 179.269 219.774L179.303 221.608C179.31 222.032 178.973 222.384 178.545 222.392L176.711 222.426C176.284 222.433 175.935 222.092 175.928 221.668Z" fill="#029B83"/>
<path d="M172.036 42.5641H440.016C441.079 42.5641 442.102 42.9868 442.851 43.7387C443.605 44.4905 444.026 45.5106 444.026 46.5741V59.6465H168.026V46.5741C168.026 45.5106 168.449 44.4905 169.201 43.7387C169.953 42.9868 170.973 42.5641 172.036 42.5641Z" fill="#029B83"/>
<path d="M177.594 53.8201C178.94 53.8201 180.032 52.7285 180.032 51.382C180.032 50.0355 178.94 48.944 177.594 48.944C176.247 48.944 175.156 50.0355 175.156 51.382C175.156 52.7285 176.247 53.8201 177.594 53.8201Z" fill="white"/>
<path d="M185.341 53.8201C186.687 53.8201 187.779 52.7285 187.779 51.382C187.779 50.0355 186.687 48.944 185.341 48.944C183.995 48.944 182.903 50.0355 182.903 51.382C182.903 52.7285 183.995 53.8201 185.341 53.8201Z" fill="white"/>
<path d="M193.092 53.8201C194.438 53.8201 195.53 52.7285 195.53 51.382C195.53 50.0355 194.438 48.944 193.092 48.944C191.746 48.944 190.654 50.0355 190.654 51.382C190.654 52.7285 191.746 53.8201 193.092 53.8201Z" fill="white"/>
<path d="M440.137 244.625H171.916C170.895 244.635 169.911 244.24 169.182 243.526C168.453 242.812 168.037 241.839 168.026 240.82V46.4376C168.038 45.4188 168.454 44.446 169.183 43.7325C169.912 43.0194 170.895 42.6236 171.916 42.632H440.137C441.159 42.6236 442.142 43.0194 442.871 43.7325C443.597 44.446 444.014 45.4188 444.026 46.4376V240.82C444.014 241.839 443.601 242.812 442.871 243.526C442.142 244.24 441.159 244.635 440.137 244.625ZM171.916 43.3403C171.081 43.3339 170.277 43.6581 169.68 44.2411C169.083 44.8246 168.743 45.6201 168.732 46.4536V240.82C168.743 241.653 169.083 242.449 169.68 243.032C170.277 243.616 171.081 243.939 171.916 243.933H440.137C440.971 243.941 441.777 243.617 442.374 243.033C442.972 242.45 443.313 241.654 443.321 240.82V46.4376C443.313 45.6037 442.972 44.8077 442.374 44.2239C441.777 43.6405 440.971 43.3167 440.137 43.3243L171.916 43.3403Z" fill="#029B83"/>
<path d="M220.151 163.272H254.571V181.101H258.764V163.272H272.025V159.451H258.764V112.527H253.791L220.151 159.353V163.272ZM224.539 159.451L254.669 117.229V159.451H224.539Z" fill="#029B83"/>
<path d="M305.753 181.689C321.256 181.689 330.812 168.464 330.812 146.814C330.812 125.164 321.256 111.939 305.753 111.939C290.249 111.939 280.694 125.164 280.694 146.814C280.694 168.464 290.249 181.689 305.753 181.689ZM285.082 146.814C285.082 127.515 292.882 115.76 305.753 115.76C318.721 115.76 326.522 127.515 326.522 146.814C326.522 166.113 318.721 177.869 305.753 177.869C292.882 177.869 285.082 166.113 285.082 146.814Z" fill="#029B83"/>
<path d="M340.028 163.272H374.448V181.101H378.641V163.272H391.901V159.451H378.641V112.527H373.668L340.028 159.353V163.272ZM344.416 159.451L374.545 117.229V159.451H344.416Z" fill="#029B83"/>
<path d="M139.429 163.824V30.2529H70.298L44.168 66.4142V163.824H139.429Z" fill="white"/>
<path opacity="0.1" d="M49.8721 119.15H59.4571V141.02H65.6671V109.97L71.6071 104.03V98.0341H74.3071V104.3L79.6771 109.67V123.47H88.3471V136.745H100.227V111.339H106.977V107.27H113.187V141.02H116.588V119.529H130.621V141.02H134.941V162.639H49.8721V119.15Z" fill="black"/>
<path opacity="0.4" d="M134.941 162.639V35.8516H66.2521L49.8721 58.5241V162.639H134.941Z" fill="#B9CCCE"/>
<path opacity="0.3" d="M49.8721 112.779L98.6071 35.8516H116.588L49.8721 141.144V112.779Z" fill="white"/>
<path opacity="0.3" d="M124.531 35.5667L49.8721 151.085V156.182L127.546 35.8517L124.531 35.5667Z" fill="white"/>
<path opacity="0.3" d="M135.596 61.1004L65.8005 162.429L85.3755 162.103L134.939 89.7204L135.596 61.1004Z" fill="white"/>
<path d="M145.531 162.268H37.2905V168.118H145.531V162.268Z" fill="white"/>
<path d="M92.7261 32.9488H90.1011V165.193H92.7261V32.9488Z" fill="white"/>
<path d="M138.304 64.6292H44.5168V67.3591H138.304V64.6292Z" fill="white"/>
<path d="M138.307 95.3079H44.5193V98.0379H138.307V95.3079Z" fill="white"/>
<path d="M138.304 125.991H44.5168V128.721H138.304V125.991Z" fill="white"/>
<path d="M181.808 241.471C181.612 240.144 180.951 238.929 179.943 238.043C178.935 237.157 177.645 236.658 176.303 236.634H173.277L172.096 236.938V237.118L146.573 240.354C145.003 240.55 143.529 241.215 142.343 242.261C141.156 243.307 140.312 244.686 139.921 246.219L117.882 336.969H122.176L143.926 247.292C144.119 246.566 144.523 245.914 145.088 245.419C145.654 244.924 146.353 244.608 147.098 244.513L175.973 240.823C176.373 240.773 176.776 240.881 177.098 241.123C177.42 241.365 177.635 241.723 177.698 242.12L199.527 336.564H203.731L181.808 241.471Z" fill="#B9CCCE"/>
<path d="M119.456 336.939H115.151L137.201 246.189C137.593 244.657 138.437 243.277 139.623 242.231C140.81 241.185 142.284 240.521 143.854 240.324L172.729 236.634C174.203 236.437 175.695 236.827 176.884 237.721C178.073 238.615 178.862 239.941 179.081 241.412L201.026 336.508H196.804L175.001 242.064C174.944 241.665 174.731 241.304 174.408 241.061C174.086 240.818 173.68 240.712 173.28 240.767L144.405 244.453C143.657 244.535 142.954 244.847 142.39 245.345C141.827 245.843 141.432 246.504 141.259 247.235L119.456 336.939Z" fill="#8D9D9F"/>
<path d="M96.3788 261.763L81.8626 201.313C81.7621 200.888 81.7587 200.446 81.8528 200.02C81.9473 199.593 82.1367 199.193 82.4071 198.851C82.6778 198.508 83.0221 198.23 83.4147 198.039C83.8073 197.848 84.2382 197.748 84.6751 197.747H80.7451C80.3074 197.745 79.8751 197.843 79.4809 198.034C79.0868 198.224 78.7411 198.501 78.4699 198.845C78.1988 199.189 78.0098 199.589 77.9164 200.017C77.8234 200.444 77.8291 200.888 77.9326 201.313L92.4488 261.763L139.53 261.853L96.3788 261.763Z" fill="#B9CCCE"/>
<path d="M127.376 199.952C127.223 199.322 126.862 198.762 126.351 198.362C125.841 197.962 125.211 197.745 124.563 197.747H84.7043C84.2667 197.745 83.8343 197.843 83.4402 198.034C83.0461 198.224 82.7003 198.501 82.4296 198.845C82.1585 199.189 81.9691 199.589 81.8761 200.017C81.7831 200.444 81.7883 200.888 81.8918 201.313L96.4006 261.733L142.638 261.823L127.376 199.952Z" fill="#8D9D9F"/>
<path d="M190.062 265.937H127.467C127.185 265.949 126.904 265.904 126.641 265.804C126.377 265.705 126.136 265.553 125.933 265.358C125.729 265.163 125.568 264.929 125.457 264.67C125.347 264.41 125.29 264.132 125.29 263.85C125.29 263.568 125.347 263.289 125.457 263.03C125.568 262.771 125.729 262.537 125.933 262.342C126.136 262.147 126.377 261.995 126.641 261.896C126.904 261.796 127.185 261.751 127.467 261.763H190.062C190.6 261.786 191.108 262.016 191.481 262.405C191.854 262.793 192.062 263.311 192.062 263.85C192.062 264.389 191.854 264.907 191.481 265.295C191.108 265.684 190.6 265.914 190.062 265.937Z" fill="#8D9D9F"/>
<path d="M143.583 265.936H90.1794C89.6413 265.913 89.1328 265.684 88.7601 265.295C88.3873 264.906 88.1792 264.388 88.1792 263.849C88.1792 263.311 88.3873 262.793 88.7601 262.404C89.1328 262.015 89.6413 261.785 90.1794 261.763H143.583C144.121 261.785 144.63 262.015 145.003 262.404C145.375 262.793 145.583 263.311 145.583 263.849C145.583 264.388 145.375 264.906 145.003 265.295C144.63 265.684 144.121 265.913 143.583 265.936Z" fill="#6B797A"/>
<path d="M151.628 263.124C151.742 263.438 151.779 263.776 151.734 264.108C151.69 264.439 151.566 264.755 151.373 265.029C151.18 265.302 150.923 265.525 150.626 265.678C150.328 265.83 149.998 265.909 149.663 265.906H90.1802C89.9229 265.902 89.6683 265.85 89.4302 265.752L90.4914 261.732H149.651C150.082 261.734 150.502 261.868 150.854 262.117C151.206 262.366 151.472 262.718 151.616 263.124" fill="#B9CCCE"/>
<path d="M97.3464 262.911L100.856 249.396H101.34L97.8902 262.911H97.3464Z" fill="#6B797A"/>
<path d="M129.198 191.308C128.891 191.23 128.625 191.113 128.313 191.001C128.002 190.888 127.698 190.768 127.432 190.652C127.237 190.577 127.008 190.498 126.817 190.423C126.626 190.348 126.393 190.307 126.202 190.232C125.795 190.146 125.383 190.081 124.968 190.037C124.74 190.037 124.548 190 124.316 190H123.626C123.303 190.007 122.982 190.033 122.662 190.078C122.327 190.106 121.993 190.158 121.665 190.232L120.393 190.461C120.165 190.498 119.973 190.539 119.741 190.577C118.83 190.738 117.895 190.687 117.008 190.426C116.12 190.166 115.305 189.704 114.626 189.077L114.588 189.04C114.588 189.04 114.551 188.998 114.551 189.04L114.513 188.998C113.703 188.248 113.358 187.656 111.858 186.463C110.936 185.713 110.321 185.387 109.86 184.926C109.128 184.232 108.36 182.503 108.513 180.234C108.549 179.807 108.613 179.382 108.705 178.963C108.937 177.887 110.051 177.088 110.246 176.196C110.352 175.688 110.428 175.175 110.475 174.658C110.487 174.234 110.462 173.81 110.4 173.391C110.371 173.133 110.306 172.88 110.205 172.641C109.86 171.602 108.168 167.987 109.398 165.49C110.358 163.566 113.013 161.74 113.013 161.74C118.32 158.316 117.165 155.087 120.281 152.05C122.662 149.743 127.815 148.705 130.275 149.665C130.507 149.743 131.197 149.473 131.775 149.29C132.967 148.915 133.89 148.675 136.005 149.665C136.748 150.046 137.444 150.51 138.082 151.048C141.39 153.778 141.543 157.123 142.233 159.354V159.317C142.35 159.692 142.503 160.067 142.657 160.442C142.852 160.852 143.07 161.249 143.31 161.635C144.435 163.405 146.808 165.939 145.541 171.283C144.963 173.706 143.812 174.516 144.311 177.658C144.465 178.502 144.772 179.462 144.735 179.349C145.004 180.119 145.235 180.901 145.425 181.693C145.462 181.884 145.503 182.117 145.541 182.308C145.584 182.523 145.609 182.741 145.616 182.961C145.77 184.81 145.196 185.961 143.542 187.269C143.371 187.407 143.191 187.532 143.002 187.644C142.819 187.764 142.626 187.866 142.425 187.952C141.702 188.283 140.94 188.516 140.156 188.646C139.768 188.716 139.383 188.806 139.005 188.916C134.467 190.078 133.151 192.497 129.198 191.308Z" fill="#053849"/>
<path d="M222.705 309.46C222.705 309.46 226.245 319.959 227.55 323.334C228.589 325.985 232.282 327.639 233.359 327.988C233.396 327.988 233.396 327.988 233.434 328.025L246.124 332.87C247.354 333.294 245.891 335.638 245.891 335.638C245.763 335.818 245.586 335.953 245.382 336.035C245.179 336.118 244.956 336.14 244.74 336.099C244.41 336.024 244.104 335.867 243.855 335.638C243.834 335.615 243.806 335.604 243.776 335.6H243.547C243.506 335.6 243.469 335.638 243.431 335.675C243.321 335.803 243.186 335.908 243.033 335.979C242.881 336.054 242.715 336.095 242.546 336.099C242.172 336.092 241.814 335.942 241.549 335.675C241.487 335.627 241.408 335.604 241.329 335.608C241.25 335.615 241.177 335.653 241.125 335.713C241.033 335.822 240.919 335.912 240.789 335.972C240.659 336.032 240.518 336.062 240.375 336.062C240.067 336.054 239.77 335.945 239.527 335.754C239.463 335.713 239.386 335.694 239.309 335.702C239.232 335.705 239.16 335.739 239.104 335.792C238.926 335.957 238.694 336.054 238.451 336.062C238.277 336.069 238.104 336.024 237.954 335.934C237.804 335.844 237.682 335.717 237.604 335.559H237.491L219.457 335.293H220.417C218.456 335.252 215.917 333.677 215.842 331.715L215.767 330.41C215.689 328.794 209.077 309.61 209.077 309.61L222.705 309.46Z" fill="#F6E8E2"/>
<path d="M248.776 335.297C248.746 334.427 248.455 333.59 247.941 332.889C247.426 332.188 246.712 331.659 245.892 331.374L234.049 327.759C233.946 327.722 233.836 327.707 233.726 327.714C233.616 327.722 233.509 327.752 233.411 327.8C233.314 327.853 233.228 327.92 233.159 328.007C233.09 328.093 233.039 328.194 233.011 328.299C232.549 329.799 231.436 333.028 229.261 335.297L216.533 335.255C216.42 335.248 216.306 335.263 216.199 335.3C216.092 335.338 215.994 335.398 215.911 335.477C215.828 335.555 215.762 335.649 215.717 335.75C215.672 335.855 215.648 335.968 215.648 336.08C215.648 336.197 215.672 336.309 215.717 336.41C215.762 336.515 215.828 336.609 215.911 336.688C215.994 336.767 216.092 336.827 216.199 336.864C216.306 336.902 216.42 336.917 216.533 336.909L248.033 336.95C248.247 336.947 248.451 336.864 248.602 336.71C248.753 336.56 248.838 336.354 248.839 336.14L248.802 335.297H248.776Z" fill="#053849"/>
<path opacity="0.4" d="M248.775 335.297C248.753 334.61 248.566 333.935 248.232 333.335C247.897 332.732 247.424 332.218 246.851 331.835C248.314 332.874 248.044 333.95 245.97 333.872C235.05 333.335 232.129 333.335 230.857 333.219C230.872 333.204 230.883 333.185 230.889 333.167C230.896 333.144 230.898 333.125 230.895 333.103C230.414 333.872 229.861 334.592 229.245 335.255H216.495C216.382 335.248 216.268 335.263 216.161 335.3C216.054 335.342 215.956 335.398 215.873 335.477C215.79 335.555 215.724 335.649 215.679 335.754C215.634 335.855 215.611 335.968 215.611 336.084C215.611 336.197 215.634 336.309 215.679 336.414C215.724 336.515 215.79 336.609 215.873 336.688C215.956 336.767 216.054 336.827 216.161 336.864C216.268 336.902 216.382 336.917 216.495 336.909H248.025C248.248 336.909 248.462 336.819 248.621 336.662C248.779 336.504 248.869 336.29 248.872 336.065V335.297H248.775Z" fill="black"/>
<path opacity="0.4" d="M248.776 334.689L229.474 335.064L229.204 335.334L248.776 334.959V334.689Z" fill="black"/>
<path opacity="0.15" d="M246.507 334.314C246.416 334.423 246.301 334.513 246.171 334.573C246.041 334.633 245.9 334.663 245.757 334.659C245.45 334.652 245.153 334.543 244.913 334.352C244.848 334.31 244.771 334.295 244.694 334.303C244.618 334.31 244.546 334.34 244.49 334.393C244.31 334.558 244.077 334.652 243.833 334.659C243.66 334.667 243.488 334.622 243.339 334.532C243.189 334.445 243.068 334.314 242.99 334.16H242.873L224.84 333.89H225.777C223.816 333.853 221.277 332.278 221.24 330.317L221.161 329.008C221.086 327.662 216.47 314.053 214.973 309.59L209.127 309.707C209.127 309.707 215.742 328.892 215.817 330.508L215.896 331.817C215.971 333.778 218.521 335.353 220.433 335.39H219.477L237.511 335.66H237.627C237.701 335.81 237.816 335.938 237.959 336.024C238.101 336.114 238.266 336.159 238.433 336.159C238.676 336.152 238.909 336.054 239.086 335.889C239.144 335.84 239.216 335.81 239.292 335.803C239.368 335.799 239.443 335.814 239.51 335.852C239.757 336.032 240.051 336.14 240.357 336.159C240.5 336.159 240.641 336.129 240.771 336.073C240.901 336.013 241.015 335.923 241.107 335.814C241.159 335.754 241.232 335.717 241.311 335.709C241.39 335.702 241.469 335.728 241.531 335.777C241.8 336.035 242.155 336.185 242.528 336.2C242.699 336.204 242.867 336.167 243.021 336.092C243.175 336.02 243.309 335.912 243.413 335.777C243.451 335.735 243.488 335.698 243.53 335.698H243.777C243.787 335.698 243.797 335.702 243.803 335.709C243.811 335.717 243.815 335.724 243.815 335.735C244.065 335.964 244.37 336.125 244.7 336.2C244.916 336.242 245.14 336.219 245.344 336.137C245.549 336.054 245.726 335.915 245.855 335.735C246.139 335.297 246.358 334.817 246.507 334.314Z" fill="black"/>
<path d="M182.105 309.842L181.355 323.184C181.126 326.492 183.856 327.797 187.006 328.873C187.047 328.873 187.047 328.873 187.085 328.914L199.58 333.065C200.772 333.489 199.351 335.758 199.351 335.758C199.221 335.934 199.044 336.073 198.839 336.155C198.635 336.234 198.412 336.257 198.196 336.219C197.883 336.148 197.592 336.005 197.348 335.795L197.311 335.758H197.082C197.041 335.758 197.003 335.795 196.966 335.833C196.859 335.964 196.724 336.069 196.571 336.144C196.418 336.215 196.25 336.257 196.081 336.257C195.708 336.242 195.353 336.092 195.083 335.833C195.057 335.81 195.026 335.792 194.992 335.78C194.958 335.769 194.923 335.765 194.888 335.769C194.853 335.773 194.819 335.784 194.788 335.803C194.757 335.818 194.73 335.844 194.708 335.87C194.621 335.987 194.507 336.077 194.376 336.137C194.246 336.197 194.102 336.227 193.958 336.219C193.652 336.204 193.358 336.099 193.115 335.912C193.058 335.874 192.989 335.855 192.92 335.863C192.852 335.87 192.788 335.9 192.74 335.949C192.572 336.107 192.355 336.204 192.125 336.219C191.962 336.219 191.802 336.174 191.661 336.095C191.519 336.013 191.401 335.897 191.318 335.758H191.202L173.513 335.488H173.247C171.323 335.45 169.171 333.913 169.092 332.027L169.017 330.759C168.938 329.18 168.747 310.843 168.747 310.843L182.105 309.842Z" fill="#F6E8E2"/>
<path d="M202.151 335.409C202.123 334.562 201.84 333.74 201.34 333.054C200.84 332.372 200.145 331.85 199.346 331.565L187.77 328.067C187.567 327.995 187.344 328.007 187.15 328.1C186.956 328.194 186.807 328.363 186.735 328.565C186.311 330.028 185.194 333.182 183.041 335.409L170.621 335.372C170.408 335.372 170.203 335.458 170.052 335.612C169.901 335.762 169.816 335.968 169.815 336.182C169.813 336.287 169.832 336.395 169.871 336.493C169.911 336.59 169.97 336.68 170.046 336.755C170.121 336.834 170.211 336.89 170.31 336.932C170.409 336.973 170.515 336.992 170.621 336.988L201.345 337.025C201.559 337.025 201.763 336.939 201.914 336.789C202.065 336.635 202.15 336.433 202.151 336.219V335.409Z" fill="#053849"/>
<path opacity="0.4" d="M202.151 335.409C202.126 334.738 201.943 334.085 201.618 333.497C201.292 332.912 200.832 332.409 200.276 332.034C201.698 333.073 201.469 334.074 199.391 333.995C188.741 333.497 185.891 333.497 184.628 333.38C184.642 333.365 184.653 333.347 184.659 333.328C184.666 333.305 184.668 333.287 184.665 333.264C184.204 334.014 183.662 334.712 183.049 335.342H170.569C170.355 335.342 170.151 335.428 170 335.578C169.849 335.732 169.763 335.934 169.763 336.148C169.76 336.253 169.779 336.362 169.819 336.459C169.858 336.56 169.918 336.65 169.993 336.725C170.068 336.8 170.158 336.86 170.257 336.902C170.356 336.939 170.462 336.962 170.569 336.958H201.319C201.533 336.954 201.737 336.868 201.888 336.718C202.039 336.568 202.124 336.362 202.125 336.148V335.417L202.151 335.409Z" fill="black"/>
<path opacity="0.4" d="M202.151 334.794L183.311 335.143L183.041 335.409L202.166 335.034L202.151 334.794Z" fill="black"/>
<path opacity="0.15" d="M199.64 334.794C199.477 334.959 199.256 335.057 199.025 335.064C198.861 335.064 198.7 335.023 198.558 334.94C198.416 334.862 198.298 334.745 198.215 334.603H198.099L180.413 334.333H180.106C178.182 334.295 176.03 332.758 175.955 330.875L175.876 329.604C175.801 328.22 175.647 313.648 175.606 310.34L168.687 310.843C168.687 310.843 168.878 329.218 168.957 330.759L169.032 332.027C169.111 333.902 171.301 335.45 173.184 335.488H173.453L191.142 335.758H191.255C191.328 335.908 191.444 336.032 191.588 336.114C191.733 336.197 191.899 336.234 192.065 336.219C192.296 336.212 192.517 336.114 192.68 335.949C192.728 335.9 192.792 335.87 192.86 335.863C192.929 335.855 192.998 335.874 193.055 335.912C193.3 336.095 193.595 336.204 193.902 336.219C194.046 336.227 194.189 336.197 194.32 336.137C194.45 336.077 194.565 335.983 194.652 335.87C194.765 335.758 194.96 335.717 195.027 335.833C195.3 336.084 195.659 336.219 196.028 336.208C196.193 336.208 196.356 336.174 196.508 336.11C196.66 336.043 196.798 335.949 196.913 335.833C196.951 335.795 196.988 335.758 197.026 335.758H197.259C197.268 335.758 197.278 335.762 197.285 335.769C197.292 335.777 197.296 335.784 197.296 335.795C197.548 336.002 197.835 336.155 198.144 336.257C198.359 336.298 198.582 336.275 198.786 336.193C198.99 336.11 199.166 335.975 199.295 335.795C199.493 335.465 199.661 335.117 199.797 334.757C199.793 334.719 199.715 334.757 199.64 334.794Z" fill="black"/>
<path d="M134.082 182.383H137.427L143.348 183.422C143.58 183.729 146.078 183.384 146.502 186.842C146.539 187.382 146.618 187.918 146.693 188.458C147.499 196.378 150.998 198.583 151.568 203.567C152.374 210.722 145.609 212.064 144.878 219.834C143.648 233.06 145.418 240.287 145.418 240.287H103.527C103.527 240.287 103.41 240.017 103.602 238.787C103.914 236.946 104.325 235.123 104.832 233.327C106.602 226.79 104.524 208.644 104.524 208.644L102.409 197.019C102.102 195.304 102.16 193.543 102.581 191.852C103.001 190.161 103.773 188.578 104.848 187.207C105.922 185.835 107.274 184.705 108.815 183.892C110.356 183.079 112.052 182.6 113.79 182.488L134.082 182.383Z" fill="#029B83"/>
<path d="M142.654 239.277L142.695 240.027L143.04 239.953L143.078 239.203L142.654 239.277Z" fill="#053849"/>
<path d="M96.3857 224.278L105.573 211.786L104.002 188.42L90.2844 211.854L74.3282 197.12L67.7432 199.711L87.8094 224.053" fill="#F6E8E2"/>
<path d="M87.2593 223.385L67.7593 199.712L74.3443 197.12L90.3005 211.854L104.003 188.439L105.574 211.805L96.4018 224.278C95.921 224.851 95.3263 225.319 94.6558 225.651C93.9849 225.983 93.2529 226.173 92.5051 226.208C91.7578 226.244 91.0108 226.124 90.3118 225.856C89.6131 225.588 88.9772 225.179 88.4443 224.653C88.028 224.251 87.6328 223.828 87.2593 223.385Z" fill="#F6E8E2"/>
<path d="M92.988 207.058L102.914 215.536L105.948 211.786L104.002 188.42L92.988 207.058Z" fill="#029B83"/>
<path d="M58.4033 193.622C58.4033 193.622 65.5883 193.078 69.5821 193.821L69.9346 196.105L63.1096 195.797L58.4033 193.622Z" fill="#F6E8E2"/>
<g opacity="0.15">
<path opacity="0.15" d="M58.4033 193.622C58.4033 193.622 65.5883 193.078 69.5821 193.821L69.9346 196.105L63.1096 195.797L58.4033 193.622Z" fill="black"/>
</g>
<path d="M62.8612 197.657L58.1737 196.112L55.7925 190.145C55.7381 189.998 55.7381 189.835 55.7925 189.688C55.8195 189.605 55.863 189.528 55.92 189.461C55.977 189.395 56.0464 189.341 56.1244 189.301C56.2024 189.262 56.2875 189.238 56.3749 189.232C56.4619 189.226 56.5496 189.236 56.6325 189.264C56.9141 189.355 57.1485 189.553 57.285 189.815L59.3812 194.064L61.5112 194.859L62.8612 197.657Z" fill="#F6E8E2"/>
<path d="M53.4526 191.728C53.4578 191.622 53.4841 191.518 53.5302 191.423C53.5763 191.327 53.6412 191.242 53.7211 191.172C53.8009 191.102 53.8939 191.049 53.9948 191.015C54.0953 190.982 54.2018 190.97 54.3076 190.978C54.5659 190.997 54.8123 191.095 55.0126 191.26L56.8313 192.733L58.1738 196.108L53.7338 192.385C53.6382 192.305 53.5624 192.205 53.5137 192.091C53.4649 191.976 53.4439 191.852 53.4526 191.728Z" fill="#F6E8E2"/>
<path opacity="0.1" d="M58.3198 191.931L59.0923 194.77L62.8611 197.657L61.5111 194.86L59.3811 194.065L58.3198 191.931Z" fill="black"/>
<path d="M58.1738 196.111L52.5751 194.266C52.4806 194.232 52.3966 194.174 52.331 194.098C52.2653 194.021 52.2203 193.93 52.2001 193.831C52.1697 193.691 52.1907 193.545 52.2597 193.42C52.3287 193.294 52.4408 193.198 52.5751 193.149H52.6126C52.7446 193.108 52.8856 193.108 53.0176 193.149L55.4401 193.831L58.1738 196.111Z" fill="#F6E8E2"/>
<path opacity="0.1" d="M56.0742 192.129L58.1742 196.112L56.8317 192.744L56.0742 192.129Z" fill="black"/>
<path opacity="0.1" d="M54.5212 193.509L55.425 193.805L57.9562 196.04L57.4912 195.886L54.5212 193.509Z" fill="black"/>
<path d="M70.3911 202.648L75.1798 198.301L72.9073 192.999C72.6703 192.44 72.2957 191.95 71.8183 191.575C71.3409 191.2 70.7766 190.952 70.1773 190.854C68.5243 190.603 66.9084 190.15 65.3661 189.504C65.2566 189.456 65.1358 189.44 65.0173 189.456C64.8988 189.473 64.7874 189.522 64.6948 189.598C64.6093 189.661 64.5381 189.743 64.4863 189.836C64.4346 189.93 64.4034 190.033 64.3948 190.14C64.3862 190.246 64.4004 190.353 64.4368 190.454C64.4732 190.555 64.5302 190.646 64.6048 190.723C65.0814 191.334 65.7118 191.807 66.4311 192.095L68.3886 192.95C68.6398 193.051 68.7298 193.486 68.6811 193.756C68.6589 193.883 68.5956 193.998 68.5003 194.084C68.4054 194.171 68.2843 194.223 68.1561 194.233L64.9011 194.814C64.7042 194.826 64.5066 194.799 64.3202 194.735C64.1334 194.671 63.9613 194.57 63.8136 194.439L62.2761 193.085L61.2036 189.073C61.1762 188.97 61.1233 188.875 61.0502 188.798C60.9767 188.72 60.8852 188.663 60.7836 188.63H60.7348C60.5732 188.578 60.3977 188.591 60.2458 188.668C60.0943 188.744 59.9788 188.878 59.9248 189.039C59.8974 189.126 59.8884 189.218 59.8986 189.309L60.4348 194.139L61.8411 197.338L67.7698 199.768L70.3911 202.648Z" fill="#F6E8E2"/>
<path d="M152.486 189.073L165.825 213.256L182.16 197.772L188.745 200.364L169.05 225.08C168.539 225.743 167.884 226.283 167.136 226.66C166.388 227.036 165.564 227.239 164.727 227.254C163.889 227.269 163.059 227.096 162.298 226.747C161.536 226.398 160.863 225.882 160.328 225.238L148.901 209.911L152.486 189.073Z" fill="#F6E8E2"/>
<path d="M161.472 204.958L151.545 213.436L148.331 209.397L152.486 189.073L161.472 204.958Z" fill="#029B83"/>
<path d="M198.086 194.275C198.086 194.275 190.901 193.731 186.903 194.473L186.551 196.757L193.376 196.45L198.086 194.275Z" fill="#F6E8E2"/>
<g opacity="0.15">
<path opacity="0.15" d="M198.086 194.275C198.086 194.275 190.901 193.731 186.903 194.473L186.551 196.757L193.376 196.45L198.086 194.275Z" fill="black"/>
</g>
<path d="M193.628 198.309L198.311 196.764L200.692 190.798C200.747 190.65 200.747 190.488 200.692 190.34C200.665 190.257 200.621 190.18 200.564 190.114C200.507 190.048 200.437 189.993 200.359 189.954C200.28 189.914 200.195 189.891 200.107 189.884C200.02 189.878 199.932 189.889 199.849 189.917C199.571 190.01 199.339 190.206 199.2 190.464L197.093 194.717L194.959 195.508L193.628 198.309Z" fill="#F6E8E2"/>
<path d="M203.037 192.38C203.032 192.275 203.005 192.171 202.958 192.076C202.912 191.98 202.847 191.895 202.768 191.825C202.688 191.756 202.595 191.702 202.495 191.669C202.394 191.635 202.288 191.622 202.182 191.63C201.923 191.648 201.677 191.747 201.477 191.912L199.658 193.385L198.312 196.76L202.756 193.037C202.85 192.957 202.925 192.856 202.974 192.742C203.023 192.628 203.044 192.504 203.037 192.38Z" fill="#F6E8E2"/>
<path opacity="0.1" d="M198.165 192.583L197.396 195.422L193.628 198.31L194.974 195.512L197.107 194.717L198.165 192.583Z" fill="black"/>
<path d="M198.312 196.764L203.911 194.919C204.005 194.884 204.088 194.825 204.154 194.749C204.219 194.673 204.265 194.582 204.286 194.484C204.317 194.344 204.297 194.197 204.228 194.072C204.158 193.946 204.046 193.85 203.911 193.801H203.87C203.738 193.758 203.596 193.758 203.465 193.801L201.046 194.484L198.312 196.764Z" fill="#F6E8E2"/>
<path opacity="0.1" d="M200.416 192.782L198.312 196.764L199.658 193.397L200.416 192.782Z" fill="black"/>
<path opacity="0.1" d="M201.968 194.162L201.065 194.458L198.533 196.693L198.995 196.539L201.968 194.162Z" fill="black"/>
<path d="M186.469 203.301L181.305 198.94L183.578 193.637C183.816 193.079 184.19 192.589 184.668 192.214C185.145 191.84 185.709 191.591 186.308 191.492C187.962 191.242 189.58 190.789 191.123 190.142C191.233 190.095 191.353 190.078 191.471 190.095C191.59 190.111 191.701 190.16 191.794 190.236C191.879 190.3 191.95 190.381 192.002 190.475C192.053 190.569 192.084 190.672 192.092 190.779C192.1 190.885 192.086 190.992 192.049 191.093C192.013 191.193 191.955 191.284 191.88 191.361C191.404 191.971 190.775 192.444 190.058 192.733L188.1 193.588C187.845 193.69 187.755 194.125 187.804 194.395C187.826 194.522 187.891 194.638 187.986 194.724C188.082 194.81 188.204 194.862 188.333 194.871L191.599 195.445C191.796 195.457 191.993 195.43 192.18 195.365C192.367 195.301 192.539 195.2 192.686 195.07L194.216 193.701L195.293 189.688C195.319 189.585 195.371 189.491 195.443 189.413C195.517 189.336 195.608 189.278 195.709 189.246H195.761C195.923 189.195 196.097 189.209 196.248 189.285C196.399 189.362 196.514 189.494 196.568 189.655C196.597 189.741 196.606 189.834 196.594 189.925L196.061 194.755L194.651 197.972L188.726 200.402L186.469 203.301Z" fill="#F6E8E2"/>
<path d="M137.426 182.383L142.807 182.304C145.082 182.177 147.329 182.866 149.141 184.248C150.953 185.63 152.212 187.613 152.692 189.841L156.442 208.966L148.901 209.911L137.426 182.383Z" fill="#029B83"/>
<path d="M153.882 240.249H192.402C194.268 240.242 196.088 240.831 197.595 241.931C199.103 243.03 200.22 244.583 200.783 246.362L226.006 319.145H212.243C212.243 319.145 206.168 304.959 198.593 294.155C190.557 282.695 184.343 262.048 184.343 262.048H122.971C120.286 262.048 117.71 260.981 115.811 259.082C113.912 257.184 112.846 254.608 112.846 251.923V240.249H153.882Z" fill="#0B5059"/>
<path opacity="0.15" d="M198.637 294.155C205.905 305.15 212.287 319.145 212.287 319.145H218.325L192.217 246.362C191.644 244.589 190.524 243.043 189.019 241.945C187.514 240.847 185.699 240.253 183.836 240.249H112.856V251.938C112.856 254.623 113.923 257.199 115.821 259.097C117.72 260.996 120.296 262.063 122.981 262.063H184.335C184.335 262.063 190.065 281.199 198.637 294.155Z" fill="black"/>
<path d="M136.732 238.595H166.357C166.48 238.597 166.596 238.645 166.683 238.732C166.769 238.818 166.818 238.935 166.819 239.057V239.807C166.818 239.929 166.769 240.046 166.683 240.132C166.596 240.218 166.48 240.267 166.357 240.268H136.732C136.611 240.266 136.495 240.217 136.408 240.131C136.323 240.044 136.273 239.929 136.271 239.807V239.057C136.273 238.935 136.323 238.819 136.408 238.733C136.495 238.646 136.611 238.597 136.732 238.595Z" fill="#053849"/>
<path opacity="0.6" d="M136.732 238.595H166.357C166.48 238.597 166.596 238.645 166.683 238.732C166.769 238.818 166.818 238.935 166.819 239.057V239.807C166.818 239.929 166.769 240.046 166.683 240.132C166.596 240.218 166.48 240.267 166.357 240.268H136.732C136.611 240.266 136.495 240.217 136.408 240.131C136.323 240.044 136.273 239.929 136.271 239.807V239.057C136.273 238.935 136.323 238.819 136.408 238.733C136.495 238.646 136.611 238.597 136.732 238.595Z" fill="black"/>
<path d="M156.69 238.595H208.327C208.45 238.597 208.568 238.648 208.654 238.735C208.74 238.823 208.789 238.941 208.789 239.064V239.814C208.787 239.936 208.739 240.053 208.652 240.139C208.566 240.226 208.449 240.274 208.327 240.275H156.69C156.568 240.274 156.451 240.226 156.365 240.139C156.278 240.053 156.23 239.936 156.229 239.814V239.064C156.241 238.945 156.294 238.834 156.377 238.75C156.461 238.664 156.571 238.61 156.69 238.595Z" fill="#053849"/>
<g opacity="0.6">
<path opacity="0.6" d="M207.674 238.903H155.111C155.071 238.9 155.033 238.883 155.005 238.855C154.977 238.827 154.959 238.789 154.957 238.749C154.96 238.709 154.978 238.672 155.006 238.644C155.034 238.616 155.071 238.599 155.111 238.595H207.674C207.714 238.599 207.751 238.616 207.779 238.644C207.807 238.672 207.825 238.709 207.828 238.749C207.83 238.77 207.827 238.79 207.82 238.81C207.813 238.829 207.801 238.847 207.787 238.862C207.772 238.876 207.755 238.888 207.735 238.895C207.716 238.902 207.695 238.905 207.674 238.903Z" fill="black"/>
</g>
<path d="M156.573 238.596H164.34C164.635 238.598 164.921 238.494 165.147 238.304C165.372 238.113 165.522 237.848 165.57 237.557L172.106 203.301C172.139 203.121 172.132 202.936 172.086 202.76C172.039 202.583 171.954 202.419 171.836 202.279C171.719 202.139 171.572 202.027 171.405 201.951C171.239 201.875 171.059 201.836 170.876 201.838H163.11C162.815 201.837 162.529 201.941 162.303 202.131C162.078 202.321 161.928 202.586 161.88 202.877L155.381 237.133C155.344 237.31 155.347 237.493 155.39 237.669C155.433 237.845 155.514 238.008 155.629 238.148C155.743 238.289 155.887 238.402 156.051 238.479C156.214 238.556 156.393 238.596 156.573 238.596Z" fill="#053849"/>
<path opacity="0.6" d="M156.573 238.596H164.34C164.635 238.598 164.921 238.494 165.147 238.304C165.372 238.113 165.522 237.848 165.57 237.557L172.106 203.301C172.139 203.121 172.132 202.936 172.086 202.76C172.039 202.583 171.954 202.419 171.836 202.279C171.719 202.139 171.572 202.027 171.405 201.951C171.239 201.875 171.059 201.836 170.876 201.838H163.11C162.815 201.837 162.529 201.941 162.303 202.131C162.078 202.321 161.928 202.586 161.88 202.877L155.381 237.133C155.344 237.31 155.347 237.493 155.39 237.669C155.433 237.845 155.514 238.008 155.629 238.148C155.743 238.289 155.887 238.402 156.051 238.479C156.214 238.556 156.393 238.596 156.573 238.596Z" fill="black"/>
<path d="M157.687 238.595H207.633C207.927 238.598 208.213 238.495 208.438 238.306C208.664 238.117 208.814 237.854 208.863 237.564L215.4 203.308C215.433 203.128 215.426 202.943 215.379 202.767C215.333 202.59 215.247 202.426 215.13 202.286C215.012 202.147 214.865 202.034 214.699 201.958C214.533 201.882 214.352 201.844 214.17 201.845H164.276C163.981 201.844 163.694 201.947 163.469 202.138C163.243 202.328 163.093 202.593 163.046 202.884L156.51 237.14C156.474 237.316 156.477 237.497 156.519 237.671C156.562 237.845 156.642 238.007 156.755 238.146C156.867 238.285 157.009 238.398 157.171 238.475C157.332 238.553 157.508 238.594 157.687 238.595Z" fill="#053849"/>
<path opacity="0.6" d="M186.217 219.257C185.909 219.947 186.258 220.562 186.967 220.562H187.083C186.277 221.447 185.043 222.099 183.967 222.062C182.508 222.024 181.814 220.832 182.467 219.369C183.119 217.907 184.852 216.744 186.314 216.797C187.237 216.834 187.889 217.295 188.006 218.064C187.627 218.08 187.259 218.199 186.944 218.41C186.629 218.62 186.377 218.913 186.217 219.257Z" fill="black"/>
<path d="M180.604 241.749C179.166 240.773 177.467 240.25 175.729 240.249H103.526V251.09C103.531 253.995 104.687 256.779 106.741 258.833C108.795 260.887 111.579 262.043 114.484 262.048H165.071C164.843 265.509 164.321 276.969 166.8 292.772C168.649 304.652 168.803 319.07 168.803 319.07L181.553 319.224L185.741 251.784C185.948 248.747 184.95 244.172 180.604 241.749Z" fill="#0B5059"/>
<path d="M129.623 181.996C130.405 181.994 131.17 181.76 131.82 181.324C132.469 180.887 132.975 180.268 133.273 179.544C133.571 178.82 133.648 178.024 133.494 177.257C133.34 176.489 132.962 175.785 132.407 175.232C131.853 174.68 131.148 174.304 130.38 174.152C129.612 174 128.816 174.079 128.093 174.379C127.37 174.679 126.753 175.187 126.318 175.837C125.884 176.488 125.651 177.254 125.651 178.036C125.65 178.557 125.753 179.074 125.952 179.555C126.151 180.037 126.444 180.475 126.813 180.843C127.182 181.211 127.62 181.502 128.103 181.7C128.585 181.898 129.101 181.999 129.623 181.996Z" fill="#053849"/>
<path d="M122.276 166.543L120.314 180.115C120.233 180.646 119.984 181.138 119.603 181.518C119.223 181.899 118.731 182.148 118.199 182.23L116.587 182.5L119.894 185.076C121.51 186.357 123.4 187.246 125.418 187.673C127.435 188.1 129.524 188.053 131.519 187.536C132.262 187.355 132.983 187.097 133.672 186.767L135.596 186.017C135.458 184.808 135.226 183.612 134.902 182.44C134.712 181.79 134.622 181.117 134.636 180.441C134.636 176.691 134.673 165.523 134.673 165.523L122.276 166.543Z" fill="#F6E8E2"/>
<path d="M130.391 178.731L129.776 178.69C125.238 178.341 121.856 174.306 122.201 169.652L123.045 157.81C123.085 157.074 123.416 156.385 123.965 155.892C124.513 155.4 125.234 155.146 125.97 155.185L136.695 155.935C137.647 156.024 138.526 156.487 139.139 157.222C139.751 157.957 140.048 158.904 139.965 159.857L139.151 170.886C138.81 175.577 134.887 179.065 130.391 178.731Z" fill="#F6E8E2"/>
<path d="M130.737 168.504C130.921 168.505 131.1 168.451 131.253 168.35C131.405 168.249 131.525 168.104 131.596 167.935C131.666 167.766 131.685 167.579 131.65 167.4C131.614 167.22 131.527 167.054 131.397 166.924C131.268 166.795 131.103 166.706 130.923 166.67C130.743 166.634 130.557 166.652 130.387 166.722C130.218 166.792 130.073 166.911 129.971 167.063C129.869 167.215 129.815 167.395 129.815 167.578C129.817 167.822 129.916 168.056 130.088 168.229C130.26 168.401 130.493 168.5 130.737 168.504Z" fill="#053849"/>
<path d="M131.16 167.657C131.201 167.645 131.237 167.621 131.262 167.587C131.288 167.553 131.301 167.512 131.301 167.47C131.301 167.427 131.288 167.386 131.262 167.352C131.237 167.318 131.201 167.294 131.16 167.282C131.131 167.273 131.1 167.272 131.071 167.278C131.041 167.283 131.013 167.296 130.989 167.314C130.965 167.332 130.945 167.356 130.932 167.383C130.918 167.41 130.911 167.439 130.911 167.47C130.911 167.5 130.918 167.529 130.932 167.556C130.945 167.583 130.965 167.607 130.989 167.625C131.013 167.643 131.041 167.656 131.071 167.661C131.1 167.667 131.131 167.665 131.16 167.657Z" fill="white"/>
<path d="M137.813 169.314C137.995 169.313 138.173 169.259 138.325 169.157C138.476 169.055 138.593 168.911 138.663 168.742C138.732 168.573 138.75 168.388 138.713 168.209C138.677 168.031 138.589 167.867 138.46 167.738C138.331 167.609 138.167 167.522 137.988 167.487C137.809 167.452 137.624 167.47 137.455 167.54C137.287 167.61 137.143 167.728 137.042 167.879C136.941 168.031 136.887 168.209 136.887 168.392C136.886 168.513 136.909 168.634 136.955 168.747C137.002 168.859 137.07 168.962 137.156 169.048C137.242 169.133 137.345 169.201 137.457 169.247C137.57 169.293 137.691 169.316 137.813 169.314Z" fill="#053849"/>
<path d="M138.232 168.425C138.27 168.425 138.307 168.414 138.339 168.393C138.37 168.372 138.394 168.342 138.409 168.307C138.423 168.272 138.427 168.234 138.42 168.197C138.412 168.16 138.394 168.125 138.367 168.099C138.341 168.072 138.307 168.054 138.27 168.046C138.232 168.039 138.194 168.043 138.159 168.057C138.124 168.072 138.094 168.096 138.073 168.128C138.052 168.159 138.041 168.196 138.041 168.234C138.04 168.259 138.044 168.285 138.054 168.308C138.063 168.332 138.077 168.353 138.095 168.371C138.113 168.389 138.134 168.404 138.158 168.413C138.181 168.422 138.207 168.426 138.232 168.425Z" fill="white"/>
<path opacity="0.15" d="M134.389 171.501L133.159 171.463C133.089 171.459 133.023 171.429 132.973 171.379C132.924 171.329 132.894 171.263 132.889 171.193C132.894 171.124 132.924 171.058 132.974 171.008C133.023 170.96 133.09 170.93 133.159 170.927L134.389 170.965C134.537 170.968 134.681 170.914 134.789 170.813C134.897 170.712 134.961 170.572 134.967 170.425C134.967 170.274 134.911 170.129 134.812 170.016C134.713 169.902 134.576 169.829 134.427 169.81C134.361 169.802 134.301 169.77 134.257 169.721C134.213 169.671 134.189 169.607 134.189 169.541C134.189 169.475 134.213 169.411 134.257 169.362C134.301 169.313 134.361 169.281 134.427 169.273C134.717 169.286 134.991 169.41 135.191 169.619C135.391 169.829 135.504 170.108 135.503 170.398C135.508 170.545 135.483 170.692 135.429 170.829C135.375 170.966 135.293 171.09 135.188 171.194C135.083 171.297 134.958 171.378 134.821 171.431C134.683 171.484 134.536 171.508 134.389 171.501Z" fill="black"/>
<path opacity="0.15" d="M134.542 178.078C133.131 178.658 131.603 178.894 130.083 178.768L129.044 178.651C128.916 178.643 128.79 178.618 128.669 178.576H128.594C128.403 178.498 128.219 178.498 128.017 178.423C127.938 178.423 127.863 178.344 127.784 178.344C126.768 178.041 125.807 177.574 124.942 176.96C124.89 176.92 124.825 176.901 124.76 176.908C124.695 176.915 124.635 176.947 124.593 176.998C124.573 177.023 124.558 177.052 124.549 177.084C124.54 177.115 124.538 177.148 124.541 177.181C124.545 177.213 124.555 177.244 124.571 177.273C124.587 177.301 124.609 177.326 124.634 177.346C125.732 178.163 126.989 178.739 128.324 179.038C129.496 180.15 130.99 180.863 132.592 181.074C133.231 181.153 133.877 181.153 134.516 181.074V178.074L134.542 178.078Z" fill="black"/>
<path d="M132.004 198.879C132.036 198.844 132.062 198.805 132.082 198.763C132.045 198.8 132.004 198.8 131.966 198.837C131.966 198.8 132.004 198.837 132.004 198.879Z" fill="#F6E8E2"/>
<path d="M136.467 191.957C138.004 189.707 136.091 185.582 134.813 182.383L116.55 182.499C117.514 184.874 118.811 187.1 120.401 189.11C121.976 191.034 124.208 192.455 126.323 193.764L135.281 193.727C135.698 193.112 136.118 192.534 136.467 191.957Z" fill="#F6E8E2"/>
<path d="M126.315 193.764C128.966 195.418 132.465 196.764 133.005 198.725L133.043 198.684C133.388 198.107 133.849 195.842 135.274 193.727L126.315 193.764Z" fill="#053849"/>
<path d="M122.546 157.543C122.471 155.008 123.352 156.737 124.623 155.237C125.895 153.737 132.66 153.94 132.66 153.94C133.927 154.513 134.535 155.785 133.848 158.012C131.223 167.012 122.546 164.627 122.546 164.627V157.543Z" fill="#053849"/>
<path d="M122.817 170.195C122.817 170.195 118.778 170.387 118.047 166.389C117.316 162.392 122.318 161.773 122.855 165.849L123.23 170.27L122.817 170.195Z" fill="#F6E8E2"/>
<path opacity="0.15" d="M119.393 164.312C119.567 164.182 119.767 164.092 119.979 164.045C120.191 163.999 120.41 163.997 120.623 164.042C120.832 164.099 121.027 164.201 121.194 164.341C121.36 164.48 121.494 164.655 121.586 164.852C121.868 165.326 121.999 165.876 121.961 166.427V166.85C121.961 167.158 121.425 167.225 121.425 166.85L121.384 166.389C121.384 165.935 121.279 165.487 121.076 165.08C120.945 164.822 120.728 164.617 120.461 164.503C120.315 164.476 120.165 164.478 120.02 164.511C119.875 164.544 119.738 164.606 119.618 164.694C119.556 164.726 119.485 164.737 119.417 164.723C119.349 164.71 119.287 164.673 119.243 164.619C119.225 164.558 119.231 164.494 119.259 164.437C119.286 164.38 119.334 164.335 119.393 164.312Z" fill="black"/>
<path d="M121.777 169.501C121.991 169.501 122.195 169.415 122.347 169.264C122.498 169.113 122.583 168.909 122.584 168.695C122.584 168.481 122.499 168.276 122.348 168.125C122.197 167.974 121.991 167.889 121.777 167.889C121.564 167.889 121.358 167.974 121.207 168.125C121.056 168.276 120.971 168.481 120.971 168.695C120.972 168.909 121.058 169.113 121.208 169.264C121.36 169.415 121.564 169.501 121.777 169.501Z" fill="#029B83"/>
<path opacity="0.15" d="M122.048 169.465C121.933 169.466 121.82 169.443 121.714 169.399C121.608 169.354 121.512 169.288 121.433 169.205C121.353 169.123 121.292 169.024 121.252 168.916C121.212 168.809 121.194 168.694 121.201 168.58C121.212 168.415 121.265 168.256 121.355 168.118C121.251 168.196 121.164 168.293 121.1 168.406C121.035 168.518 120.994 168.642 120.98 168.771C120.971 168.876 120.985 168.981 121.02 169.081C121.055 169.18 121.11 169.271 121.183 169.347C121.256 169.424 121.343 169.484 121.441 169.524C121.538 169.564 121.643 169.584 121.748 169.581C121.916 169.588 122.079 169.533 122.21 169.427C122.153 169.42 122.096 169.433 122.048 169.465Z" fill="black"/>
<path d="M141.81 162.189C143.156 153.463 135.311 154.614 135.311 154.614C134.505 154.73 134.044 155.308 133.928 156.692C133.583 160.689 137.156 162.317 139.08 162.317C139.77 162.313 141.81 162.189 141.81 162.189Z" fill="#053849"/>
<path d="M133.151 173.758C133.189 173.566 132.653 173.383 131.959 173.353C131.265 173.323 130.691 173.45 130.65 173.641C130.609 173.833 131.153 174.016 131.843 174.046C132.533 174.076 133.121 173.949 133.151 173.758Z" fill="white"/>
<path d="M104.746 210.028C104.746 210.028 107.783 222.639 105.398 232.059C103.013 241.479 101.168 243.017 103.129 244.554C105.091 246.092 113.164 239.709 121.471 240.287L120.124 238.213L108.822 234.519L104.746 210.028Z" fill="#029B83"/>
<path d="M138.81 164.158C138.282 164.154 137.759 164.261 137.276 164.474C136.793 164.685 136.36 164.997 136.005 165.388C135.32 165.066 134.547 164.985 133.811 165.159C133.453 164.358 132.814 163.716 132.014 163.356C131.214 162.996 130.31 162.942 129.473 163.204C128.636 163.467 127.925 164.028 127.474 164.781C127.024 165.534 126.866 166.426 127.03 167.288C127.195 168.15 127.67 168.921 128.366 169.455C129.061 169.989 129.929 170.249 130.804 170.186C131.679 170.122 132.5 169.739 133.111 169.11C133.722 168.48 134.081 167.648 134.119 166.772C134.109 166.383 134.057 165.998 133.965 165.62C134.558 165.509 135.17 165.563 135.735 165.774C135.378 166.325 135.178 166.963 135.157 167.619C135.121 168.564 135.463 169.484 136.105 170.178C136.748 170.871 137.64 171.281 138.585 171.317C139.53 171.353 140.45 171.011 141.143 170.369C141.837 169.726 142.246 168.834 142.282 167.889C142.311 166.935 141.962 166.009 141.312 165.311C140.662 164.612 139.763 164.198 138.81 164.158ZM130.504 169.783C129.895 169.76 129.307 169.557 128.814 169.201C128.32 168.844 127.944 168.349 127.732 167.778C127.52 167.207 127.482 166.586 127.623 165.994C127.764 165.401 128.077 164.864 128.524 164.45C128.97 164.036 129.529 163.763 130.13 163.667C130.731 163.57 131.348 163.654 131.901 163.908C132.455 164.161 132.92 164.573 133.24 165.092C133.559 165.611 133.717 166.212 133.695 166.82C133.66 167.634 133.304 168.4 132.707 168.953C132.109 169.506 131.317 169.8 130.504 169.772V169.783ZM138.619 170.859C138.01 170.837 137.422 170.634 136.928 170.277C136.435 169.92 136.058 169.424 135.847 168.853C135.635 168.282 135.597 167.661 135.739 167.069C135.88 166.476 136.193 165.939 136.64 165.525C137.087 165.111 137.646 164.839 138.248 164.743C138.849 164.646 139.465 164.731 140.019 164.985C140.572 165.239 141.038 165.652 141.356 166.171C141.676 166.69 141.833 167.292 141.81 167.9C141.773 168.713 141.417 169.478 140.819 170.03C140.222 170.581 139.431 170.875 138.619 170.848V170.859Z" fill="white"/>
<path d="M105.975 238.828L105.127 239.953L105.896 239.874L104.861 241.145L107.089 240.796L106.282 239.915L106.935 239.874L105.975 238.828Z" fill="white"/>
<path d="M105.822 240.94L105.859 241.712L106.204 241.633L106.246 240.865L105.822 240.94Z" fill="#053849"/>
<path opacity="0.15" d="M158.164 222.339L149.359 210.684C149.359 210.684 152.067 208.164 151.538 203.529C150.998 198.53 147.462 196.34 146.663 188.42C147.008 191.994 148.737 194.649 150.469 197.454C153.39 202.261 153.777 206.3 151.65 210.275C151.65 210.275 156.48 218.236 158.475 220.869" fill="black"/>
<path opacity="0.15" d="M172.991 286.502C170.531 270.699 171.03 259.243 171.262 255.782H120.51C112.511 255.665 110.782 244.479 118.354 241.865L123.086 240.249C123.086 240.249 119.355 240.133 117.892 240.365C115.819 240.71 110.051 242.402 106.669 244.018C104.4 245.094 103.552 244.67 103.552 244.67V251.045C103.558 253.95 104.713 256.734 106.767 258.788C108.821 260.842 111.606 261.998 114.51 262.003H165.109C164.88 265.464 164.34 276.92 166.841 292.723C168.686 304.607 168.84 319.025 168.84 319.025L175.53 319.1C175.492 319.145 174.836 298.385 172.991 286.502Z" fill="black"/>
<path d="M139.29 241.471C139.094 240.144 138.433 238.929 137.425 238.043C136.416 237.157 135.127 236.658 133.785 236.634H130.762L129.581 236.938V237.118L104.058 240.354C102.489 240.55 101.015 241.215 99.828 242.261C98.6415 243.307 97.7974 244.686 97.4059 246.219L74.5984 336.564H78.8921L101.392 247.273C101.586 246.547 101.991 245.895 102.555 245.401C103.121 244.906 103.82 244.59 104.565 244.494L133.44 240.804C133.839 240.754 134.243 240.862 134.565 241.104C134.886 241.346 135.102 241.704 135.165 242.101L153.915 336.564H158.118L139.29 241.471Z" fill="#B9CCCE"/>
<path opacity="0.15" d="M106.744 210.189L108.435 230.319C108.682 231.714 109.373 232.992 110.406 233.962C111.439 234.932 112.758 235.542 114.165 235.7L122.547 236.623L123.087 240.238C123.087 240.238 118.932 240.122 115.857 240.737C111.897 241.547 104.475 245.39 103.553 244.659C102.63 243.928 102.09 243.89 102.552 241.505C103.013 239.12 106.204 232.28 105.514 221.705C105.24 217.547 105.015 214.817 104.903 213.08L106.744 210.189Z" fill="black"/>
<path d="M76.171 336.538H71.8772L94.6885 246.189C95.08 244.657 95.9237 243.277 97.1106 242.231C98.2971 241.185 99.7712 240.521 101.341 240.324L130.216 236.634C131.689 236.437 133.181 236.827 134.37 237.721C135.558 238.615 136.346 239.941 136.565 241.412L155.412 336.508H151.212L132.485 242.064C132.428 241.664 132.215 241.303 131.892 241.06C131.569 240.817 131.164 240.711 130.763 240.767L101.888 244.453C101.141 244.535 100.437 244.847 99.8736 245.345C99.3103 245.843 98.9151 246.504 98.7422 247.235L76.171 336.538Z" fill="#8D9D9F"/>
<path opacity="0.15" d="M88.6162 221.66L69.0862 199.359L68.8237 199.288L61.8337 197.319L67.7437 199.712L87.2437 223.385C87.612 223.831 88.0024 224.258 88.4137 224.664C88.9466 225.19 89.5826 225.599 90.2812 225.867C90.9802 226.135 91.7272 226.255 92.4746 226.22C93.2224 226.184 93.9544 225.995 94.6252 225.662C95.2957 225.33 95.8905 224.863 96.3712 224.289L97.6387 222.564C92.6512 227.064 88.6162 221.66 88.6162 221.66Z" fill="black"/>
<path d="M415.001 337.88H7.7522C7.60295 337.88 7.4597 337.82 7.35432 337.715C7.24895 337.61 7.1897 337.468 7.1897 337.318C7.1897 337.168 7.24895 337.025 7.35432 336.92C7.4597 336.815 7.60295 336.755 7.7522 336.755H415.001C415.151 336.755 415.294 336.815 415.399 336.92C415.504 337.025 415.564 337.168 415.564 337.318C415.564 337.468 415.504 337.61 415.399 337.715C415.294 337.82 415.151 337.88 415.001 337.88Z" fill="#8D9D9F"/>
<path d="M106.534 146.644L103.438 147.648L102.749 145.496C102.522 144.904 102.485 144.256 102.641 143.642C102.985 142.787 103.436 141.981 103.984 141.242C105.122 139.597 105.481 138.122 105.06 136.817C104.951 136.38 104.751 135.971 104.473 135.618C104.195 135.265 103.845 134.976 103.448 134.771C103.05 134.565 102.613 134.448 102.167 134.427C101.72 134.405 101.275 134.48 100.859 134.647C98.6773 135.351 97.8787 137.29 98.4627 140.462L94.8028 140.961C94.2506 138.88 94.5324 136.663 95.5883 134.79C96.6157 133.032 98.2647 131.73 100.205 131.145C102.024 130.479 104.028 130.544 105.8 131.329C106.614 131.687 107.342 132.22 107.931 132.89C108.521 133.56 108.959 134.351 109.215 135.209C109.499 136.09 109.59 137.022 109.483 137.942C109.416 138.742 109.196 139.522 108.834 140.238C108.509 140.812 107.769 141.96 106.625 143.527C106.352 143.855 106.171 144.252 106.101 144.675C106.151 145.349 106.297 146.012 106.534 146.644ZM107.894 148.71L109.175 152.728L105.447 153.939L104.166 149.921L107.894 148.71Z" fill="#029B83"/>
<path fill-rule="evenodd" clip-rule="evenodd" d="M41.6851 233.162C41.9476 233.162 41.6851 233.135 41.6851 233.162C41.7188 233.162 41.6851 233.147 41.6851 233.162Z" fill="white"/>
<path fill-rule="evenodd" clip-rule="evenodd" d="M46.9314 221.008C46.9224 221.015 46.9111 221.018 46.8995 221.018C46.8879 221.018 46.877 221.015 46.8677 221.008H46.9314Z" fill="white"/>
<path d="M370.31 237.974H395.14C395.306 237.974 395.473 237.942 395.625 237.878C395.777 237.814 395.919 237.722 396.036 237.606C396.153 237.488 396.245 237.349 396.308 237.195C396.432 236.886 396.432 236.541 396.308 236.232C396.245 236.077 396.153 235.937 396.032 235.821C395.915 235.705 395.777 235.612 395.625 235.548C395.469 235.488 395.306 235.457 395.14 235.456H370.31V237.974Z" fill="#8D9D9F"/>
<path d="M391.921 236.749H366.868V313.904H391.921V236.749Z" fill="#8D9D9F"/>
<path d="M367.647 236.749H291.012V313.904H367.647V236.749Z" fill="#B9CCCE"/>
<path d="M363.763 247.56L294.599 247.482V308.033H363.763V247.56ZM295.155 248.109H363.203V307.467H295.155V248.109Z" fill="#8D9D9F"/>
<path d="M288.158 237.974H370.349C370.6 237.975 370.841 237.901 371.05 237.762C371.259 237.623 371.418 237.426 371.514 237.195C371.638 236.885 371.638 236.541 371.514 236.232C371.45 236.078 371.358 235.939 371.241 235.821C371.124 235.704 370.983 235.612 370.831 235.552C370.678 235.488 370.515 235.455 370.349 235.456H288.162C287.997 235.455 287.833 235.488 287.68 235.552C287.526 235.612 287.386 235.704 287.27 235.821C287.153 235.938 287.061 236.078 287.001 236.232C286.935 236.386 286.901 236.552 286.901 236.72C286.91 237.051 287.045 237.365 287.278 237.599C287.511 237.834 287.825 237.97 288.155 237.981" fill="#B9CCCE"/>
<path d="M363.763 277.382H294.599V277.938H363.763V277.382Z" fill="#8D9D9F"/>
<path d="M326.207 257.216C325.824 257.217 325.452 257.104 325.134 256.893C324.819 256.681 324.571 256.381 324.426 256.028C324.277 255.676 324.241 255.289 324.312 254.915C324.387 254.541 324.571 254.197 324.84 253.927C325.113 253.658 325.456 253.474 325.828 253.4C326.203 253.326 326.589 253.364 326.943 253.511C327.294 253.657 327.595 253.904 327.807 254.222C328.02 254.539 328.129 254.912 328.129 255.293C328.129 255.803 327.928 256.292 327.566 256.653C327.205 257.013 326.717 257.216 326.207 257.216Z" fill="#8D9D9F"/>
<g opacity="0.15">
<g opacity="0.15">
<path opacity="0.15" d="M326.915 255.293C326.915 254.893 326.791 254.503 326.557 254.178C326.324 253.852 325.998 253.607 325.619 253.477C325.821 253.403 326.033 253.367 326.249 253.37C326.759 253.37 327.248 253.573 327.609 253.934C327.97 254.294 328.172 254.783 328.172 255.293C328.172 255.803 327.97 256.292 327.609 256.653C327.248 257.013 326.759 257.216 326.249 257.216C326.033 257.216 325.821 257.177 325.619 257.103C325.994 256.973 326.324 256.729 326.554 256.405C326.787 256.08 326.915 255.692 326.915 255.293Z" fill="black"/>
</g>
</g>
<path d="M326.207 287.003C325.828 287.003 325.456 286.89 325.137 286.679C324.822 286.468 324.574 286.168 324.429 285.816C324.284 285.465 324.248 285.078 324.319 284.705C324.394 284.332 324.578 283.99 324.847 283.721C325.116 283.452 325.459 283.269 325.831 283.195C326.203 283.12 326.593 283.158 326.943 283.304C327.294 283.45 327.595 283.696 327.807 284.012C328.016 284.328 328.129 284.7 328.129 285.08C328.129 285.59 327.927 286.079 327.566 286.44C327.205 286.801 326.716 287.003 326.207 287.003Z" fill="#8D9D9F"/>
<g opacity="0.15">
<g opacity="0.15">
<path opacity="0.15" d="M326.915 285.076C326.915 284.677 326.787 284.288 326.557 283.964C326.324 283.64 325.998 283.396 325.619 283.267C325.821 283.189 326.033 283.151 326.249 283.153C326.532 283.151 326.809 283.209 327.067 283.326C327.322 283.443 327.552 283.614 327.733 283.828C327.917 284.043 328.052 284.294 328.126 284.566C328.2 284.837 328.214 285.122 328.168 285.4C328.122 285.678 328.016 285.942 327.853 286.174C327.694 286.406 327.485 286.6 327.244 286.742C327 286.885 326.727 286.972 326.448 286.998C326.168 287.024 325.884 286.988 325.619 286.893C325.998 286.762 326.324 286.517 326.557 286.192C326.791 285.866 326.915 285.476 326.915 285.076Z" fill="black"/>
</g>
</g>
<path d="M371.606 240.562L367.647 237.97H291.01V239.156L371.606 240.562Z" fill="#8D9D9F"/>
<path d="M386.999 313.915L388.922 335.263C388.96 335.444 388.96 335.632 388.922 335.812C388.875 335.993 388.794 336.163 388.681 336.308C388.564 336.457 388.419 336.577 388.252 336.662C388.086 336.747 387.905 336.793 387.718 336.797C387.456 336.793 387.197 336.708 386.985 336.556C386.772 336.4 386.613 336.181 386.531 335.933L380.922 313.915H386.999Z" fill="#B9CCCE"/>
<path d="M386.298 326.34L383.964 325.788L380.965 313.943H387.034L388.961 335.285C389.01 335.568 388.964 335.862 388.83 336.117C388.695 336.372 388.479 336.574 388.217 336.69L386.298 326.34Z" fill="#8D9D9F"/>
<path d="M365.204 313.914L367.123 335.263C367.162 335.444 367.162 335.632 367.123 335.812C367.077 335.993 366.996 336.163 366.879 336.308C366.762 336.457 366.617 336.577 366.45 336.662C366.252 336.765 366.025 336.807 365.802 336.79C365.579 336.768 365.367 336.687 365.186 336.552C364.974 336.397 364.814 336.181 364.733 335.929L359.138 313.893H365.204V313.914Z" fill="#B9CCCE"/>
<path d="M363.168 316.276L359.691 315.608L359.099 313.908H365.158L367.084 335.256C367.134 335.54 367.088 335.834 366.957 336.088C366.822 336.343 366.606 336.545 366.344 336.662L363.168 316.276Z" fill="#8D9D9F"/>
<path d="M317.17 313.915L315.247 335.263C315.212 335.444 315.215 335.632 315.261 335.812C315.307 335.993 315.389 336.159 315.506 336.305C315.619 336.453 315.768 336.574 315.934 336.659C316.101 336.74 316.281 336.786 316.465 336.793C316.727 336.79 316.986 336.705 317.198 336.552C317.411 336.397 317.57 336.181 317.652 335.929L323.239 313.911H317.17V313.915Z" fill="#B9CCCE"/>
<path d="M318.247 325.267L316.175 324.747L317.174 313.904H323.239L317.655 335.922C317.57 336.17 317.411 336.382 317.198 336.538C316.986 336.694 316.731 336.779 316.469 336.782H316.395L318.247 325.267Z" fill="#8D9D9F"/>
<path d="M294.783 313.915L292.86 335.263C292.821 335.444 292.821 335.632 292.86 335.812C292.905 335.993 292.988 336.159 293.105 336.305C293.218 336.453 293.365 336.574 293.533 336.659C293.732 336.761 293.957 336.807 294.18 336.79C294.404 336.772 294.618 336.687 294.797 336.552C295.01 336.397 295.169 336.181 295.25 335.929L300.838 313.911H294.783V313.915Z" fill="#B9CCCE"/>
<path d="M297.17 315.76L294.504 315.275L294.791 313.908H300.853L295.265 335.922C295.182 336.17 295.024 336.386 294.811 336.542C294.6 336.698 294.345 336.782 294.083 336.786H294.008L297.17 315.76Z" fill="#8D9D9F"/>
<path d="M313.594 186.452L313.417 186.488L319.189 214.959L319.366 214.923L313.594 186.452Z" fill="#0B5059"/>
<path d="M320.778 176.85L320.024 213.845L320.201 213.849L320.955 176.853L320.778 176.85Z" fill="#0B5059"/>
<path d="M329.273 183.697L320.452 194.781L320.594 194.89L329.411 183.807L329.273 183.697Z" fill="#0B5059"/>
<path d="M323.689 222.036L322.803 220.726C321.918 219.406 321.451 217.852 321.458 216.264V213.112H318.062V216.264C318.069 217.852 317.598 219.406 316.716 220.726L315.831 222.036C314.921 223.408 314.312 224.955 314.036 226.577C313.763 228.199 313.83 229.861 314.238 231.455L315.229 235.35H324.294L325.286 231.455C325.682 229.86 325.746 228.2 325.473 226.579C325.197 224.958 324.592 223.412 323.692 222.036" fill="#053849"/>
<path d="M323.689 222.036L322.803 220.726C321.922 219.406 321.451 217.852 321.458 216.264V213.112H320.466V215.981C320.473 217.753 320.99 219.486 321.954 220.974C323.441 223.7 323.441 226.816 322.91 229.366C322.587 230.884 322 232.334 321.175 233.65L320.502 234.748C320.381 234.941 320.215 235.1 320.017 235.212C319.818 235.323 319.595 235.383 319.369 235.385H324.326L325.318 231.49C325.704 229.886 325.757 228.221 325.477 226.596C325.197 224.97 324.588 223.419 323.689 222.036Z" fill="#0B5059"/>
<path d="M327.992 194.602L317.492 203.327L317.606 203.463L328.105 194.738L327.992 194.602Z" fill="#0B5059"/>
<path d="M318.342 210.705L309.064 201.923L309.171 201.817L318.484 210.563L318.342 210.705Z" fill="#0B5059"/>
<path d="M324.082 190.333L325.534 183.959C325.651 183.437 325.899 182.954 326.256 182.554C326.61 182.153 327.06 181.85 327.566 181.672C328.073 181.494 328.615 181.447 329.142 181.535C329.67 181.623 330.165 181.844 330.583 182.177C331.005 182.51 331.331 182.943 331.536 183.437C331.745 183.931 331.819 184.47 331.762 185.001C331.702 185.534 331.511 186.042 331.199 186.479C330.891 186.916 330.477 187.267 329.996 187.5L324.082 190.333Z" fill="#029B83"/>
<g opacity="0.3">
<g opacity="0.3">
<path opacity="0.3" d="M324.082 190.333L325.534 183.959C325.651 183.437 325.899 182.954 326.256 182.554C326.61 182.153 327.06 181.85 327.566 181.672C328.073 181.494 328.615 181.447 329.142 181.535C329.67 181.623 330.165 181.844 330.583 182.177C331.005 182.51 331.331 182.943 331.536 183.437C331.745 183.931 331.819 184.47 331.762 185.001C331.702 185.534 331.511 186.042 331.199 186.479C330.891 186.916 330.477 187.267 329.996 187.5L324.082 190.333Z" fill="white"/>
</g>
</g>
<path d="M331.763 184.713C331.763 185.304 331.593 185.882 331.274 186.378C330.952 186.874 330.495 187.268 329.957 187.51L324.043 190.343L330.559 182.199C330.948 182.488 331.263 182.869 331.472 183.307C331.681 183.745 331.784 184.228 331.763 184.713Z" fill="#029B83"/>
<path d="M320.714 187.5L316.536 178.86C316.196 178.153 316.04 177.371 316.083 176.587C316.125 175.803 316.37 175.043 316.787 174.379C317.205 173.714 317.782 173.166 318.469 172.786C319.156 172.406 319.928 172.207 320.714 172.207C321.501 172.207 322.272 172.406 322.959 172.786C323.646 173.166 324.227 173.714 324.641 174.379C325.059 175.043 325.304 175.803 325.346 176.587C325.389 177.371 325.233 178.153 324.893 178.86L320.714 187.5Z" fill="#029B83"/>
<g opacity="0.3">
<g opacity="0.3">
<path opacity="0.3" d="M320.714 187.5L316.536 178.86C316.196 178.153 316.04 177.371 316.083 176.587C316.125 175.803 316.37 175.043 316.787 174.379C317.205 173.714 317.782 173.166 318.469 172.786C319.156 172.406 319.928 172.207 320.714 172.207C321.501 172.207 322.272 172.406 322.959 172.786C323.646 173.166 324.227 173.714 324.641 174.379C325.059 175.043 325.304 175.803 325.346 176.587C325.389 177.371 325.233 178.153 324.893 178.86L320.714 187.5Z" fill="white"/>
</g>
</g>
<g opacity="0.3">
<g opacity="0.3">
<path opacity="0.3" d="M320.927 172.249L320.715 187.511L324.893 178.871C325.229 178.182 325.389 177.42 325.357 176.654C325.325 175.888 325.102 175.142 324.709 174.484C324.312 173.826 323.76 173.277 323.101 172.887C322.443 172.497 321.695 172.278 320.927 172.249Z" fill="white"/>
</g>
</g>
<path d="M316.075 199.019L309.985 191.796C309.486 191.203 309.146 190.495 308.997 189.735C308.848 188.975 308.894 188.19 309.132 187.454C309.369 186.717 309.787 186.052 310.353 185.522C310.916 184.993 311.607 184.615 312.357 184.425C313.108 184.235 313.894 184.239 314.641 184.435C315.392 184.633 316.075 185.017 316.635 185.552C317.194 186.087 317.609 186.756 317.839 187.495C318.069 188.234 318.108 189.019 317.952 189.777L316.075 199.019Z" fill="#029B83"/>
<g opacity="0.3">
<g opacity="0.3">
<path opacity="0.3" d="M317.988 189.777C318.14 189.02 318.101 188.237 317.867 187.5C317.637 186.763 317.223 186.097 316.664 185.563C316.104 185.03 315.421 184.646 314.674 184.448C313.926 184.25 313.144 184.244 312.393 184.43L316.111 198.984L317.988 189.777Z" fill="white"/>
</g>
</g>
<path d="M315.229 207.624L312.467 200.719C312.241 200.153 311.876 199.654 311.405 199.269C310.934 198.884 310.371 198.624 309.773 198.516C309.171 198.407 308.554 198.452 307.977 198.648C307.4 198.843 306.883 199.181 306.472 199.631C306.062 200.082 305.775 200.629 305.633 201.221C305.492 201.814 305.506 202.432 305.669 203.019C305.831 203.606 306.143 204.141 306.571 204.575C306.996 205.009 307.528 205.327 308.112 205.499L315.229 207.624Z" fill="#029B83"/>
<g opacity="0.3">
<g opacity="0.3">
<path opacity="0.3" d="M315.229 207.624L312.467 200.719C312.241 200.153 311.876 199.654 311.405 199.269C310.934 198.884 310.371 198.624 309.773 198.516C309.171 198.407 308.554 198.452 307.977 198.648C307.4 198.843 306.883 199.181 306.472 199.631C306.062 200.082 305.775 200.629 305.633 201.221C305.492 201.814 305.506 202.432 305.669 203.019C305.831 203.606 306.143 204.141 306.571 204.575C306.996 205.009 307.528 205.327 308.112 205.499L315.229 207.624Z" fill="white"/>
</g>
</g>
<g opacity="0.3">
<g opacity="0.3">
<path opacity="0.3" d="M306.586 199.48L315.226 207.624L312.464 200.719C312.241 200.169 311.887 199.681 311.433 199.3C310.977 198.919 310.435 198.656 309.854 198.533C309.273 198.411 308.671 198.433 308.101 198.598C307.531 198.763 307.011 199.066 306.586 199.48Z" fill="white"/>
</g>
</g>
<path d="M319.833 201.568L322.843 194.274C323.087 193.675 323.476 193.147 323.979 192.742C324.486 192.336 325.081 192.064 325.718 191.953C326.355 191.842 327.01 191.895 327.623 192.107C328.232 192.319 328.781 192.683 329.209 193.164C329.641 193.646 329.946 194.23 330.088 194.86C330.233 195.491 330.212 196.147 330.031 196.768C329.854 197.389 329.517 197.954 329.057 198.41C328.6 198.866 328.034 199.197 327.411 199.373L319.833 201.568Z" fill="#029B83"/>
<g opacity="0.3">
<g opacity="0.3">
<path opacity="0.3" d="M319.833 201.568L322.843 194.274C323.087 193.675 323.476 193.147 323.979 192.742C324.486 192.336 325.081 192.064 325.718 191.953C326.355 191.842 327.01 191.895 327.623 192.107C328.232 192.319 328.781 192.683 329.209 193.164C329.641 193.646 329.946 194.23 330.088 194.86C330.233 195.491 330.212 196.147 330.031 196.768C329.854 197.389 329.517 197.954 329.057 198.41C328.6 198.866 328.034 199.197 327.411 199.373L319.833 201.568Z" fill="white"/>
</g>
</g>
<path d="M320.183 210.528L320.112 210.386L334.453 202.525L334.524 202.667L320.183 210.528Z" fill="#0B5059"/>
<path d="M322.485 209.147L327.69 202.029C328.115 201.451 328.682 200.99 329.333 200.689C329.985 200.389 330.704 200.258 331.419 200.31C332.134 200.361 332.825 200.593 333.427 200.985C334.032 201.375 334.525 201.913 334.861 202.546C335.201 203.179 335.371 203.888 335.364 204.606C335.353 205.324 335.162 206.027 334.804 206.651C334.45 207.275 333.944 207.798 333.331 208.173C332.719 208.547 332.021 208.761 331.302 208.793L322.485 209.147Z" fill="#029B83"/>
<g opacity="0.3">
<g opacity="0.3">
<path opacity="0.3" d="M322.485 209.147L327.69 202.029C328.115 201.451 328.682 200.99 329.333 200.689C329.985 200.389 330.704 200.258 331.419 200.31C332.134 200.361 332.825 200.593 333.427 200.985C334.032 201.375 334.525 201.913 334.861 202.546C335.201 203.179 335.371 203.888 335.364 204.606C335.353 205.324 335.162 206.027 334.804 206.651C334.45 207.275 333.944 207.798 333.331 208.173C332.719 208.547 332.021 208.761 331.302 208.793L322.485 209.147Z" fill="white"/>
</g>
</g>
<path d="M335.02 206.268C334.698 206.992 334.178 207.611 333.522 208.056C332.864 208.5 332.095 208.752 331.302 208.782L322.485 209.136L334.879 202.514C335.19 203.087 335.364 203.724 335.389 204.375C335.413 205.025 335.286 205.673 335.02 206.268Z" fill="#029B83"/>
<g opacity="0.3">
<g opacity="0.3">
<path opacity="0.3" d="M322.839 194.274L319.829 201.569L329.213 193.176C328.777 192.702 328.232 192.345 327.623 192.137C327.014 191.929 326.363 191.877 325.729 191.986C325.095 192.096 324.496 192.362 323.994 192.762C323.487 193.162 323.091 193.682 322.839 194.274Z" fill="white"/>
</g>
</g>
<path d="M338.395 228.658H363.034V235.102H338.388C337.535 235.102 336.713 234.763 336.111 234.158C335.506 233.554 335.166 232.735 335.166 231.88C335.166 231.025 335.506 230.206 336.111 229.602C336.713 228.997 337.535 228.658 338.388 228.658" fill="#0B6D73"/>
<path d="M360.986 235.102H373.451V234.182H369.591V229.614H373.451V228.658H360.986C360.133 228.658 359.311 228.997 358.709 229.602C358.104 230.206 357.764 231.025 357.764 231.88C357.764 232.735 358.104 233.554 358.709 234.158C359.311 234.763 360.133 235.102 360.986 235.102Z" fill="#0B5059"/>
<path d="M372.53 234.146H361.022C360.42 234.146 359.846 233.907 359.422 233.482C358.997 233.057 358.756 232.481 358.756 231.88C358.756 231.279 358.997 230.702 359.422 230.277C359.846 229.852 360.42 229.614 361.022 229.614H372.53V234.146Z" fill="#EEF6F7"/>
<path d="M334.705 223.7H355.278V228.658H334.705C334.595 228.658 334.482 228.637 334.379 228.594C334.277 228.551 334.181 228.489 334.103 228.41C334.025 228.331 333.961 228.237 333.919 228.134C333.876 228.03 333.855 227.92 333.855 227.808V224.55C333.855 224.438 333.876 224.328 333.919 224.225C333.961 224.121 334.025 224.027 334.103 223.948C334.181 223.869 334.277 223.807 334.379 223.764C334.482 223.721 334.595 223.7 334.705 223.7Z" fill="#053849"/>
<path d="M346.39 225.364H339.308C339.213 225.364 339.124 225.402 339.057 225.468C338.993 225.535 338.954 225.625 338.954 225.719V226.806C338.954 226.899 338.993 226.99 339.057 227.056C339.124 227.123 339.213 227.16 339.308 227.16H346.39C346.486 227.16 346.575 227.123 346.642 227.056C346.706 226.99 346.745 226.899 346.745 226.806V225.711C346.745 225.618 346.706 225.528 346.642 225.461C346.575 225.395 346.486 225.357 346.39 225.357" fill="#0B6D73"/>
<path d="M363.253 228.658H352.056C351.946 228.658 351.833 228.637 351.73 228.594C351.628 228.551 351.532 228.489 351.454 228.41C351.376 228.331 351.313 228.237 351.27 228.134C351.228 228.03 351.206 227.92 351.206 227.808V224.55C351.206 224.438 351.228 224.328 351.27 224.225C351.313 224.121 351.376 224.027 351.454 223.948C351.532 223.869 351.628 223.807 351.73 223.764C351.833 223.721 351.946 223.7 352.056 223.7H363.246L363.253 228.658Z" fill="#0B6D73"/>
<path d="M363.253 227.914H352.382C352.269 227.913 352.163 227.869 352.081 227.79C352.003 227.71 351.957 227.602 351.957 227.489V224.833C351.957 224.721 352.003 224.613 352.081 224.533C352.163 224.453 352.269 224.408 352.382 224.408H363.253V227.914Z" fill="#EEF6F7"/>
<path d="M369.591 223.7H345.265V218.743H369.591C369.744 218.742 369.896 218.772 370.038 218.831C370.183 218.889 370.31 218.975 370.42 219.084C370.526 219.193 370.615 219.322 370.671 219.464C370.732 219.606 370.76 219.758 370.76 219.912V222.557C370.753 222.86 370.625 223.149 370.406 223.36C370.186 223.572 369.896 223.69 369.591 223.69" fill="#0B5059"/>
<path d="M336.943 219.486H348.133C348.246 219.486 348.353 219.531 348.434 219.61C348.473 219.65 348.505 219.697 348.526 219.748C348.547 219.8 348.558 219.855 348.558 219.911V222.556C348.558 222.612 348.547 222.668 348.526 222.719C348.505 222.771 348.473 222.818 348.434 222.857C348.353 222.937 348.246 222.981 348.133 222.981H336.943V219.486Z" fill="#EEF6F7"/>
<path d="M348.451 218.743H336.122V219.486H348.126C348.179 219.477 348.232 219.477 348.285 219.486C348.388 219.525 348.473 219.603 348.519 219.702C348.54 219.751 348.551 219.805 348.551 219.858V222.556C348.551 222.611 348.54 222.665 348.519 222.716C348.497 222.766 348.466 222.811 348.423 222.847C348.384 222.883 348.335 222.911 348.285 222.928C348.232 222.94 348.179 222.94 348.126 222.928H336.122V223.672H348.444C348.558 223.672 348.667 223.651 348.77 223.608C348.873 223.565 348.968 223.503 349.046 223.424C349.124 223.345 349.188 223.251 349.23 223.148C349.273 223.045 349.294 222.934 349.294 222.822V219.564C349.294 219.453 349.273 219.342 349.23 219.238C349.188 219.135 349.124 219.041 349.046 218.962C348.968 218.883 348.873 218.821 348.77 218.778C348.667 218.736 348.558 218.714 348.444 218.714" fill="#0B6D73"/>
</svg>
