<svg width="484" height="322" viewBox="0 0 484 322" fill="none" xmlns="http://www.w3.org/2000/svg">
<path d="M402 26.118L480.195 168.509C481.159 172.227 481.136 176.133 480.124 179.838L437.704 320.729L68.7938 320.219L24.1951 130.117C23.7725 124.892 25.2256 119.687 28.2938 115.436L146.625 4.97555C148.489 3.2378 150.692 1.90317 153.096 1.0553C155.499 0.207423 158.052 -0.135328 160.594 0.0480466L387.094 16.548C390.18 16.7689 393.161 17.7608 395.768 19.4329C398.37 21.1047 400.515 23.4034 402 26.118Z" fill="#E5FCFA"/>
<path d="M457.875 321.243H48.8548C48.7127 321.22 48.5837 321.149 48.4903 321.04C48.397 320.928 48.3459 320.789 48.3459 320.647C48.3459 320.504 48.397 320.365 48.4903 320.253C48.5837 320.144 48.7127 320.073 48.8548 320.05H457.875C458.017 320.073 458.145 320.144 458.239 320.253C458.332 320.365 458.385 320.504 458.385 320.647C458.385 320.789 458.332 320.928 458.239 321.04C458.145 321.149 458.017 321.22 457.875 321.243Z" fill="#8D9D9F"/>
<path d="M109.702 69.993H13.4061C12.6895 69.993 12.1086 70.5739 12.1086 71.2905V135.821C12.1086 136.537 12.6895 137.118 13.4061 137.118H109.702C110.419 137.118 111 136.537 111 135.821V71.2905C111 70.5739 110.419 69.993 109.702 69.993Z" fill="#029B83"/>
<path opacity="0.7" d="M109.702 69.993H13.4061C12.6895 69.993 12.1086 70.5739 12.1086 71.2905V135.821C12.1086 136.537 12.6895 137.118 13.4061 137.118H109.702C110.419 137.118 111 136.537 111 135.821V71.2905C111 70.5739 110.419 69.993 109.702 69.993Z" fill="white"/>
<path d="M69.9937 103.556C69.9937 105.224 69.4987 106.856 68.5717 108.243C67.6447 109.631 66.3269 110.712 64.7849 111.351C63.2433 111.989 61.5468 112.157 59.9099 111.831C58.2734 111.505 56.7701 110.702 55.5899 109.522C54.4098 108.342 53.6062 106.838 53.2807 105.202C52.9552 103.565 53.1224 101.868 53.7611 100.327C54.3997 98.7848 55.4808 97.467 56.8687 96.54C58.2562 95.613 59.8874 95.118 61.5562 95.118C63.7938 95.118 65.9399 96.0072 67.5224 97.5893C69.1046 99.1718 69.9937 101.318 69.9937 103.556Z" fill="#029B83"/>
<path d="M59.7412 100.968V103.556V106.143L64.9162 103.556L59.7412 100.968Z" fill="white"/>
<path d="M107.25 128.681C107.258 128.541 107.211 128.403 107.118 128.298C107.025 128.192 106.895 128.128 106.755 128.118H17.1824C17.0444 128.134 16.9169 128.2 16.8247 128.304C16.7324 128.408 16.681 128.542 16.681 128.681C16.681 128.819 16.7324 128.954 16.8247 129.057C16.9169 129.161 17.0444 129.227 17.1824 129.243H106.755C106.895 129.233 107.025 129.169 107.118 129.063C107.211 128.958 107.258 128.82 107.25 128.681Z" fill="white"/>
<path d="M16.4999 128.681C16.4999 128.83 16.5591 128.973 16.6645 129.078C16.7703 129.184 16.9131 129.243 17.0624 129.243H87.3749C87.9299 129.243 88.3799 128.992 88.3799 128.681C88.3799 128.369 87.9299 128.118 87.3749 128.118H17.0624C16.9131 128.118 16.7703 128.177 16.6645 128.283C16.5591 128.388 16.4999 128.531 16.4999 128.681Z" fill="#029B83"/>
<path d="M76.2861 100.533V103.556V106.578L79.9499 103.556L76.2861 100.533Z" fill="white"/>
<path d="M81.7499 100.533H80.8162V106.578H81.7499V100.533Z" fill="white"/>
<path d="M47.1486 100.533V103.556V106.578L43.4811 103.556L47.1486 100.533Z" fill="white"/>
<path d="M42.6187 100.533H41.6849V106.578H42.6187V100.533Z" fill="white"/>
<path d="M17.4899 131.561V133.001V134.441L20.3661 133.001L17.4899 131.561Z" fill="white"/>
<path d="M24.6561 131.786V133.001V134.216L26.1299 133.001L24.6561 131.786Z" fill="white"/>
<path d="M26.8536 131.786H26.4786V134.219H26.8536V131.786Z" fill="white"/>
<path d="M30.8735 132.498H30.2585V133.492H30.8735L31.8373 134.441V131.561L30.8735 132.498Z" fill="white"/>
<path d="M32.3737 132.412V133.589C32.5297 133.589 32.6797 133.527 32.7899 133.417C32.9005 133.307 32.9624 133.157 32.9624 133.001C32.9624 132.845 32.9005 132.695 32.7899 132.584C32.6797 132.474 32.5297 132.412 32.3737 132.412Z" fill="white"/>
<path d="M32.3737 134.204V133.923C32.6077 133.908 32.8274 133.805 32.9875 133.634C33.148 133.463 33.2373 133.237 33.2373 133.002C33.2373 132.768 33.148 132.542 32.9875 132.371C32.8274 132.2 32.6077 132.097 32.3737 132.082V131.801C32.6808 131.818 32.9699 131.952 33.181 132.175C33.3925 132.399 33.5103 132.695 33.5103 133.002C33.5103 133.31 33.3925 133.606 33.181 133.83C32.9699 134.053 32.6808 134.187 32.3737 134.204Z" fill="white"/>
<path d="M102.971 131.786H103.792V132.622H104.295V131.283H102.971V131.786Z" fill="white"/>
<path d="M101.392 132.622V131.786H102.214V131.283H100.89V132.622H101.392Z" fill="white"/>
<path d="M103.792 133.379V134.216H102.971V134.718H104.295V133.379H103.792Z" fill="white"/>
<path d="M102.214 134.216H101.392V133.379H100.89V134.718H102.214V134.216Z" fill="white"/>
<path d="M96.9486 133.053L96.6636 132.922C96.6557 132.81 96.6343 132.699 96.5998 132.592L96.8211 132.367L96.5248 131.913L96.2248 132.022C96.1397 131.948 96.0467 131.884 95.9473 131.831V131.493L95.4223 131.381L95.2873 131.669C95.1737 131.676 95.0616 131.698 94.9536 131.733L94.7248 131.512L94.2748 131.804L94.3873 132.104C94.3311 132.172 94.2797 132.243 94.2336 132.318L94.2036 132.374V132.397H93.8736C93.8436 132.532 93.8061 132.708 93.7573 132.926L94.0461 133.061C94.0536 133.175 94.075 133.289 94.1098 133.398L93.8848 133.623L94.1248 134.118L94.4211 134.009C94.5047 134.085 94.5981 134.15 94.6986 134.201V134.531L95.2273 134.643L95.3623 134.354C95.4741 134.346 95.5847 134.326 95.6923 134.294L95.9173 134.516L96.3711 134.223L96.2623 133.927C96.337 133.843 96.4003 133.75 96.4498 133.649H96.7798C96.8173 133.469 96.8548 133.293 96.8923 133.121L96.9486 133.053ZM94.8148 132.723C94.8737 132.609 94.969 132.518 95.0848 132.464C95.1647 132.427 95.2521 132.409 95.3398 132.412C95.4407 132.416 95.539 132.445 95.6248 132.498C95.6702 132.528 95.7118 132.563 95.7486 132.603C95.7849 132.646 95.8153 132.694 95.8386 132.746C95.8866 132.855 95.8997 132.977 95.8761 133.094C95.8502 133.21 95.7883 133.315 95.6998 133.394C95.6578 133.433 95.6098 133.465 95.5573 133.488C95.5086 133.511 95.4568 133.526 95.4036 133.533C95.3046 133.546 95.2037 133.533 95.1111 133.496C95.0286 133.464 94.9551 133.412 94.8973 133.346C94.8137 133.248 94.765 133.125 94.7586 132.997C94.7548 132.949 94.7548 132.902 94.7586 132.854C94.7586 132.854 94.7736 132.806 94.8148 132.723ZM94.1848 132.326C94.1747 132.34 94.1661 132.355 94.1586 132.371L94.1848 132.326Z" fill="white"/>
<path d="M468.577 161.493H372.281C371.565 161.493 370.984 162.074 370.984 162.791V227.321C370.984 228.037 371.565 228.618 372.281 228.618H468.577C469.294 228.618 469.875 228.037 469.875 227.321V162.791C469.875 162.074 469.294 161.493 468.577 161.493Z" fill="#029B83"/>
<path opacity="0.7" d="M468.577 161.493H372.281C371.565 161.493 370.984 162.074 370.984 162.791V227.321C370.984 228.037 371.565 228.618 372.281 228.618H468.577C469.294 228.618 469.875 228.037 469.875 227.321V162.791C469.875 162.074 469.294 161.493 468.577 161.493Z" fill="white"/>
<path d="M428.869 195.056C428.869 196.724 428.374 198.356 427.447 199.743C426.521 201.131 425.201 202.212 423.66 202.851C422.119 203.489 420.424 203.657 418.785 203.331C417.15 203.006 415.646 202.202 414.465 201.022C413.284 199.842 412.481 198.338 412.155 196.702C411.829 195.065 411.997 193.368 412.635 191.827C413.276 190.285 414.356 188.967 415.744 188.04C417.131 187.113 418.762 186.618 420.431 186.618C422.67 186.618 424.815 187.507 426.397 189.089C427.98 190.672 428.869 192.818 428.869 195.056Z" fill="#029B83"/>
<path d="M418.616 192.468V195.056V197.643L423.791 195.056L418.616 192.468Z" fill="white"/>
<path d="M466.125 220.181C466.132 220.041 466.087 219.903 465.994 219.798C465.9 219.692 465.769 219.628 465.63 219.618H376.057C375.919 219.634 375.791 219.7 375.701 219.804C375.607 219.908 375.555 220.042 375.555 220.181C375.555 220.319 375.607 220.454 375.701 220.557C375.791 220.661 375.919 220.727 376.057 220.743H465.63C465.769 220.733 465.9 220.669 465.994 220.563C466.087 220.458 466.132 220.32 466.125 220.181Z" fill="white"/>
<path d="M375.375 220.181C375.375 220.33 375.435 220.473 375.54 220.578C375.645 220.684 375.787 220.743 375.938 220.743H446.25C446.805 220.743 447.255 220.492 447.255 220.181C447.255 219.869 446.805 219.618 446.25 219.618H375.938C375.787 219.618 375.645 219.677 375.54 219.783C375.435 219.888 375.375 220.031 375.375 220.181Z" fill="#029B83"/>
<path d="M435.161 192.033V195.056V198.078L438.825 195.056L435.161 192.033Z" fill="white"/>
<path d="M440.625 192.033H439.691V198.078H440.625V192.033Z" fill="white"/>
<path d="M406.02 192.033V195.056V198.078L402.356 195.056L406.02 192.033Z" fill="white"/>
<path d="M401.494 192.033H400.56V198.078H401.494V192.033Z" fill="white"/>
<path d="M376.365 223.061V224.501V225.941L379.241 224.501L376.365 223.061Z" fill="white"/>
<path d="M383.531 223.286V224.501V225.716L385.005 224.501L383.531 223.286Z" fill="white"/>
<path d="M385.729 223.286H385.354V225.719H385.729V223.286Z" fill="white"/>
<path d="M389.749 223.998H389.134V224.992H389.749L390.712 225.941V223.061L389.749 223.998Z" fill="white"/>
<path d="M391.249 223.912V225.089C391.406 225.089 391.556 225.027 391.665 224.917C391.774 224.807 391.837 224.657 391.837 224.501C391.837 224.345 391.774 224.195 391.665 224.084C391.556 223.974 391.406 223.912 391.249 223.912Z" fill="white"/>
<path d="M391.249 225.704V225.423C391.481 225.408 391.702 225.305 391.864 225.134C392.025 224.963 392.111 224.737 392.111 224.502C392.111 224.268 392.025 224.042 391.864 223.871C391.702 223.7 391.481 223.597 391.249 223.582V223.301C391.556 223.318 391.845 223.452 392.055 223.675C392.269 223.899 392.385 224.195 392.385 224.502C392.385 224.81 392.269 225.106 392.055 225.33C391.845 225.553 391.556 225.687 391.249 225.704Z" fill="white"/>
<path d="M461.846 223.286H462.667V224.122H463.17V222.783H461.846V223.286Z" fill="white"/>
<path d="M460.267 224.122V223.286H461.089V222.783H459.765V224.122H460.267Z" fill="white"/>
<path d="M462.667 224.879V225.716H461.846V226.218H463.17V224.879H462.667Z" fill="white"/>
<path d="M461.089 225.716H460.267V224.879H459.765V226.218H461.089V225.716Z" fill="white"/>
<path d="M455.824 224.553L455.539 224.422C455.531 224.31 455.509 224.199 455.475 224.092L455.696 223.867L455.4 223.413L455.1 223.522C455.014 223.448 454.92 223.384 454.822 223.331V222.993L454.297 222.881L454.162 223.169C454.05 223.176 453.937 223.198 453.829 223.233L453.6 223.012L453.15 223.304L453.262 223.604C453.206 223.672 453.154 223.743 453.109 223.818L453.079 223.874V223.897H452.749C452.719 224.032 452.681 224.208 452.632 224.426L452.921 224.561C452.929 224.675 452.951 224.789 452.985 224.898L452.76 225.123L453 225.618L453.296 225.509C453.379 225.585 453.472 225.65 453.574 225.701V226.031L454.102 226.143L454.237 225.854C454.35 225.846 454.459 225.826 454.567 225.794L454.792 226.016L455.246 225.723L455.137 225.427C455.212 225.343 455.276 225.25 455.325 225.149H455.655C455.692 224.969 455.73 224.793 455.767 224.621L455.824 224.553ZM453.69 224.223C453.75 224.109 453.844 224.018 453.96 223.964C454.039 223.927 454.129 223.909 454.215 223.912C454.316 223.916 454.414 223.945 454.5 223.998C454.545 224.028 454.586 224.063 454.624 224.103C454.661 224.146 454.691 224.194 454.714 224.246C454.762 224.355 454.774 224.477 454.751 224.594C454.725 224.71 454.665 224.815 454.575 224.894C454.534 224.933 454.485 224.965 454.432 224.988C454.384 225.011 454.331 225.026 454.279 225.033C454.181 225.046 454.08 225.033 453.986 224.996C453.904 224.964 453.829 224.912 453.772 224.846C453.69 224.748 453.641 224.625 453.634 224.497C453.63 224.449 453.63 224.402 453.634 224.354C453.634 224.354 453.649 224.306 453.69 224.223ZM453.06 223.826C453.049 223.84 453.041 223.855 453.034 223.871L453.06 223.826Z" fill="white"/>
<path d="M375.907 39.1728H108.633C106.418 39.1728 104.623 40.9681 104.623 43.1828V236.879C104.623 239.093 106.418 240.889 108.633 240.889H375.907C378.121 240.889 379.917 239.093 379.917 236.879V43.1828C379.917 40.9681 378.121 39.1728 375.907 39.1728Z" fill="white"/>
<path d="M166.125 45.2431L166.931 45.2431L166.931 47.3468L166.125 47.3468L166.125 45.2431ZM166.125 49.4543L166.931 49.4543L166.931 51.5581L166.125 51.5581L166.125 49.4543ZM166.125 53.6618L166.931 53.6618L166.931 55.7656L166.125 55.7656L166.125 53.6618ZM166.125 57.8693L166.931 57.8693L166.931 59.9731L166.125 59.9731L166.125 57.8693ZM166.125 62.0768L166.931 62.0768L166.931 64.1806L166.125 64.1806L166.125 62.0768ZM166.125 66.2881L166.931 66.2881L166.931 68.3918L166.125 68.3918L166.125 66.2881ZM166.125 70.4956L166.931 70.4956L166.931 72.5993L166.125 72.5993L166.125 70.4956ZM166.125 74.7031L166.931 74.7031L166.931 76.8068L166.125 76.8068L166.125 74.7031ZM166.965 78.8543C167.055 79.4806 167.31 80.0731 167.708 80.5681L167.077 81.0743C166.59 80.4668 166.275 79.7393 166.166 78.9706L166.965 78.8543ZM169.215 81.6668C169.616 81.8206 170.04 81.8956 170.475 81.8956L171.146 81.8956L171.146 82.7018L170.475 82.7018C169.943 82.7018 169.421 82.6081 168.93 82.4206L169.215 81.6668ZM173.25 81.8956L175.354 81.8956L175.354 82.7018L173.25 82.7018L173.25 81.8956ZM177.458 81.8956L179.561 81.8956L179.561 82.7018L177.458 82.7018L177.458 81.8956ZM181.665 81.8956L183.769 81.8956L183.769 82.7018L181.665 82.7018L181.665 81.8956ZM185.876 81.8956L187.98 81.8956L187.98 82.7018L185.876 82.7018L185.876 81.8956ZM190.084 81.8956L192.187 81.8956L192.187 82.7018L190.084 82.7018L190.084 81.8956ZM194.291 81.8956L196.395 81.8956L196.395 82.7018L194.291 82.7018L194.291 81.8956ZM198.499 81.8956L200.603 81.8956L200.603 82.7018L198.499 82.7018L198.499 81.8956ZM202.706 81.8956L204.81 81.8956L204.81 82.7018L202.706 82.7018L202.706 81.8956ZM206.917 81.8956L209.021 81.8956L209.021 82.7018L206.917 82.7018L206.917 81.8956ZM211.125 81.8956L213.229 81.8956L213.229 82.7018L211.125 82.7018L211.125 81.8956ZM215.332 81.8956L217.436 81.8956L217.436 82.7018L215.332 82.7018L215.332 81.8956ZM219.54 81.8956L221.644 81.8956L221.644 82.7018L219.54 82.7018L219.54 81.8956ZM223.751 81.8956L225.855 81.8956L225.855 82.7018L223.751 82.7018L223.751 81.8956ZM227.959 81.8956L230.063 81.8956L230.062 82.7018L227.959 82.7018L227.959 81.8956Z" fill="#029B83"/>
<path d="M223.125 83.1068L223.125 81.273C223.125 80.8493 223.47 80.5043 223.894 80.5043L225.727 80.5043C226.151 80.5043 226.496 80.8493 226.496 81.273L226.496 83.1068C226.496 83.5305 226.151 83.8756 225.727 83.8756L223.894 83.8756C223.47 83.8793 223.125 83.5343 223.125 83.1068Z" fill="#029B83"/>
<path d="M176.85 83.1068L176.85 81.2731C176.85 80.8493 177.195 80.5043 177.619 80.5043L179.453 80.5043C179.876 80.5043 180.221 80.8493 180.221 81.2731L180.221 83.1068C180.221 83.5306 179.876 83.8755 179.453 83.8755L177.619 83.8755C177.195 83.8793 176.85 83.5343 176.85 83.1068Z" fill="#029B83"/>
<path d="M223.875 81.8993L223.875 82.7055L225.978 82.7055L225.978 81.8993L223.875 81.8993ZM228.085 81.8993L228.085 82.7055L230.189 82.7055L230.189 81.8993L228.085 81.8993ZM232.292 81.8993L232.292 82.7055L234.395 82.7055L234.395 81.8993L232.292 81.8993ZM236.499 81.8993L236.499 82.7055L238.602 82.7055L238.602 81.8993L236.499 81.8993ZM240.705 81.8993L240.705 82.7055L242.809 82.7055L242.809 81.8993L240.705 81.8993ZM244.916 81.8993L244.916 82.7055L247.019 82.7055L247.019 81.8993L244.916 81.8993ZM249.123 81.8993L249.123 82.7055L251.226 82.7055L251.226 81.8993L249.123 81.8993ZM253.329 81.8993L253.329 82.7055L255.433 82.7055L255.433 81.8993L253.329 81.8993ZM257.48 82.7393C258.106 82.8293 258.698 83.0843 259.193 83.4818L259.699 82.8518C259.092 82.3643 258.364 82.0493 257.596 81.9405L257.48 82.7393ZM260.292 84.9893C260.445 85.3905 260.52 85.8143 260.52 86.2493L260.52 86.9205L261.326 86.9205L261.326 86.2493C261.326 85.7168 261.233 85.1956 261.045 84.7043L260.292 84.9893ZM260.52 89.0243L260.52 91.128L261.326 91.128L261.326 89.0243L260.52 89.0243ZM260.52 93.2318L260.52 95.3355L261.326 95.3355L261.326 93.2318L260.52 93.2318ZM260.52 97.4393L260.52 99.543L261.326 99.543L261.326 97.4393L260.52 97.4393ZM260.52 101.651L260.52 103.754L261.326 103.754L261.326 101.651L260.52 101.651ZM260.52 105.858L260.52 107.962L261.326 107.962L261.326 105.858L260.52 105.858ZM260.52 110.066L260.52 112.169L261.326 112.169L261.326 110.066L260.52 110.066ZM260.52 114.273L260.52 116.377L261.326 116.377L261.326 114.273L260.52 114.273ZM260.52 118.481L260.52 120.584L261.326 120.584L261.326 118.481L260.52 118.481ZM260.52 122.692L260.52 124.796L261.326 124.796L261.326 122.692L260.52 122.692ZM260.52 126.899L260.52 129.003L261.326 129.003L261.326 126.899L260.52 126.899ZM260.52 131.107L260.52 133.211L261.326 133.211L261.326 131.107L260.52 131.107ZM260.52 135.314L260.52 137.418L261.326 137.418L261.326 135.314L260.52 135.314ZM260.52 139.526L260.52 141.629L261.326 141.629L261.326 139.526L260.52 139.526ZM260.52 143.733L260.52 145.837L261.326 145.837L261.326 143.733L260.52 143.733Z" fill="#029B83"/>
<path d="M261.731 92.6243L259.898 92.6243C259.474 92.6243 259.129 92.9693 259.129 93.3931L259.129 95.2268C259.129 95.6506 259.474 95.9956 259.898 95.9956L261.731 95.9956C262.155 95.9956 262.5 95.6506 262.5 95.2268L262.5 93.3931C262.504 92.9693 262.159 92.6243 261.731 92.6243Z" fill="#029B83"/>
<path d="M324.06 240.791H323.254L323.254 239.812H324.06L324.06 240.791ZM324.06 237.708H323.254V235.604H324.06V237.708ZM324.06 233.501H323.254L323.254 231.397H324.06L324.06 233.501ZM324.06 229.289H323.254V227.186H324.06V229.289ZM324.06 225.082H323.254L323.254 222.978H324.06L324.06 225.082ZM324.06 220.874L323.254 220.874V218.771L324.06 218.771V220.874ZM323.22 216.723C323.13 216.097 322.875 215.504 322.477 215.009L323.107 214.503C323.595 215.111 323.91 215.838 324.019 216.607L323.22 216.723ZM320.97 213.911C320.569 213.757 320.145 213.682 319.71 213.682L319.039 213.682V212.876L319.71 212.876C320.242 212.876 320.764 212.969 321.255 213.157L320.97 213.911ZM316.935 213.682L314.831 213.682V212.876L316.935 212.876V213.682ZM312.727 213.682L310.624 213.682V212.876L312.727 212.876V213.682ZM308.52 213.682L306.416 213.682V212.876L308.52 212.876V213.682ZM304.309 213.682L302.205 213.682V212.876L304.309 212.876V213.682ZM300.101 213.682L297.998 213.682V212.876L300.101 212.876V213.682ZM295.894 213.682L293.79 213.682V212.876L295.894 212.876V213.682ZM291.686 213.682L289.582 213.682V212.876L291.686 212.876V213.682ZM287.479 213.682L285.375 213.682V212.876L287.479 212.876V213.682Z" fill="#029B83"/>
<path d="M297.094 214.968L295.26 214.968C294.836 214.968 294.491 214.623 294.491 214.199V212.365C294.491 211.941 294.836 211.596 295.26 211.596L297.094 211.596C297.518 211.596 297.863 211.941 297.863 212.365V214.199C297.866 214.623 297.521 214.968 297.094 214.968Z" fill="#029B83"/>
<path d="M324.574 233.864L322.74 233.864C322.316 233.864 321.971 233.519 321.971 233.096V231.262C321.971 230.838 322.316 230.493 322.74 230.493L324.574 230.493C324.998 230.493 325.343 230.838 325.343 231.262V233.096C325.346 233.519 325.001 233.864 324.574 233.864Z" fill="#029B83"/>
<path d="M341.427 48.6181L342.233 48.6181L342.233 50.3468L341.427 50.3468L341.427 48.6181ZM341.427 52.4506L342.233 52.4506L342.233 54.5543L341.427 54.5543L341.427 52.4506ZM341.427 56.6581L342.233 56.6581L342.233 58.7618L341.427 58.7618L341.427 56.6581ZM341.427 60.8693L342.233 60.8693L342.233 62.9731L341.427 62.9731L341.427 60.8693ZM341.427 65.0768L342.233 65.0768L342.233 67.1806L341.427 67.1806L341.427 65.0768ZM341.427 69.2843L342.233 69.2843L342.233 71.3881L341.427 71.3881L341.427 69.2843ZM341.427 73.4918L342.233 73.4918L342.233 75.5956L341.427 75.5956L341.427 73.4918ZM341.427 77.7031L342.233 77.7031L342.233 79.8068L341.427 79.8068L341.427 77.7031ZM341.427 81.9106L342.233 81.9106L342.233 84.0143L341.427 84.0143L341.427 81.9106ZM341.427 86.1181L342.233 86.1181L342.233 88.2218L341.427 88.2218L341.427 86.1181ZM341.427 90.3256L342.233 90.3256L342.233 92.4293L341.427 92.4293L341.427 90.3256ZM341.427 94.5331L342.233 94.5331L342.233 96.6368L341.427 96.6368L341.427 94.5331ZM341.427 98.7443L342.233 98.7443L342.233 100.848L341.427 100.848L341.427 98.7443ZM341.427 102.952L342.233 102.952L342.233 105.056L341.427 105.056L341.427 102.952ZM341.427 107.159L342.233 107.159L342.233 109.263L341.427 109.263L341.427 107.159ZM341.427 111.367L342.233 111.367L342.233 113.471L341.427 113.471L341.427 111.367ZM341.427 115.578L342.233 115.578L342.233 117.682L341.427 117.682L341.427 115.578ZM341.427 119.786L342.233 119.786L342.233 121.889L341.427 121.889L341.427 119.786ZM341.427 123.993L342.233 123.993L342.233 126.097L341.427 126.097L341.427 123.993ZM342.267 128.144C342.357 128.771 342.612 129.363 343.009 129.858L342.379 130.364C341.892 129.757 341.577 129.029 341.468 128.261L342.267 128.144ZM344.517 130.957C344.918 131.111 345.342 131.186 345.777 131.186L346.448 131.186L346.448 131.992L345.777 131.992C345.244 131.992 344.723 131.898 344.232 131.711L344.517 130.957ZM348.552 131.186L350.655 131.186L350.655 131.992L348.552 131.992L348.552 131.186ZM352.759 131.186L354.863 131.186L354.863 131.992L352.759 131.992L352.759 131.186ZM356.967 131.186L359.07 131.186L359.07 131.992L356.967 131.992L356.967 131.186ZM361.178 131.186L363.282 131.186L363.282 131.992L361.178 131.992L361.178 131.186ZM365.385 131.186L367.489 131.186L367.489 131.992L365.385 131.992L365.385 131.186ZM369.593 131.186L371.697 131.186L371.697 131.992L369.593 131.992L369.593 131.186ZM373.8 131.186L375.904 131.186L375.904 131.992L373.8 131.992L373.8 131.186ZM378.008 131.186L380.112 131.186L380.112 131.992L378.008 131.992L378.008 131.186Z" fill="#029B83"/>
<path d="M368.393 129.9L370.227 129.9C370.65 129.9 370.995 130.245 370.995 130.668L370.995 132.502C370.995 132.926 370.65 133.271 370.227 133.271L368.393 133.271C367.969 133.271 367.624 132.926 367.624 132.502L367.624 130.668C367.62 130.245 367.965 129.9 368.393 129.9Z" fill="#029B83"/>
<path d="M340.913 100.923L342.747 100.923C343.17 100.923 343.515 101.268 343.515 101.692L343.515 103.526C343.515 103.949 343.17 104.294 342.747 104.294L340.913 104.294C340.489 104.294 340.144 103.949 340.144 103.526L340.144 101.692C340.14 101.268 340.485 100.923 340.913 100.923Z" fill="#029B83"/>
<path d="M340.883 50.8943L342.716 50.8605C343.14 50.853 343.493 51.1905 343.5 51.618L343.534 53.4518C343.541 53.8755 343.204 54.228 342.776 54.2355L340.943 54.2693C340.519 54.2768 340.166 53.9393 340.159 53.5118L340.125 51.678C340.118 51.2505 340.459 50.9018 340.883 50.8943Z" fill="#029B83"/>
<path d="M274.778 213.678L274.778 212.872L273.049 212.872L273.049 213.678L274.778 213.678ZM270.945 213.678L270.945 212.872L268.842 212.872L268.842 213.678L270.945 213.678ZM266.738 213.678L266.738 212.872L264.634 212.872L264.634 213.678L266.738 213.678ZM262.527 213.678L262.527 212.872L260.423 212.872L260.423 213.678L262.527 213.678ZM258.319 213.678L258.319 212.872L256.215 212.872L256.215 213.678L258.319 213.678ZM254.112 213.678L254.112 212.872L252.008 212.872L252.008 213.678L254.112 213.678ZM249.904 213.678L249.904 212.872L247.8 212.872L247.8 213.678L249.904 213.678ZM245.693 213.678L245.693 212.872L243.589 212.872L243.589 213.678L245.693 213.678ZM241.485 213.678L241.485 212.872L239.382 212.872L239.382 213.678L241.485 213.678ZM237.278 213.678L237.278 212.872L235.174 212.872L235.174 213.678L237.278 213.678ZM233.07 213.678L233.07 212.872L230.967 212.872L230.967 213.678L233.07 213.678ZM228.863 213.678L228.863 212.872L226.759 212.872L226.759 213.678L228.863 213.678ZM224.652 213.678L224.652 212.872L222.548 212.872L222.548 213.678L224.652 213.678ZM220.444 213.678L220.444 212.872L218.34 212.872L218.34 213.678L220.444 213.678ZM216.237 213.678L216.237 212.872L214.133 212.872L214.133 213.678L216.237 213.678ZM212.029 213.678L212.029 212.872L209.925 212.872L209.925 213.678L212.029 213.678ZM207.818 213.678L207.818 212.872L205.714 212.872L205.714 213.678L207.818 213.678ZM203.61 213.678L203.61 212.872L201.507 212.872L201.507 213.678L203.61 213.678ZM199.403 213.678L199.403 212.872L197.299 212.872L197.299 213.678L199.403 213.678ZM195.252 212.838C194.625 212.748 194.033 212.493 193.538 212.096L193.032 212.726C193.639 213.213 194.367 213.528 195.135 213.637L195.252 212.838ZM192.439 210.588C192.285 210.187 192.21 209.763 192.21 209.328L192.21 208.657L191.404 208.657L191.404 209.328C191.404 209.861 191.498 210.382 191.685 210.873L192.439 210.588ZM192.21 206.553L192.21 204.449L191.404 204.449L191.404 206.553L192.21 206.553ZM192.21 202.346L192.21 200.242L191.404 200.242L191.404 202.346L192.21 202.346ZM192.21 198.138L192.21 196.034L191.404 196.034L191.404 198.138L192.21 198.138ZM192.21 193.927L192.21 191.823L191.404 191.823L191.404 193.927L192.21 193.927ZM192.21 189.719L192.21 187.616L191.404 187.616L191.404 189.719L192.21 189.719ZM192.21 185.512L192.21 183.408L191.404 183.408L191.404 185.512L192.21 185.512ZM192.21 181.304L192.21 179.201L191.404 179.201L191.404 181.304L192.21 181.304ZM192.21 177.097L192.21 174.993L191.404 174.993L191.404 177.097L192.21 177.097Z" fill="#029B83"/>
<path d="M286.613 213.678L286.613 212.872L285.259 212.872L285.259 213.678L286.613 213.678ZM283.152 213.678L283.152 212.872L281.048 212.872L281.048 213.678L283.152 213.678ZM278.944 213.678L278.944 212.872L276.84 212.872L276.84 213.678L278.944 213.678ZM274.737 213.678L274.737 212.872L272.633 212.872L272.633 213.678L274.737 213.678Z" fill="#029B83"/>
<path d="M193.496 186.712L193.496 184.878C193.496 184.455 193.151 184.109 192.728 184.109L190.894 184.109C190.47 184.109 190.125 184.455 190.125 184.878L190.125 186.712C190.125 187.136 190.47 187.481 190.894 187.481L192.728 187.481C193.151 187.485 193.496 187.14 193.496 186.712Z" fill="#029B83"/>
<path d="M220.871 214.192L220.871 212.358C220.871 211.934 220.526 211.589 220.103 211.589L218.269 211.589C217.845 211.589 217.5 211.934 217.5 212.358L217.5 214.192C217.5 214.616 217.845 214.961 218.269 214.961L220.103 214.961C220.526 214.964 220.871 214.619 220.871 214.192Z" fill="#029B83"/>
<path d="M267.375 214.222L267.409 212.388C267.416 211.965 267.079 211.612 266.651 211.605L264.818 211.571C264.394 211.563 264.041 211.901 264.034 212.328L264 214.162C263.993 214.586 264.33 214.938 264.758 214.946L266.591 214.98C267.019 214.987 267.368 214.646 267.375 214.222Z" fill="#029B83"/>
<path d="M108.26 38.8682H376.24C377.303 38.8682 378.325 39.2908 379.075 40.0427C379.829 40.7945 380.25 41.8147 380.25 42.8781V55.9505H104.25V42.8781C104.25 41.8147 104.672 40.7945 105.424 40.0427C106.176 39.2908 107.197 38.8682 108.26 38.8682Z" fill="#029B83"/>
<path d="M113.817 50.124C115.164 50.124 116.255 49.0325 116.255 47.686C116.255 46.3394 115.164 45.2479 113.817 45.2479C112.471 45.2479 111.379 46.3394 111.379 47.686C111.379 49.0325 112.471 50.124 113.817 50.124Z" fill="white"/>
<path d="M121.564 50.124C122.911 50.124 124.003 49.0325 124.003 47.686C124.003 46.3394 122.911 45.2479 121.564 45.2479C120.218 45.2479 119.126 46.3394 119.126 47.686C119.126 49.0325 120.218 50.124 121.564 50.124Z" fill="white"/>
<path d="M129.316 50.124C130.662 50.124 131.754 49.0325 131.754 47.686C131.754 46.3394 130.662 45.2479 129.316 45.2479C127.969 45.2479 126.878 46.3394 126.878 47.686C126.878 49.0325 127.969 50.124 129.316 50.124Z" fill="white"/>
<path d="M376.36 240.929H108.14C107.118 240.939 106.135 240.543 105.405 239.83C104.676 239.116 104.26 238.143 104.25 237.124V42.7415C104.262 41.7227 104.677 40.7499 105.406 40.0364C106.135 39.3233 107.118 38.9275 108.14 38.9359H376.36C377.383 38.9275 378.365 39.3233 379.095 40.0364C379.821 40.7499 380.238 41.7227 380.25 42.7415V237.124C380.238 238.143 379.825 239.116 379.095 239.83C378.365 240.543 377.383 240.939 376.36 240.929ZM108.14 39.6442C107.304 39.6378 106.5 39.9619 105.904 40.545C105.307 41.1284 104.966 41.9239 104.956 42.7575V237.124C104.966 237.957 105.307 238.753 105.904 239.336C106.5 239.92 107.304 240.243 108.14 240.237H376.36C377.194 240.245 378 239.921 378.598 239.337C379.195 238.754 379.536 237.958 379.544 237.124V42.7415C379.536 41.9076 379.195 41.1116 378.598 40.5278C378 39.9443 377.194 39.6206 376.36 39.6282L108.14 39.6442Z" fill="#029B83"/>
<path d="M156.375 159.043H189.816V176.295H193.89V159.043H206.774V155.346H193.89V109.941H189.059L156.375 155.251V159.043ZM160.638 155.346L189.911 114.491V155.346H160.638Z" fill="#029B83"/>
<path d="M239.544 176.864C254.607 176.864 263.891 164.067 263.891 143.118C263.891 122.169 254.607 109.372 239.544 109.372C224.481 109.372 215.197 122.169 215.197 143.118C215.197 164.067 224.481 176.864 239.544 176.864ZM219.46 143.118C219.46 124.444 227.039 113.069 239.544 113.069C252.144 113.069 259.722 124.444 259.722 143.118C259.722 161.792 252.144 173.167 239.544 173.167C227.039 173.167 219.46 161.792 219.46 143.118Z" fill="#029B83"/>
<path d="M296.203 177.243C309.75 177.243 318.75 169.47 318.75 157.906C318.75 149.659 313.35 143.876 304.634 141.696C312.308 139.516 316.95 133.923 316.95 126.15C316.95 115.913 309.087 108.993 297.245 108.993C285.024 108.993 277.351 115.818 274.982 125.108L279.056 125.771C280.951 118.188 287.014 112.595 297.056 112.595C306.434 112.595 312.782 118.188 312.782 126.435C312.782 133.639 307.761 140.18 295.919 140.18H289.856V143.876C292.035 143.876 294.119 143.782 296.203 143.782C307.95 143.782 314.582 149.753 314.582 157.811C314.582 167.29 307.192 173.641 296.203 173.641C286.824 173.641 279.435 168.427 277.445 159.707L273.277 160.37C275.551 170.513 284.551 177.243 296.203 177.243Z" fill="#029B83"/>
<path d="M163.988 314.628L146.22 314.189L145.365 304.391H145.316L142.766 279.689L142.721 279.281L136.001 214.252C135.979 213.964 135.848 213.696 135.633 213.503C135.419 213.309 135.138 213.206 134.85 213.213C134.566 213.212 134.292 213.319 134.084 213.512C133.875 213.704 133.747 213.969 133.725 214.252L126.458 279.217L123.641 304.391L123.18 309.641L122.786 314.178L112.913 314.422L113.685 309.723L114.083 305.909L114.33 300.356L114.915 279.633V279.352L117.323 194.452L155.389 193.822L154.916 279.112L154.785 302.996L154.913 305.909C154.954 306.885 155.297 307.825 155.895 308.598C156.178 308.96 156.51 309.28 156.881 309.551L163.988 314.628Z" fill="#F6E8E2"/>
<path opacity="0.15" d="M155.91 308.609L151.819 312.063L151.624 306.438L150.874 284.872C150.852 284.24 150.644 283.628 150.276 283.113C149.909 282.599 149.398 282.203 148.807 281.977L142.774 279.678L142.609 279.614L142.575 279.273H142.729L154.939 279.116L154.807 302.999L154.935 305.913C154.935 306.026 154.935 306.142 154.957 306.254C155.056 307.111 155.386 307.925 155.91 308.609Z" fill="black"/>
<path d="M114.255 309.918L114.529 309.667C116.587 307.762 120.127 307.792 122.13 309.753L122.284 309.918C122.528 310.151 122.724 310.428 122.859 310.736C122.994 311.047 123.066 311.377 123.071 311.714V312.783C123.071 313.398 123.161 313.139 123.375 313.724L124.312 316.612C124.555 317.306 124.682 318.037 124.687 318.772V319.147C124.658 319.436 124.519 319.698 124.299 319.889C124.079 320.077 123.795 320.171 123.506 320.156H112.631C112.341 320.178 112.053 320.084 111.832 319.897C111.61 319.706 111.473 319.436 111.45 319.147V318.993C111.451 318.142 111.607 317.298 111.907 316.499L112.999 313.668C113.239 313.023 113.392 313.226 113.392 312.543L113.422 311.729C113.462 311.043 113.759 310.394 114.255 309.918Z" fill="#029B83"/>
<path opacity="0.6" d="M111.439 318.993V319.136C111.468 319.424 111.607 319.691 111.827 319.878C112.047 320.066 112.331 320.159 112.62 320.144H123.495C123.785 320.167 124.073 320.073 124.295 319.886C124.516 319.694 124.653 319.424 124.676 319.136V318.761C124.681 318.618 124.671 318.476 124.646 318.337H111.439V318.993Z" fill="black"/>
<path d="M155.404 193.833V306.243L154.95 306.269L151.624 306.457L145.35 306.832L142.601 279.618L142.568 279.277L136.001 214.252C135.979 213.964 135.848 213.696 135.633 213.503C135.419 213.309 135.138 213.206 134.85 213.213C134.573 213.215 134.306 213.319 134.1 213.506C133.886 213.7 133.752 213.968 133.725 214.256L123.975 306.809L113.674 306.303L117.326 194.467L155.404 193.833Z" fill="#053849"/>
<path opacity="0.3" d="M119.606 306.592L128.137 219.967C128.464 216.119 130.789 213.217 133.53 213.217H134.816C134.239 213.217 133.747 213.836 133.691 214.679L123.986 306.809L119.606 306.592Z" fill="black"/>
<path opacity="0.3" d="M155.411 195.198V306.243L151.628 306.457L149.726 195.213L155.411 195.198Z" fill="black"/>
<path d="M144.99 311.039V317.966C144.99 318.232 145.042 318.494 145.143 318.742C145.245 318.989 145.395 319.21 145.583 319.398C145.772 319.589 145.996 319.736 146.242 319.837C146.488 319.938 146.753 319.991 147.019 319.991H170.557C170.782 319.991 170.998 319.901 171.158 319.743C171.318 319.586 171.408 319.368 171.409 319.143C171.406 318.337 171.152 317.553 170.681 316.901C170.21 316.248 169.546 315.757 168.784 315.502L163.47 313.743L156.72 308.512C156.38 308.25 155.961 308.114 155.532 308.124C155.104 308.134 154.692 308.291 154.365 308.568L151.399 311.118C151.185 311.306 150.926 311.433 150.648 311.489C150.371 311.546 150.083 311.534 149.812 311.448L146.033 310.271C145.912 310.237 145.785 310.229 145.662 310.252C145.538 310.271 145.422 310.323 145.321 310.398C145.22 310.469 145.137 310.567 145.08 310.679C145.023 310.792 144.992 310.916 144.99 311.039Z" fill="#029B83"/>
<path opacity="0.6" d="M147.011 319.991H170.55C170.775 319.991 170.991 319.9 171.151 319.743C171.31 319.582 171.4 319.368 171.401 319.143C171.408 318.854 171.371 318.569 171.292 318.292H145.024C145.099 318.764 145.341 319.195 145.705 319.507C146.069 319.818 146.532 319.991 147.011 319.991Z" fill="black"/>
<path d="M156.596 311.287C156.544 311.287 156.495 311.264 156.457 311.231C156.42 311.189 156.399 311.137 156.399 311.081C156.399 311.024 156.42 310.972 156.457 310.931L157.882 309.397C157.923 309.357 157.976 309.335 158.032 309.335C158.089 309.335 158.142 309.357 158.182 309.397C158.222 309.437 158.244 309.492 158.244 309.549C158.244 309.605 158.222 309.66 158.182 309.701L156.761 311.231C156.711 311.261 156.655 311.283 156.596 311.287Z" fill="white"/>
<path d="M157.721 312.164C157.669 312.164 157.62 312.142 157.582 312.108C157.543 312.067 157.521 312.014 157.521 311.958C157.521 311.902 157.543 311.849 157.582 311.808L159.007 310.274C159.047 310.233 159.101 310.214 159.158 310.214C159.214 310.214 159.267 310.233 159.307 310.274C159.347 310.316 159.369 310.368 159.369 310.424C159.369 310.484 159.347 310.537 159.307 310.578L157.886 312.108C157.836 312.138 157.78 312.161 157.721 312.164Z" fill="white"/>
<path d="M158.843 313.038C158.792 313.038 158.742 313.019 158.704 312.986C158.664 312.944 158.642 312.892 158.642 312.836C158.642 312.776 158.664 312.723 158.704 312.682L160.129 311.148C160.17 311.111 160.223 311.088 160.279 311.088C160.334 311.088 160.388 311.111 160.429 311.148C160.469 311.189 160.491 311.242 160.491 311.302C160.491 311.358 160.469 311.411 160.429 311.452L159.011 312.993C158.963 313.027 158.903 313.046 158.843 313.038Z" fill="white"/>
<path d="M127.08 130.953H138.705C138.835 130.955 138.963 130.99 139.075 131.055C139.188 131.121 139.281 131.215 139.346 131.328L140.351 132.989L151.481 134.426C154.018 134.753 156.36 135.956 158.104 137.827L173.104 153.918L189.712 137.606L194.291 143.703L176.482 164.669C175.435 165.82 173.996 166.537 172.447 166.68C170.898 166.822 169.351 166.379 168.112 165.438L155.362 156.929V195.217H117.27C117.27 195.217 113.467 135.517 114.829 135.243L125.437 133.211L126.42 131.336C126.486 131.219 126.582 131.121 126.697 131.054C126.814 130.987 126.946 130.952 127.08 130.953Z" fill="#F6E8E2"/>
<path d="M123.244 133.646L115.084 135.078C114.297 135.216 113.548 135.515 112.884 135.958C112.219 136.401 111.654 136.977 111.225 137.651L92.9325 164.516C92.0509 165.811 91.7014 167.396 91.9564 168.942C92.211 170.489 93.0506 171.878 94.3012 172.822L106.477 182.021L111.727 176.433L104.029 168.326L118.725 150.618L125.527 150.314L123.244 133.646Z" fill="#F6E8E2"/>
<path d="M106.478 182.021L111.671 185.973C111.671 185.973 111.773 188.283 115.571 190.038L116.636 193.908C116.884 195.089 118.538 194.992 118.511 193.811L120.27 184.601L111.724 176.433L106.478 182.021Z" fill="#F6E8E2"/>
<path d="M140.636 118.642C140.486 118.664 140.43 118.826 140.453 118.979C140.475 119.133 140.636 119.182 140.786 119.163L141.99 118.912C142.275 118.838 142.519 118.655 142.67 118.402C142.822 118.15 142.868 117.848 142.8 117.562C142.75 117.378 142.655 117.209 142.524 117.07C142.394 116.931 142.231 116.827 142.05 116.767C141.825 116.681 141.63 116.531 141.489 116.336C141.347 116.141 141.266 115.909 141.255 115.668C141.255 115.454 141.233 115.293 141.221 115.233C140.591 112.743 140.636 118.642 140.636 118.642Z" fill="#F6E8E2"/>
<path d="M140.842 110.613L141.919 123.089C141.996 123.963 141.766 124.837 141.269 125.56C140.772 126.283 140.04 126.811 139.196 127.053L138.416 127.278L139.069 133.016L133.511 132.266L127.136 132.768L127.845 117.569L134.944 110.774L140.842 110.613Z" fill="#F6E8E2"/>
<path opacity="0.15" d="M133.643 118.709L133.8 119.084C134.339 119.241 134.886 119.367 135.439 119.459L133.384 122.013L133.643 118.709Z" fill="black"/>
<path d="M142.481 117.044C142.414 117.045 142.348 117.022 142.295 116.98C142.243 116.937 142.206 116.878 142.193 116.812L141.225 112.54C141.213 112.501 141.209 112.46 141.214 112.419C141.219 112.377 141.232 112.338 141.253 112.302C141.274 112.267 141.302 112.236 141.336 112.212C141.369 112.188 141.407 112.172 141.448 112.163C141.488 112.155 141.53 112.155 141.57 112.163C141.611 112.172 141.649 112.189 141.682 112.213C141.715 112.238 141.743 112.269 141.764 112.304C141.785 112.34 141.798 112.38 141.802 112.421L142.766 116.688C142.774 116.726 142.775 116.764 142.768 116.803C142.761 116.841 142.747 116.877 142.726 116.909C142.705 116.941 142.678 116.97 142.647 116.991C142.615 117.014 142.579 117.029 142.541 117.037L142.481 117.044Z" fill="black"/>
<path d="M141.877 114.076L135.266 115.544L135.393 116.119L142.005 114.651L141.877 114.076Z" fill="black"/>
<path opacity="0.15" d="M138.416 127.278L135.975 127.229C135.808 127.226 135.642 127.263 135.493 127.338C135.344 127.414 135.215 127.525 135.119 127.662C135.023 127.798 134.961 127.956 134.941 128.123C134.92 128.288 134.94 128.457 135 128.613L135.889 130.961H138.836L138.416 127.278Z" fill="black"/>
<path d="M133.642 118.709L133.384 122.032L127.511 123.952C127.511 123.952 123.964 122.804 123.21 118.222L134.52 112.908L135.247 115.556L133.642 118.709Z" fill="#0B5059"/>
<path d="M135.885 117.618C136.211 118.743 136.568 119.542 135.09 119.549C132.281 119.549 131.715 115.852 133.283 115.001C133.446 114.893 133.632 114.822 133.826 114.794C134.019 114.766 134.217 114.781 134.405 114.838C134.592 114.894 134.765 114.992 134.911 115.123C135.056 115.254 135.171 115.416 135.248 115.597L135.885 117.618Z" fill="#F6E8E2"/>
<path opacity="0.15" d="M135.067 117.202C135.023 116.841 134.895 116.495 134.692 116.193C134.527 115.971 134.29 115.815 134.021 115.751C133.885 115.739 133.749 115.754 133.62 115.798C133.491 115.841 133.372 115.91 133.271 116.002C133.237 116.043 133.216 116.093 133.211 116.145C133.206 116.198 133.216 116.251 133.241 116.298C133.297 116.396 133.395 116.388 133.489 116.332C133.556 116.261 133.639 116.208 133.731 116.175C133.822 116.142 133.921 116.132 134.017 116.144C134.167 116.144 134.276 116.276 134.437 116.459C134.608 116.701 134.713 116.982 134.741 117.277L134.816 117.614C134.816 117.712 134.925 117.753 135.022 117.749C135.12 117.746 135.161 117.641 135.154 117.539L135.082 117.202" fill="black"/>
<path d="M141.218 106.897C141.218 104.647 139.586 102.832 137.576 102.832C137.3 102.832 137.026 102.867 136.759 102.937C136.356 102.364 135.819 101.899 135.194 101.582C134.57 101.265 133.878 101.106 133.178 101.118C132.426 101.099 131.683 101.279 131.024 101.64C130.365 102.002 129.815 102.532 129.428 103.177C128.6 102.371 127.489 101.923 126.334 101.928C123.953 101.928 122.025 103.762 122.025 106.023C122.027 106.661 122.184 107.289 122.483 107.853C120.821 108.228 119.614 109.391 119.614 110.756C119.614 111.944 120.536 112.972 121.864 113.471C121.539 113.669 121.269 113.947 121.081 114.278C120.893 114.61 120.792 114.983 120.788 115.364C120.799 115.886 120.986 116.388 121.319 116.79C121.652 117.191 122.111 117.469 122.621 117.577C122.621 117.599 122.621 117.626 122.621 117.648C122.584 118.046 122.706 118.442 122.961 118.75C123.216 119.058 123.583 119.251 123.981 119.289C124.379 119.326 124.775 119.204 125.082 118.949C125.39 118.694 125.584 118.327 125.621 117.929C125.847 118.013 126.086 118.056 126.326 118.057C127.451 118.057 128.385 117.153 128.779 115.871C128.921 115.871 129.064 115.889 129.21 115.889C131.04 115.889 132.551 114.993 132.821 113.827C133.023 113.855 133.226 113.87 133.429 113.872C135.368 113.872 136.943 112.627 136.98 111.078C137.515 111.497 138.175 111.726 138.855 111.727C139.628 111.744 140.376 111.453 140.936 110.919C141.495 110.384 141.819 109.65 141.836 108.877C141.836 108.215 141.598 107.574 141.165 107.073C141.21 107.013 141.218 106.957 141.218 106.897Z" fill="black"/>
<path d="M123.244 133.646L115.275 135.044C114.428 135.193 113.621 135.516 112.906 135.993C112.191 136.47 111.582 137.091 111.12 137.816L100.886 152.936L110.077 161.062L118.725 150.618L125.527 150.314L123.244 133.646Z" fill="#029B83"/>
<path d="M114.533 135.243L125.471 133.211L126.33 131.418C126.419 131.235 126.558 131.082 126.73 130.975C126.903 130.868 127.102 130.812 127.305 130.814L138.66 130.946C138.844 130.949 139.023 131 139.181 131.094C139.339 131.188 139.47 131.322 139.56 131.482L140.389 132.982L151.845 134.482C154.374 134.811 156.703 136.027 158.419 137.913L166.815 147.134L157.53 158.358L155.4 156.926V195.213H117.304L114.885 161.354C114.885 161.354 111.581 135.798 114.533 135.243Z" fill="#029B83"/>
<path opacity="0.15" d="M153.836 152.576C153.581 152.405 153.285 152.305 152.978 152.286C152.672 152.268 152.366 152.332 152.092 152.471C151.818 152.61 151.587 152.819 151.421 153.078C151.254 153.336 151.16 153.634 151.148 153.941L150.975 158.088L149.723 195.213H155.4V156.922L157.556 158.321L159.293 156.224L153.836 152.576Z" fill="black"/>
<path d="M194.291 143.684L183.791 143.388L190.043 137.238L196.095 130.424L200.573 125.744C200.633 125.658 200.71 125.585 200.801 125.531C200.891 125.476 200.991 125.441 201.096 125.428C201.2 125.415 201.306 125.424 201.407 125.455C201.508 125.486 201.601 125.537 201.681 125.607C201.76 125.676 201.824 125.761 201.869 125.856C201.913 125.952 201.937 126.056 201.938 126.161C201.94 126.266 201.919 126.371 201.878 126.468C201.836 126.564 201.775 126.651 201.698 126.723C200.873 127.672 199.575 129.217 198.233 130.751C198.456 130.664 198.699 130.642 198.934 130.685C199.17 130.728 199.389 130.835 199.568 130.994C199.762 131.173 199.897 131.406 199.955 131.663C200.014 131.921 199.992 132.189 199.894 132.434C200.088 132.333 200.306 132.283 200.525 132.29C200.744 132.296 200.958 132.359 201.146 132.472C201.334 132.585 201.49 132.744 201.599 132.935C201.708 133.125 201.767 133.34 201.769 133.559C201.768 133.687 201.748 133.813 201.709 133.934C201.939 133.825 202.196 133.786 202.449 133.823C202.701 133.859 202.937 133.97 203.126 134.141C203.876 134.831 202.976 136.297 202.504 136.893C200.767 139.154 194.291 143.684 194.291 143.684Z" fill="#F6E8E2"/>
<path opacity="0.15" d="M202.556 133.859C202.238 136.451 194.588 141.877 194.588 141.877L176.055 162.528C173.884 164.913 170.584 164.242 168.015 162.292C168.015 162.292 155.726 153.839 155.22 153.502L155.366 156.911L168.975 165.971C171.649 167.291 174.458 166.796 176.475 164.651L194.284 143.684C194.284 143.684 200.854 139.136 202.575 136.859C203.089 136.181 203.891 134.816 203.153 134.163C202.986 134.007 202.78 133.902 202.556 133.859Z" fill="black"/>
<path opacity="0.15" d="M114.532 135.243C113.512 135.491 113.197 135.761 112.282 136.496C112.305 139.346 111.705 150.588 112.117 154.848L102.337 165.656C102.249 165.753 102.199 165.88 102.199 166.012C102.199 166.143 102.249 166.271 102.337 166.368L104.066 168.318L112.886 157.661L114.277 155.984C114.277 155.984 111.581 135.798 114.532 135.243Z" fill="black"/>
<path d="M480.709 110.253H417.041C416.284 110.253 415.56 110.554 415.024 111.089C414.487 111.624 414.188 112.35 414.188 113.107V124.732C414.188 125.489 414.487 126.215 415.024 126.751C415.56 127.287 416.284 127.588 417.041 127.589H418.961L419.055 133.964L423.555 127.589H480.69C481.447 127.588 482.171 127.287 482.707 126.751C483.244 126.215 483.544 125.489 483.544 124.732V113.118C483.547 112.362 483.251 111.636 482.719 111.099C482.186 110.562 481.463 110.258 480.709 110.253Z" fill="#8D9D9F"/>
<path d="M477.259 116.156H420.488V117.539H477.259V116.156Z" fill="white"/>
<path d="M430.571 120.307H420.488V121.691H430.571V120.307Z" fill="white"/>
<path d="M457.466 120.307H432.784V121.691H457.466V120.307Z" fill="white"/>
<path d="M3.225 199.319H75.15C76.0054 199.319 76.8255 199.659 77.4304 200.264C78.0352 200.869 78.375 201.689 78.375 202.544V215.669C78.375 216.525 78.0352 217.345 77.4304 217.95C76.8255 218.555 76.0054 218.894 75.15 218.894H72.9787L72.8737 226.113L67.77 218.894H3.225C2.36963 218.894 1.5495 218.555 0.944624 217.95C0.339749 217.345 0 216.525 0 215.669V202.544C0 201.689 0.339749 200.869 0.944624 200.264C1.5495 199.659 2.36963 199.319 3.225 199.319Z" fill="#8D9D9F"/>
<path d="M7.12122 207.551H71.2575V205.987H7.12122V207.551Z" fill="white"/>
<path d="M59.8688 212.246H71.2575V210.682H59.8688V212.246Z" fill="white"/>
<path d="M29.4788 212.246H57.3638V210.682H29.4788V212.246Z" fill="white"/>
<path d="M371.059 292.177H302.79V319.991H371.059V292.177Z" fill="#B9CCCE"/>
<path opacity="0.1" d="M371.063 292.177H327.57V319.991H371.063V292.177Z" fill="black"/>
<path d="M374.599 289.646H299.25V296.219H374.599V289.646Z" fill="#B9CCCE"/>
<path opacity="0.1" d="M374.599 289.646H327.57V296.219H374.599V289.646Z" fill="black"/>
<path opacity="0.1" d="M371.059 296.219H302.79V297.232H371.059V296.219Z" fill="black"/>
<path d="M323.017 309.371H306.836V315.438H323.017V309.371Z" fill="white"/>
<path opacity="0.1" d="M320.49 301.784H308.351V304.312H320.49V301.784Z" fill="black"/>
<path d="M416.775 292.177H348.506V319.991H416.775V292.177Z" fill="#B9CCCE"/>
<path opacity="0.1" d="M416.779 292.177H373.286V319.991H416.779V292.177Z" fill="black"/>
<path d="M420.315 289.646H344.966V296.219H420.315V289.646Z" fill="#B9CCCE"/>
<path opacity="0.1" d="M420.315 289.646H373.286V296.219H420.315V289.646Z" fill="black"/>
<path opacity="0.1" d="M416.775 296.219H348.506V297.232H416.775V296.219Z" fill="black"/>
<path d="M368.734 309.371H352.552V315.438H368.734V309.371Z" fill="white"/>
<path opacity="0.1" d="M366.21 301.784H354.071V304.312H366.21V301.784Z" fill="black"/>
<path d="M249.02 290.017C248.762 283.449 251.275 277.095 254.487 271.521C256.715 267.649 259.286 264.031 261.683 260.266C261.879 259.956 262.169 259.72 262.516 259.594C262.86 259.468 263.234 259.458 263.586 259.567C263.933 259.676 264.236 259.898 264.446 260.198C264.66 260.497 264.762 260.858 264.749 261.224C264.678 264.685 264.196 268.126 263.31 271.472C262.387 274.832 260.948 277.969 259.504 281.11C257.807 284.799 256.145 288.493 254.447 292.183" fill="#029B83"/>
<g opacity="0.3">
<g opacity="0.3">
<path opacity="0.3" d="M249.02 290.017C248.762 283.449 251.275 277.095 254.487 271.521C256.715 267.649 259.286 264.031 261.683 260.266C261.879 259.956 262.169 259.72 262.516 259.594C262.86 259.468 263.234 259.458 263.586 259.567C263.933 259.676 264.236 259.898 264.446 260.198C264.66 260.497 264.762 260.858 264.749 261.224C264.678 264.685 264.196 268.126 263.31 271.472C262.387 274.832 260.948 277.969 259.504 281.11C257.807 284.799 256.145 288.493 254.447 292.183" fill="black"/>
</g>
</g>
<path d="M233.63 289.242C230.047 278.5 228.519 267.18 229.125 255.873C229.147 255.496 229.299 255.138 229.548 254.857C229.802 254.576 230.141 254.388 230.511 254.324C230.881 254.259 231.264 254.322 231.598 254.502C231.928 254.682 232.191 254.969 232.338 255.316C237.047 266.693 239.863 278.764 240.679 291.051" fill="#029B83"/>
<g opacity="0.3">
<g opacity="0.3">
<path opacity="0.3" d="M233.63 289.242C230.047 278.5 228.519 267.18 229.125 255.873C229.147 255.496 229.299 255.138 229.548 254.857C229.802 254.576 230.141 254.388 230.511 254.324C230.881 254.259 231.264 254.322 231.598 254.502C231.928 254.682 232.191 254.969 232.338 255.316C237.047 266.693 239.863 278.764 240.679 291.051" fill="black"/>
</g>
</g>
<path d="M252.75 288.872L252.455 288.76C254.933 281.45 257.883 274.306 261.278 267.373L261.572 267.52C258.168 274.437 255.218 281.569 252.75 288.872Z" fill="#053849"/>
<path d="M236.285 287.535C233.857 277.06 232.07 266.446 230.938 255.752L231.232 255.717C232.351 266.401 234.133 277.004 236.579 287.464L236.285 287.535Z" fill="#053849"/>
<path d="M231.562 292.437C225.979 283.6 222.455 273.619 221.26 263.234C221.22 262.88 221.296 262.524 221.474 262.217C221.653 261.909 221.924 261.666 222.25 261.522C222.57 261.378 222.936 261.341 223.283 261.416C223.627 261.492 223.943 261.676 224.179 261.941C227.093 265.23 229.348 269.218 231.081 273.388C233.407 278.998 234.846 284.973 236.285 290.922" fill="#029B83"/>
<path d="M237.872 291.238C234.81 278.909 235.363 260.079 238.281 248.267C238.371 247.897 238.584 247.569 238.883 247.338C239.186 247.106 239.556 246.985 239.935 246.994C240.318 247.002 240.683 247.141 240.973 247.387C241.262 247.632 241.458 247.969 241.53 248.342C243.891 261.371 244.038 277.024 244.15 291.091" fill="#029B83"/>
<path d="M244.996 294.192C242.67 287.615 241.837 280.603 242.563 273.664C243.299 267.132 244.591 260.671 245.883 254.246C246.106 253.212 246.289 252.179 246.511 251.127C246.587 250.753 246.792 250.416 247.086 250.175C247.385 249.933 247.754 249.801 248.133 249.801C248.516 249.801 248.886 249.933 249.185 250.175C249.479 250.416 249.684 250.753 249.76 251.127C251.716 261.465 252.014 277.078 251.052 287.415" fill="#029B83"/>
<g opacity="0.3">
<g opacity="0.3">
<path opacity="0.3" d="M244.996 294.192C242.67 287.615 241.837 280.603 242.563 273.664C243.299 267.132 244.591 260.671 245.883 254.246C246.106 253.212 246.289 252.179 246.511 251.127C246.587 250.753 246.792 250.416 247.086 250.175C247.385 249.933 247.754 249.801 248.133 249.801C248.516 249.801 248.886 249.933 249.185 250.175C249.479 250.416 249.684 250.753 249.76 251.127C251.716 261.465 252.014 277.078 251.052 287.415" fill="black"/>
</g>
</g>
<path d="M245.589 290.169C244.667 283.89 247.991 254.968 248.026 254.692L248.32 254.727C248.285 255.021 244.961 283.89 245.883 290.128L245.589 290.169Z" fill="#053849"/>
<path d="M247.656 286.845C247.656 274.663 250.776 261.224 253.783 252.09C253.895 251.733 254.126 251.424 254.438 251.215C254.746 251.006 255.12 250.908 255.494 250.938C255.864 250.969 256.216 251.124 256.492 251.38C256.764 251.636 256.942 251.978 256.996 252.348C257.882 257.366 258.252 262.462 258.105 267.556C257.807 274.645 256.22 281.734 252.861 287.861" fill="#029B83"/>
<path d="M233.233 294.664C230.8 281.524 223.822 264.873 223.747 264.726L224.041 264.615C224.117 264.802 231.13 281.449 233.567 294.629L233.233 294.664Z" fill="#053849"/>
<path d="M239.792 254.839H239.462L239.569 294.192H239.904L239.792 254.839Z" fill="#053849"/>
<path d="M250.611 286.51L250.312 286.399C252.941 277.999 254.416 269.281 254.706 260.484H255.04C254.719 269.317 253.226 278.069 250.611 286.51Z" fill="#053849"/>
<path d="M227.886 289.242L228.332 298.545L229.878 316.894C229.954 317.79 230.359 318.623 231.023 319.229C231.683 319.835 232.547 320.174 233.443 320.178H254.117C255.013 320.165 255.868 319.822 256.528 319.216C257.183 318.61 257.597 317.785 257.682 316.894L259.233 298.545L259.714 289.059L227.886 289.242Z" fill="#485051"/>
<path d="M227.833 288.654L228.091 293.6H259.433L259.656 289.059L227.833 288.654Z" fill="#6B797A"/>
<path d="M228.461 293.007H259.077C259.772 293.007 260.436 292.731 260.93 292.24C261.42 291.748 261.697 291.082 261.697 290.387C261.697 289.692 261.42 289.026 260.93 288.534C260.436 288.043 259.772 287.767 259.077 287.767H228.474C227.779 287.769 227.115 288.046 226.621 288.536C226.131 289.027 225.854 289.692 225.85 290.387C225.845 290.733 225.908 291.076 226.042 291.396C226.171 291.717 226.362 292.008 226.607 292.252C226.852 292.496 227.142 292.689 227.463 292.818C227.784 292.948 228.127 293.012 228.474 293.007" fill="#485051"/>
</svg>
