<svg width="126" height="88" viewBox="0 0 126 88" fill="none" xmlns="http://www.w3.org/2000/svg">
<path d="M21.7321 7.16613L0.194438 46.2347C-0.0710127 47.2547 -0.0648088 48.3263 0.214069 49.343L11.898 88L113.509 87.8601L125.793 35.7008C125.909 34.2671 125.509 32.839 124.664 31.6726L92.0712 1.36516C91.5578 0.888369 90.9511 0.522183 90.289 0.289547C89.627 0.0569117 88.9239 -0.0371307 88.2238 0.0131828L25.8378 4.54037C24.9877 4.60097 24.1666 4.87311 23.4487 5.3319C22.7319 5.79059 22.1411 6.42131 21.7321 7.16613Z" fill="#E5FCFA"/>
<path opacity="0.2" d="M29.8259 79.9791H102.15L112.036 26.4585C112.078 26.222 112.07 25.9786 112.01 25.746C111.949 25.5132 111.837 25.2967 111.683 25.1117C111.53 24.9269 111.337 24.7781 111.119 24.676C110.902 24.5739 110.663 24.5208 110.423 24.5208H38.0985L28.2135 78.0498C28.1709 78.2854 28.1807 78.528 28.2422 78.7595C28.3035 78.9924 28.415 79.2074 28.5688 79.3907C28.7226 79.5754 28.9148 79.7228 29.132 79.8248C29.3492 79.9268 29.5861 79.9791 29.8259 79.9791Z" fill="black"/>
<path d="M102.208 79.9791H29.0026C28.5993 79.9791 28.2098 79.8322 27.9083 79.5633C27.6067 79.2958 27.4139 78.9258 27.3669 78.5252L21.324 27.7392C21.2965 27.508 21.3184 27.2735 21.3881 27.0513C21.4578 26.8291 21.5737 26.6242 21.7283 26.4501C21.8828 26.2759 22.0724 26.1364 22.2846 26.0409C22.4968 25.9454 22.7269 25.896 22.9597 25.8958H94.3109C94.7141 25.8957 95.1034 26.0437 95.4048 26.3116C95.7063 26.5797 95.8991 26.949 95.9466 27.3497L102.208 79.9791Z" fill="#029B83"/>
<path opacity="0.2" d="M38.099 24.5208L39.2578 19.3901C39.3399 19.0265 39.552 18.7005 39.8588 18.4664C40.1655 18.2324 40.5485 18.1044 40.9434 18.1042H52.1948C52.5773 18.1043 52.949 18.2239 53.2516 18.4441C53.554 18.6644 53.7703 18.973 53.8664 19.3213L55.2292 24.5208H38.099Z" fill="black"/>
<path d="M121.582 88H1.4678C1.4214 88 1.375 87.957 1.375 87.8854C1.375 87.8138 1.4214 87.7708 1.4678 87.7708H121.595C121.641 87.7708 121.688 87.8138 121.688 87.8854C121.688 87.957 121.64 88 121.582 88Z" fill="#8D9D9F"/>
<path d="M42.7109 71.5578C42.955 72.2084 43.7594 72.4344 44.3068 72.0064L44.6127 71.7675C44.9573 71.4985 45.0931 71.0405 44.9522 70.6271L44.5938 69.5752L44.7391 70.0015C45.0089 70.7947 45.9585 71.1144 46.6538 70.646C47.1006 70.3452 47.3095 69.7952 47.1745 69.2727L46.7595 67.6657L46.7878 67.7757C46.9743 68.501 47.8328 68.8104 48.4387 68.3704C48.7609 68.1366 48.9251 67.7413 48.8632 67.3477L48.6613 66.0604L49.39 66.4909C50.0242 66.8656 50.8423 66.6224 51.1698 65.9624C51.4577 65.3815 51.2609 64.6777 50.7134 64.3305L48.1216 62.6495L42.7109 71.5578Z" fill="#F6E8E2"/>
<path opacity="0.15" d="M42.7109 71.5578C42.955 72.2084 43.7594 72.4344 44.3068 72.0064L44.6127 71.7675C44.9573 71.4985 45.0931 71.0405 44.9522 70.6271L44.5938 69.5752L44.7391 70.0015C45.0089 70.7947 45.9585 71.1144 46.6538 70.646C47.1006 70.3452 47.3095 69.7952 47.1745 69.2727L46.7595 67.6657L46.7878 67.7757C46.9743 68.501 47.8328 68.8104 48.4387 68.3704C48.7609 68.1366 48.9251 67.7413 48.8632 67.3477L48.6613 66.0604L49.39 66.4909C50.0242 66.8656 50.8423 66.6224 51.1698 65.9624C51.4577 65.3815 51.2609 64.6777 50.7134 64.3305L48.1216 62.6495L42.7109 71.5578Z" fill="black"/>
<path d="M57.3976 33.4746C49.9485 32.6221 43.2179 37.97 42.3654 45.419C41.5129 52.8681 46.8608 59.5987 54.3099 60.4512C61.7589 61.3029 68.4904 55.9558 69.3421 48.5059C70.1946 41.0577 64.8467 34.3271 57.3976 33.4746ZM54.5728 58.1489C48.3939 57.4408 43.9596 51.8609 44.6685 45.6828C45.3767 39.5039 50.9566 35.0696 57.1346 35.7777C63.3135 36.4867 67.7479 42.0657 67.0398 48.2446C66.3342 54.421 60.75 58.8545 54.5728 58.1489Z" fill="#053849"/>
<path d="M40.1242 74.2546L48.9637 57.141L50.5072 57.9058L41.7673 75.1045C41.6762 75.2901 41.4494 75.3632 41.2672 75.2661L40.2815 74.7453C40.1027 74.6516 40.034 74.4333 40.1242 74.2546Z" fill="#053849"/>
<path d="M41.3479 74.8818L50.0723 57.7158L47.9737 57.0162L39.4014 73.8755C39.3129 74.0542 39.3825 74.2699 39.5587 74.3627L40.8469 75.0433C41.0299 75.1405 41.2559 75.0674 41.3479 74.8818Z" fill="#053849"/>
<g opacity="0.3">
<g opacity="0.3">
<g opacity="0.3">
<g opacity="0.3">
<g opacity="0.3">
<path opacity="0.3" d="M47.9738 57.0162L47.3473 58.2795C47.4985 58.3646 47.6524 58.448 47.8096 58.5262C48.3201 58.7788 48.8417 58.9782 49.3703 59.132L50.0724 57.7158L47.9738 57.0162Z" fill="black"/>
</g>
</g>
</g>
</g>
</g>
<path d="M56.6018 33.4702C49.1527 32.6186 42.4212 37.9656 41.5696 45.4147C40.718 52.8637 46.065 59.5943 53.5149 60.4468C60.964 61.2993 67.6946 55.9515 68.5471 48.5024C69.3987 41.0533 64.0508 34.3227 56.6018 33.4702ZM53.777 58.1446C47.5981 57.4365 43.1637 51.8565 43.8727 45.6785C44.5808 39.4996 50.1608 35.0652 56.3388 35.7733C62.5177 36.4823 66.9521 42.0614 66.2431 48.2394C65.5384 54.4166 59.9542 58.8493 53.777 58.1446Z" fill="#053849"/>
<path d="M26.9989 71.7701C26.9989 71.7701 33.4837 64.8813 34.9327 63.4118C36.0928 62.2353 41.9959 61.0837 44.305 60.6704C44.898 60.5647 45.4531 60.6506 45.9627 60.9711L43.5797 65.7003L40.3862 71.9909L30.8558 78.2833L26.9989 71.7701Z" fill="#F6E8E2"/>
<path d="M40.0572 67.4886C40.0572 67.4886 42.2709 66.8794 44.2999 65.1426C45.2349 64.3416 46.0917 63.8664 46.744 63.5862C47.4254 63.2932 48.2187 63.5089 48.6595 64.1053C49.1631 64.7868 49.0479 65.7415 48.3974 66.2838C46.915 67.5187 44.434 69.6242 43.5058 70.6383C42.1429 72.1276 40.7292 74.429 37.0511 75.4894C33.7597 76.4382 30.8558 78.2824 30.8558 78.2824" fill="#F6E8E2"/>
<path opacity="0.15" d="M44.9281 63.104L40.0571 67.4886C40.0571 67.4886 42.8776 66.3954 43.5797 65.7002L44.9281 63.104Z" fill="black"/>
<path d="M25.7451 72.9354L34.6036 82.0808L28.9446 87.8919H11.5887L11.1146 85.8229L25.7451 72.9354Z" fill="#029B83"/>
<path d="M25.7451 72.9354L27.1966 71.5862L34.7866 79.4056L33.3652 80.8055L25.7451 72.9354Z" fill="white"/>
<path d="M31.5407 82.9978C31.9841 82.9978 32.3442 82.6377 32.3442 82.1943C32.3442 81.75 31.9841 81.3908 31.5407 81.3908C31.0973 81.3908 30.7372 81.75 30.7372 82.1943C30.7372 82.6377 31.0973 82.9978 31.5407 82.9978Z" fill="#053849"/>
<path opacity="0.15" d="M31.9618 82.9067C31.8252 83.0081 31.6542 83.064 31.4952 83.0399C31.0526 83.0141 30.7089 82.5973 30.7346 82.1539C30.7364 81.8703 30.8919 81.6494 31.1136 81.5205C31.0105 81.6675 30.9469 81.8205 30.9228 81.9794C30.891 82.4624 31.2743 82.8852 31.7564 82.917C31.8364 82.9291 31.8767 82.9342 31.9618 82.9067Z" fill="black"/>
<path d="M29.6742 84.7733C30.1177 84.7733 30.4778 84.4132 30.4778 83.9698C30.4778 83.5255 30.1177 83.1662 29.6742 83.1662C29.2308 83.1662 28.8707 83.5255 28.8707 83.9698C28.8707 84.4132 29.2308 84.7733 29.6742 84.7733Z" fill="#053849"/>
<path opacity="0.15" d="M30.0952 84.6822C29.9586 84.7836 29.7876 84.8395 29.6286 84.8154C29.186 84.7896 28.8423 84.3728 28.8681 83.9294C28.8698 83.6458 29.0253 83.4249 29.247 83.296C29.1439 83.443 29.0803 83.5959 29.0563 83.7549C29.0245 84.2379 29.4077 84.6607 29.8899 84.6925C29.9698 84.7045 30.0093 84.7106 30.0952 84.6822Z" fill="black"/>
<path opacity="0.3" d="M55.0507 58.2255C61.271 58.2255 66.3137 53.1829 66.3137 46.9625C66.3137 40.7421 61.271 35.6996 55.0507 35.6996C48.8304 35.6996 43.7877 40.7421 43.7877 46.9625C43.7877 53.1829 48.8304 58.2255 55.0507 58.2255Z" fill="white"/>
</svg>
